<svg version="1.1" id="Слой_1" xmlns="http://www.w3.org/2000/svg" x="0" y="0" width="1024" height="1024" xml:space="preserve"><path fill-rule="evenodd" clip-rule="evenodd" fill="#2F3579" d="M527.523 290.445V156.599c-105.843-52.854-279.321-52.916-385.314.041v350.866s-6.541 84.083 83.108 154.957c58.283 46.078 109.606 67.605 109.87 68.593-.248-.873 45.208-20.662 98.573-60.824 21.421 40.469 52.019 75.23 88.983 101.558-1.091.885-2.161 1.772-3.269 2.654-97.503 77.639-184.645 115.752-184.202 117.33-.443-1.676-86.957-38.243-185.195-116.502C-1.039 654.886 9.987 512.073 9.987 512.073V67.431c178.664-89.948 471.081-89.845 649.492-.072v174.545c-48.548 5.153-93.535 22.328-131.956 48.541z"/><path fill-rule="evenodd" clip-rule="evenodd" fill="#44B64B" d="M688.997 784.121c-138.844 0-251.399-113.135-251.399-252.694s112.555-252.689 251.399-252.689 251.399 113.13 251.399 252.689-112.555 252.694-251.399 252.694zm-2.76-375.547c-67.503 0-122.228 55-122.228 122.853s54.724 122.859 122.228 122.859c67.503 0 122.227-55.006 122.227-122.859.001-67.853-54.724-122.853-122.227-122.853z"/><path fill="#44B64B" d="M951.434 1024c-11.569 0-23.27-3.197-33.737-9.899-68.2-43.652-147.285-66.726-228.701-66.726-80.352 0-158.557 22.516-226.161 65.115-29.296 18.459-68.004 9.673-86.461-19.618-18.458-29.294-9.674-68.002 19.618-86.461 87.646-55.227 188.963-84.417 293.003-84.417 105.42 0 207.875 29.914 296.294 86.507 29.16 18.663 37.669 57.434 19.003 86.597-11.963 18.693-32.196 28.899-52.858 28.902z"/></svg>