<svg width="139" height="142" fill="none" xmlns="http://www.w3.org/2000/svg"><g clip-path="url(#clip0)"><path fill-rule="evenodd" clip-rule="evenodd" d="M71.65 40.274V21.715c-14.65-7.331-38.655-7.338-53.324.007v48.657s-.907 11.66 11.502 21.488c8.064 6.39 15.17 9.375 15.206 9.511-.033-.122 6.255-2.867 13.64-8.434a40.651 40.651 0 0012.317 14.084c-.152.122-.3.244-.452.367-13.492 10.765-25.555 16.052-25.492 16.27-.063-.231-12.036-5.303-25.63-16.155C-1.502 90.813.024 71.01.024 71.01V9.35C24.752-3.122 65.22-3.109 89.91 9.341v24.206a39.712 39.712 0 00-18.261 6.727z" fill="#fff"/><path fill-rule="evenodd" clip-rule="evenodd" d="M93.995 108.735c-19.214 0-34.793-15.69-34.793-35.04 0-19.353 15.576-35.042 34.793-35.042s34.792 15.69 34.792 35.041c0 19.352-15.575 35.041-34.792 35.041zm-.38-52.078c-9.343 0-16.916 7.629-16.916 17.037 0 9.409 7.573 17.037 16.917 17.037 9.343 0 16.916-7.628 16.916-17.037-.003-9.412-7.576-17.037-16.916-17.037z" fill="#44B64B"/><path d="M130.317 142a8.611 8.611 0 01-4.67-1.374c-9.439-6.053-20.384-9.253-31.652-9.253-11.12 0-21.943 3.121-31.3 9.029-4.053 2.559-9.412 1.34-11.966-2.722-2.554-4.061-1.338-9.431 2.716-11.99 12.128-7.659 26.151-11.707 40.55-11.707 14.59 0 28.768 4.148 41.005 11.997 4.037 2.589 5.214 7.966 2.63 12.008a8.661 8.661 0 01-7.313 4.012z" fill="#44B64B"/></g><defs><clipPath id="clip0"><path fill="#fff" d="M0 0h139v142H0z"/></clipPath></defs></svg>