<svg width="72" height="72" fill="none" xmlns="http://www.w3.org/2000/svg"><g clip-path="url(#clip0)" stroke="#fff" stroke-width=".3"><path d="M23.327 51.403l-.06.138h0l-.002-.002-.009-.003-.032-.014-.126-.057a24.85 24.85 0 01-.48-.225c-.414-.2-1.01-.5-1.735-.902a43.384 43.384 0 01-5.525-3.639c-3.24-2.512-4.745-5.261-5.44-7.388A11.868 11.868 0 019.37 36.7a8.365 8.365 0 01-.031-.954c0-.023.002-.04.003-.053v-.014 0V10.92l.084-.04c3.826-1.876 8.858-2.808 13.88-2.808 5.023 0 10.053.932 13.874 2.804l.084.04v9.406l9.159-3.446V4.83C40.064 1.714 31.687.15 23.3.15 14.912.15 6.53 1.713.163 4.835v31.169h-.15.15v.013h0l-.001.005-.001.02a8.254 8.254 0 00-.01.41c-.001.288.01.709.057 1.24.094 1.065.332 2.573.907 4.346 1.148 3.542 3.643 8.143 9.035 12.356a72.778 72.778 0 009.26 6.146 59.292 59.292 0 002.905 1.523 37.36 37.36 0 001.008.472l.01.004.01-.004.207-.098c.183-.086.452-.216.797-.389.69-.346 1.683-.864 2.894-1.553a76.763 76.763 0 009.281-6.22 20.904 20.904 0 01-6.179-6.926 46.75 46.75 0 01-4.845 3.105 37.366 37.366 0 01-1.96 1.017l-.111.051-.029.013-.007.004h-.002 0l-.062-.136zm0 0l-.06.138.061.026.06-.027-.061-.137z" fill="#2F3579"/><path d="M57.404 37.366v0c-.002-4.857-3.994-8.789-8.913-8.789-4.92 0-8.912 3.933-8.912 8.789 0 4.855 3.992 8.788 8.913 8.788 4.92 0 8.912-3.933 8.912-8.788zm-8.716 17.617c-9.872 0-17.872-7.89-17.872-17.617 0-9.728 7.998-17.618 17.872-17.618 9.873 0 17.872 7.89 17.872 17.618 0 9.727-7.999 17.617-17.872 17.617zm16.475 16.194h0c-4.913-3.085-10.61-4.715-16.475-4.715-5.787 0-11.421 1.59-16.291 4.6-2.032 1.256-4.716.657-5.994-1.333-1.277-1.988-.67-4.617 1.36-5.871h0c6.258-3.868 13.494-5.914 20.925-5.914 7.53 0 14.846 2.096 21.16 6.06l.08-.126-.08.127c2.021 1.269 2.608 3.9 1.317 5.879h0a4.36 4.36 0 01-3.663 1.966 4.38 4.38 0 01-2.34-.673z" fill="#44B64B"/></g><defs><clipPath id="clip0"><path fill="#fff" d="M0 0h72v72H0z"/></clipPath></defs></svg>