<svg version="1.1" id="Слой_1" xmlns="http://www.w3.org/2000/svg" x="0" y="0" width="167" height="43" xml:space="preserve"><path d="M68.383 14.867c.363.778.849 1.4 1.458 1.867a6.829 6.829 0 002.02 1.067 7.32 7.32 0 002.313.367c1.229 0 2.364-.25 3.403-.75v-2.45c-.715.645-1.721.967-3.018.967a5.116 5.116 0 01-1.517-.225 4.46 4.46 0 01-1.324-.658 3.05 3.05 0 01-.947-1.158c-.235-.483-.352-1.036-.352-1.658 0-1.311.405-2.303 1.215-2.975.81-.672 1.785-1.008 2.925-1.008 1.162 0 2.14.306 2.934.917V6.783c-1.006-.5-2.124-.75-3.353-.75a7.15 7.15 0 00-2.313.375c-.738.25-1.406.62-2.003 1.108-.598.489-1.079 1.142-1.442 1.958-.363.817-.545 1.736-.545 2.758.001.979.183 1.857.546 2.635zm27.831-2.951c0-.589-.017-1.122-.05-1.6l5.465 7.617h2.364V6.266h-2.515v6.017c0 .589.017 1.122.05 1.6l-5.465-7.617H93.7v11.667h2.515v-6.017zm10.587-.883a3.23 3.23 0 001.19 1.092c.475.25.989.483 1.542.7.553.217 1.067.4 1.542.55.475.15.872.35 1.19.6.319.25.478.542.478.875 0 .745-.732 1.117-2.196 1.117a7.416 7.416 0 01-4.158-1.233v2.383c1.263.7 2.71 1.05 4.342 1.05.648 0 1.235-.058 1.76-.175a4.984 4.984 0 001.442-.558 2.627 2.627 0 001.014-1.067c.24-.455.36-1 .36-1.633 0-.644-.159-1.211-.478-1.7a3.185 3.185 0 00-1.19-1.108c-.475-.25-.989-.483-1.542-.7a18.365 18.365 0 00-1.542-.533c-.475-.139-.872-.325-1.19-.558-.319-.233-.478-.506-.478-.817 0-.7.637-1.061 1.911-1.083 1.419-.022 2.626.322 3.621 1.033V6.933c-1.062-.6-2.33-.9-3.805-.9-1.23 0-2.252.283-3.068.85-.816.567-1.224 1.389-1.224 2.467.001.644.16 1.205.479 1.683zm18.214 2.383c0 1.667-.883 2.5-2.649 2.5-1.755 0-2.632-.833-2.632-2.5v-7.15h-2.515v7.284c0 .667.095 1.267.285 1.8.19.533.447.972.771 1.317s.71.633 1.157.867c.447.233.914.397 1.4.492.486.094.997.142 1.534.142a7.99 7.99 0 001.534-.142 5.089 5.089 0 001.4-.492 4.31 4.31 0 001.157-.867c.324-.344.581-.783.771-1.317.19-.533.285-1.133.285-1.8V6.266h-2.498v7.15zm11.584-1.083l-4.023-6.067h-2.33v11.667h2.515v-7.2l3.101 4.7h1.458l3.101-4.683v7.184h2.515V6.266h-2.33l-4.007 6.067zm9.187 5.6h8.365v-2.2H148.3v-2.6h5.247V10.95H148.3V8.466h5.75v-2.2h-8.265v11.667zm13.21-4.083h1.844l3.168 4.083h2.9l-3.504-4.4c1.71-.544 2.565-1.7 2.565-3.467 0-.711-.132-1.322-.394-1.833a2.872 2.872 0 00-1.09-1.183 5.146 5.146 0 00-1.475-.6 7.446 7.446 0 00-1.702-.183h-4.828v11.667h2.515V13.85zm2.431-5.384c.581 0 1.056.133 1.425.4s.553.683.553 1.25c0 .556-.187.97-.562 1.242-.375.272-.847.408-1.417.408h-2.431v-3.3h2.432zM70.47 30.608h5.365l.855 2.183h2.598L74.51 21.124h-2.716L67 32.791h2.598l.872-2.183zm2.682-7.167c.056.3.14.606.251.917l1.643 4.183h-3.789l1.626-4.183c.113-.267.202-.573.269-.917zm5.013-.067h3.604v9.417h2.498v-9.417h3.604v-2.25h-9.706v2.25zm10.142 0h3.604v9.417h2.498v-9.417h3.604v-2.25h-9.707v2.25zm26.456 5.333h1.844l3.168 4.083h2.9l-3.504-4.4c1.71-.544 2.565-1.7 2.565-3.467 0-.711-.131-1.322-.394-1.833a2.872 2.872 0 00-1.09-1.183 5.146 5.146 0 00-1.475-.6 7.446 7.446 0 00-1.702-.183h-4.828v11.667h2.515v-4.084zm2.431-5.383c.581 0 1.056.133 1.425.4s.553.683.553 1.25c0 .556-.187.97-.562 1.242-.375.272-.847.408-1.417.408h-2.431v-3.3h2.432zm9.404 3.45c0-.589-.017-1.122-.05-1.6l5.465 7.617h2.364V21.124h-2.515v6.017c0 .589.017 1.122.05 1.6l-5.465-7.617h-2.364v11.667h2.515v-6.017zm10.293 6.017h8.365v-2.2h-5.851v-2.6h5.247v-2.183h-5.247v-2.483h5.75v-2.2h-8.265v11.666zm16.245-4.134l4.577-7.534h-2.833l-3.001 5.234-3.001-5.234h-2.833l4.593 7.534v4.133h2.498v-4.133zm5.356-2.766a3.23 3.23 0 001.19 1.092c.475.25.989.483 1.542.7.553.217 1.067.4 1.542.55.475.15.872.35 1.19.6.319.25.478.542.478.875 0 .745-.732 1.117-2.196 1.117a7.416 7.416 0 01-4.158-1.233v2.383c1.263.7 2.71 1.05 4.342 1.05.648 0 1.235-.058 1.76-.175a4.984 4.984 0 001.442-.558 2.627 2.627 0 001.014-1.067c.24-.455.36-1 .36-1.633 0-.644-.159-1.211-.478-1.7a3.185 3.185 0 00-1.19-1.108c-.475-.25-.989-.483-1.542-.7a18.365 18.365 0 00-1.542-.533c-.475-.139-.872-.325-1.19-.558-.319-.233-.478-.506-.478-.817 0-.7.637-1.061 1.911-1.083 1.419-.022 2.626.322 3.621 1.033v-2.333c-1.062-.6-2.33-.9-3.805-.9-1.23 0-2.252.283-3.068.85-.816.567-1.224 1.389-1.224 2.467.001.642.161 1.203.479 1.681z" fill="#2F3579"/><path fill-rule="evenodd" clip-rule="evenodd" fill="#44B64B" d="M108.109 33.002c-1.704 1.322-3.226 1.971-3.219 1.998-.008-.029-1.519-.651-3.236-1.984-2.64-2.05-2.448-4.483-2.448-4.483V20.96c3.122-1.532 8.231-1.53 11.349-.001v7.565s.193 2.43-2.446 4.478zm.14-4.552v-5.971c-1.849-.9-4.881-.901-6.733.001v5.976s-.114 1.432 1.452 2.639c1.018.785 1.915 1.151 1.92 1.168-.005-.016.899-.398 1.909-1.177 1.567-1.206 1.452-2.636 1.452-2.636zM85.812 14.106c-2.528 0-4.578-2.039-4.578-4.553S83.283 5 85.812 5s4.578 2.038 4.578 4.553-2.05 4.553-4.578 4.553zm-.051-6.766c-1.229 0-2.226.991-2.226 2.214s.997 2.214 2.226 2.214 2.226-.991 2.226-2.214-.996-2.214-2.226-2.214z"/><path fill="#44B64B" d="M90.591 18.429c-.211 0-.424-.058-.614-.178a7.766 7.766 0 00-4.165-1.202 7.778 7.778 0 00-4.118 1.173 1.149 1.149 0 01-1.574-.353 1.123 1.123 0 01.357-1.558 10.073 10.073 0 015.336-1.521c1.92 0 3.785.539 5.396 1.559.531.336.686 1.035.346 1.56a1.15 1.15 0 01-.964.52z"/><path fill-rule="evenodd" clip-rule="evenodd" fill="#2F3579" d="M21.652 12.196v-5.62c-4.445-2.22-11.729-2.222-16.18.002v14.734s-.275 3.531 3.49 6.507c2.447 1.935 4.603 2.839 4.614 2.88-.01-.037 1.898-.868 4.139-2.554a12.319 12.319 0 003.737 4.265l-.137.111c-4.094 3.26-7.754 4.861-7.735 4.927-.019-.07-3.652-1.606-7.777-4.892C-.544 27.5-.081 21.503-.081 21.503V2.832C7.422-.945 19.701-.941 27.193 2.829v7.33a12.065 12.065 0 00-5.541 2.037z"/><path fill-rule="evenodd" clip-rule="evenodd" fill="#44B64B" d="M28.432 32.927c-5.83 0-10.557-4.751-10.557-10.611s4.726-10.611 10.557-10.611 10.557 4.751 10.557 10.611-4.726 10.611-10.557 10.611zm-.115-15.77c-2.835 0-5.133 2.31-5.133 5.159 0 2.849 2.298 5.159 5.133 5.159s5.133-2.31 5.133-5.159c-.001-2.85-2.299-5.159-5.133-5.159z"/><path fill="#44B64B" d="M39.453 43c-.486 0-.977-.134-1.417-.416a17.78 17.78 0 00-9.604-2.802c-3.374 0-6.658.945-9.497 2.734a2.633 2.633 0 01-2.807-4.455 23.045 23.045 0 0112.304-3.545 23.03 23.03 0 0112.442 3.633 2.632 2.632 0 01.798 3.636A2.629 2.629 0 0139.453 43z"/></svg>