<svg width="203" height="52" fill="none" xmlns="http://www.w3.org/2000/svg"><g clip-path="url(#clip0)"><path d="M72.269 17.979c.44.94 1.032 1.693 1.772 2.258a8.32 8.32 0 002.455 1.29 8.94 8.94 0 002.812.444c1.494 0 2.874-.303 4.137-.907V18.1c-.87.78-2.092 1.17-3.669 1.17a6.231 6.231 0 01-1.844-.273 5.432 5.432 0 01-1.61-.796 3.692 3.692 0 01-1.15-1.4c-.286-.584-.428-1.253-.428-2.005 0-1.585.492-2.785 1.477-3.598.984-.812 2.17-1.219 3.555-1.219 1.413 0 2.601.37 3.567 1.11V8.202c-1.223-.605-2.582-.907-4.076-.907-.979 0-1.916.15-2.812.453a7.775 7.775 0 00-2.435 1.34c-.727.591-1.311 1.381-1.752 2.368-.442.988-.663 2.1-.663 3.335.001 1.184.222 2.246.664 3.187zm33.83-3.569c0-.712-.021-1.357-.061-1.935l6.643 9.211h2.874V7.577h-3.057v7.277c0 .712.021 1.357.061 1.935l-6.643-9.212h-2.873v14.11h3.057V14.41h-.001zm12.869-1.068a3.917 3.917 0 001.447 1.32c.577.303 1.202.585 1.874.847a28.93 28.93 0 001.875.665c.577.182 1.06.424 1.446.726.388.302.581.655.581 1.058 0 .901-.89 1.35-2.669 1.35-1.848 0-3.533-.496-5.054-1.49V20.7c1.535.846 3.294 1.27 5.278 1.27a9.88 9.88 0 002.139-.212 6.083 6.083 0 001.753-.675c.53-.308.941-.739 1.232-1.29.292-.55.438-1.21.438-1.975 0-.779-.193-1.465-.581-2.056-.388-.591-.869-1.037-1.447-1.34a18.678 18.678 0 00-1.874-.846 22.427 22.427 0 00-1.874-.645c-.578-.168-1.06-.393-1.447-.675-.388-.281-.581-.612-.581-.988 0-.846.774-1.283 2.323-1.31 1.725-.026 3.192.39 4.402 1.25V8.384c-1.291-.725-2.833-1.088-4.626-1.088-1.495 0-2.737.342-3.729 1.028-.992.685-1.488 1.68-1.488 2.983.001.779.195 1.457.582 2.035zm22.141 2.882c0 2.016-1.074 3.023-3.22 3.023-2.134 0-3.2-1.007-3.2-3.023V7.577h-3.057v8.81c0 .806.116 1.531.347 2.176.231.644.543 1.175.937 1.592.394.418.863.766 1.406 1.049a6.29 6.29 0 001.702.595 9.852 9.852 0 001.865.172c.651 0 1.274-.057 1.864-.172a6.202 6.202 0 001.702-.595 5.228 5.228 0 001.407-1.049c.393-.416.706-.946.937-1.592.231-.645.346-1.37.346-2.177V7.577h-3.036v8.647zm14.081-1.31l-4.89-7.337h-2.833v14.11h3.058v-8.708l3.769 5.684h1.772l3.77-5.663v8.688h3.057V7.578h-2.832l-4.871 7.336zm11.167 6.772h10.169v-2.66h-7.113v-3.144h6.378v-2.64h-6.378v-3.004h6.99v-2.66h-10.047v14.108h.001zm16.058-4.937h2.242l3.85 4.937h3.526l-4.26-5.32c2.079-.658 3.118-2.056 3.118-4.193 0-.86-.16-1.599-.479-2.217a3.476 3.476 0 00-1.325-1.43 6.272 6.272 0 00-1.793-.726 9.093 9.093 0 00-2.069-.221h-5.868v14.109h3.057v-4.94h.001zm2.955-6.511c.706 0 1.284.16 1.732.484.449.323.672.826.672 1.511 0 .673-.227 1.173-.683 1.502-.456.33-1.029.494-1.722.494h-2.955v-3.991h2.956zM74.805 37.014h6.522l1.04 2.64h3.157l-5.808-14.109h-3.301l-5.828 14.11h3.159l1.06-2.64zm3.26-8.667c.069.363.17.733.306 1.11l1.997 5.058h-4.606l1.977-5.059c.137-.323.245-.693.327-1.109zm6.095-.081h4.38v11.388h3.037V28.266h4.38v-2.72H84.16v2.72zm12.328 0h4.381v11.388h3.036V28.266h4.381v-2.72h-11.8v2.72h.002zm32.159 6.449h2.241l3.851 4.938h3.525l-4.259-5.32c2.079-.659 3.118-2.057 3.118-4.194 0-.86-.159-1.598-.479-2.216a3.482 3.482 0 00-1.325-1.43 6.271 6.271 0 00-1.793-.726 9.095 9.095 0 00-2.069-.222h-5.869v14.11h3.058v-4.94h.001zm2.955-6.51c.706 0 1.283.162 1.732.485.449.322.672.825.672 1.511 0 .672-.227 1.173-.683 1.502-.456.329-1.03.494-1.722.494h-2.955v-3.991h2.956zm11.431 4.173c0-.712-.021-1.357-.061-1.935l6.643 9.211h2.874V25.545h-3.057v7.277c0 .712.02 1.356.061 1.935l-6.644-9.212h-2.873v14.11h3.057v-7.277zm12.512 7.276h10.168v-2.66h-7.112V33.85h6.378v-2.64h-6.378v-3.003h6.989v-2.66h-10.046v14.107h.001zm19.747-4.999l5.563-9.11h-3.443l-3.648 6.329-3.648-6.33h-3.444l5.583 9.111v4.998h3.037v-4.998zm6.51-3.345a3.917 3.917 0 001.447 1.32c.577.303 1.202.585 1.874.847a28.72 28.72 0 001.875.665c.577.182 1.06.423 1.446.726.388.302.581.655.581 1.058 0 .9-.89 1.35-2.669 1.35-1.848 0-3.533-.496-5.054-1.49v2.881c1.535.847 3.294 1.27 5.278 1.27.787 0 1.501-.07 2.139-.211a6.08 6.08 0 001.753-.675 3.19 3.19 0 001.232-1.29c.292-.55.438-1.21.438-1.975 0-.78-.193-1.465-.581-2.056-.388-.591-.869-1.038-1.447-1.34a18.678 18.678 0 00-1.874-.847 22.427 22.427 0 00-1.874-.644c-.578-.168-1.06-.393-1.447-.675-.388-.282-.581-.612-.581-.988 0-.846.774-1.283 2.323-1.31 1.725-.026 3.192.39 4.402 1.25v-2.822c-1.291-.725-2.833-1.088-4.626-1.088-1.495 0-2.737.342-3.729 1.028-.992.686-1.488 1.68-1.488 2.983.001.777.196 1.455.582 2.033z" fill="#2F3579"/><path fill-rule="evenodd" clip-rule="evenodd" d="M120.558 39.91c-2.071 1.598-3.921 2.383-3.913 2.416-.009-.035-1.846-.788-3.933-2.4-3.209-2.479-2.976-5.421-2.976-5.421v-9.158c3.795-1.853 10.005-1.85 13.796-.001v9.148s.234 2.939-2.974 5.415zm.171-5.505v-7.221c-2.248-1.088-5.934-1.09-8.185.001v7.227s-.138 1.732 1.765 3.191c1.238.95 2.328 1.392 2.334 1.413-.006-.02 1.093-.482 2.321-1.424 1.904-1.458 1.765-3.187 1.765-3.187zM93.455 17.058c-3.073 0-5.565-2.465-5.565-5.505s2.49-5.506 5.565-5.506c3.074 0 5.565 2.464 5.565 5.506 0 3.04-2.492 5.505-5.565 5.505zm-.062-8.182c-1.494 0-2.706 1.199-2.706 2.678 0 1.479 1.212 2.677 2.706 2.677s2.706-1.198 2.706-2.677c0-1.48-1.211-2.678-2.706-2.678z" fill="#44B64B"/><path d="M99.264 22.286a1.4 1.4 0 01-.746-.215 9.476 9.476 0 00-5.063-1.454c-1.779 0-3.51.491-5.006 1.419a1.4 1.4 0 01-1.913-.427 1.354 1.354 0 01.434-1.884 12.292 12.292 0 016.486-1.84c2.334 0 4.601.652 6.559 1.886.646.406.834 1.252.421 1.886a1.402 1.402 0 01-1.172.63z" fill="#44B64B"/><path fill-rule="evenodd" clip-rule="evenodd" d="M26.32 14.749V7.952c-5.404-2.684-14.258-2.687-19.668.003v17.818s-.335 4.27 4.242 7.869c2.974 2.34 5.595 3.433 5.609 3.482-.013-.044 2.307-1.05 5.03-3.088a14.92 14.92 0 004.543 5.157l-.166.135c-4.977 3.942-9.426 5.878-9.403 5.958-.023-.085-4.439-1.942-9.453-5.916C-.661 33.256-.098 26.004-.098 26.004V3.424c9.12-4.567 24.046-4.562 33.153-.003v8.864a14.712 14.712 0 00-6.735 2.464z" fill="#2F3579"/><path fill-rule="evenodd" clip-rule="evenodd" d="M34.561 39.819c-7.087 0-12.833-5.746-12.833-12.832 0-7.087 5.745-12.832 12.833-12.832S47.394 19.9 47.394 26.987c0 7.086-5.745 12.832-12.833 12.832zm-.14-19.071a6.24 6.24 0 100 12.479 6.24 6.24 0 000-12.479z" fill="#44B64B"/><path d="M47.958 52c-.59 0-1.188-.162-1.723-.503a21.695 21.695 0 00-11.674-3.389 21.702 21.702 0 00-11.544 3.307 3.21 3.21 0 01-4.414-.997 3.175 3.175 0 011.002-4.39A28.12 28.12 0 0134.56 41.74c5.381 0 10.61 1.52 15.124 4.394a3.173 3.173 0 01.97 4.397A3.2 3.2 0 0147.958 52z" fill="#44B64B"/></g><defs><clipPath id="clip0"><path fill="#fff" d="M0 0h203v52H0z"/></clipPath></defs></svg>