<?xml version="1.0" encoding="utf-8"?><svg xmlns="http://www.w3.org/2000/svg" xmlns:xlink="http://www.w3.org/1999/xlink"><symbol viewBox="0 0 24 23" id="admissions" xmlns="http://www.w3.org/2000/svg"><path d="M.572 11.707v10.735l6.857-2.301 8.572 2.158 7.428-2.716V5.431l-7.428 2.373-3.429-1.114M16 22.299V7.805M7.43 20.069v-3.345"/><path d="M5.715 14.494C4.423 10.297.572 9.426.572 5.574c0-2.7 2.46-5.017 5.143-5.017 2.682 0 5.143 2.318 5.143 5.018 0 3.85-3.85 4.721-5.143 8.92z"/><path d="M5.708 3.902c-.95 0-1.722.746-1.722 1.666 0 .92.771 1.666 1.721 1.666.951 0 1.722-.746 1.722-1.666 0-.92-.77-1.666-1.721-1.666z"/></symbol><symbol viewBox="0 0 10 6" id="arrow-down" xmlns="http://www.w3.org/2000/svg"><path d="M1 1l4 4 4-4"/></symbol><symbol viewBox="0 0 12 10" id="arrow-left" xmlns="http://www.w3.org/2000/svg"><path d="M1.333 5h9.334M1.333 5l4 4m-4-4l4-4"/></symbol><symbol viewBox="0 0 10 12" id="arrow-long" xmlns="http://www.w3.org/2000/svg"><path d="M5 1.333v9.334m4-4l-4 4m-4-4l4 4"/></symbol><symbol viewBox="0 0 12 10" id="arrow-right" xmlns="http://www.w3.org/2000/svg"><path d="M1.333 5h9.334m-4 4l4-4m-4-4l4 4"/></symbol><symbol viewBox="0 0 17 14" id="bankruptcy" xmlns="http://www.w3.org/2000/svg"><path d="M9.965 7.393l2.978 5.118M.6 1.196l3.685 2.867L6.68 1.66l1.81 3.143"/><path d="M.6 5.05l4.976 4.04 6.508-5.365 3.684 3.7"/><path d="M16.044 5.08v2.652h-2.64m.491 2.62l-.768 2.56-2.548-.772"/></symbol><symbol viewBox="0 0 14 14" id="building" xmlns="http://www.w3.org/2000/svg"><path d="M1 13h12M2.333 13V3.667L7.667 1v12m4 0V6.333l-4-2.666M5 5v.007M5 7v.007M5 9v.007M5 11v.007"/></symbol><symbol viewBox="0 0 16 18" id="calendar" xmlns="http://www.w3.org/2000/svg"><path d="M13 3.167H3c-.92 0-1.667.746-1.667 1.666v10c0 .92.746 1.667 1.667 1.667h10c.92 0 1.667-.746 1.667-1.667v-10c0-.92-.746-1.667-1.667-1.667zM11.333 1.5v3.333M4.667 1.5v3.333M1.333 8.166h13.334"/><path d="M4.667 11.5h1.666v1.667H4.667V11.5z"/></symbol><symbol viewBox="0 0 13 10" id="check" xmlns="http://www.w3.org/2000/svg"><path d="M.615 5l3.847 3.846 7.692-7.692"/></symbol><symbol viewBox="0 0 18 18" id="checkerrow" xmlns="http://www.w3.org/2000/svg"><path d="M12.528 3.273a6.574 6.574 0 010 9.281 6.539 6.539 0 01-9.26 0 6.586 6.586 0 010-9.281 6.551 6.551 0 019.26 0zM5.667 5.667l4.666 4.666m-4.666 0l4.666-4.666"/><path d="M13.136 11.846l3.285 3.292c.325.326.304.878-.05 1.225-.353.354-.904.375-1.222.05l-2.352-2.351"/></symbol><symbol viewBox="0 0 22 15" id="class" xmlns="http://www.w3.org/2000/svg"><path d="M15.583 15V9.552c0-1.466-3-2.514-4.583-2.514-1.583 0-4.583 1.048-4.583 2.514V15M11 5.78c1.208 0 2.083-.921 2.083-2.094v-.838c0-1.174-.875-2.096-2.083-2.096-1.208 0-2.083.922-2.083 2.096v.838c0 1.173.875 2.095 2.083 2.095zm5 2.096h.417c1.458 0 4.166 1.132 4.166 2.514v3.524m-3.75-7.295c1.209 0 2.084-.922 2.084-2.095v-.838c0-1.174-.875-2.096-2.084-2.096-1.208 0-2.083.922-2.083 2.096v.838c0 1.173.875 2.095 2.083 2.095zM1.417 13.914V10.39c0-1.382 2.708-2.514 4.166-2.514H6m-.833-1.257c-1.209 0-2.084-.922-2.084-2.095v-.838c0-1.174.875-2.096 2.084-2.096 1.208 0 2.083.922 2.083 2.096v.838c0 1.173-.875 2.095-2.083 2.095z"/></symbol><symbol viewBox="0 0 14 14" id="close" xmlns="http://www.w3.org/2000/svg"><path d="M13 1L1 13M1 1l12 12"/></symbol><symbol viewBox="0 0 18 18" id="consumer" xmlns="http://www.w3.org/2000/svg"><path d="M7.326 14.177H1.963m8.91-5.974l5.996 5.36c.578.502.605 1.368.055 1.898l-.22.224a1.276 1.276 0 01-1.87-.056L9.526 9.543m-1.15-6.087L4.758 7.128l2.645 2.684 3.617-3.671-2.644-2.685zm.022.001l.165-1.089.99-1.033 3.493 3.574-.99 1.005-1.072.167M1.33 17.667V15.88h6.6v1.787M4.768 7.142l-1.073.167-1.017 1.033 3.493 3.546 1.017-1.033.165-1.089"/></symbol><symbol viewBox="0 0 20 14" id="credit" xmlns="http://www.w3.org/2000/svg"><path d="M3.198 12.926c-.998 0-1.813-.935-1.813-2.043V3.088c0-1.108.815-2.014 1.813-2.014h13.604c.998 0 1.813.906 1.813 2.014v7.785c0 1.108-.815 2.043-1.813 2.043H3.198v.01zM3.644 10.493h8.413M3.644 8.466h5.558"/><path d="M15.626 4.922c0 .979-.756 1.78-1.696 1.78s-1.696-.793-1.696-1.78c0-.978.755-1.78 1.696-1.78.94 0 1.696.802 1.696 1.78z"/></symbol><symbol viewBox="0 0 20 19" id="debt" xmlns="http://www.w3.org/2000/svg"><path d="M13.982 18.009l-4.694-1.97a.897.897 0 01-.475-1.17l.052-.123a.898.898 0 011.17-.474l2.133.89-.812-1.969-1.671-4.068a.899.899 0 01.487-1.17l.072-.025a.89.89 0 011.164.487l1.274 3.106 3.387-.78s1.119-.214 1.678 1.138l1.255 3.912M5.16 7.715c0 .741.643 1.339 1.443 1.339.793 0 1.443-.598 1.443-1.339 0-.74-.767-1.065-1.443-1.403-.683-.345-1.45-.67-1.45-1.41 0-.741.644-1.34 1.437-1.34s1.443.599 1.443 1.34M6.59 3.556V2.64m0 7.337V9.06"/><path d="M9.106 11.322a5.625 5.625 0 01-7.893-3.496 5.632 5.632 0 01.533-4.354m1.222-1.469a5.625 5.625 0 019.2 5.199"/></symbol><symbol viewBox="0 0 38 36" id="determination" xmlns="http://www.w3.org/2000/svg"><path d="M10.291 20h-9.5v7.2h9.5V20zm-4.395 7.2l-2.667 8m8.709-28c1.749 0 3.167-1.433 3.167-3.2 0-1.767-1.418-3.2-3.167-3.2C10.19.8 8.771 2.233 8.771 4c0 1.767 1.418 3.2 3.167 3.2zm.791 8.035l4.687 2.615M6.396 35.2l3.073-8"/><path d="M18.999 30.4l-.823-7.2-5.51-3.2v-8c0-1.5-1.005-1.706-2.344-2.4-1.287-.667-2.545-.778-3.943 0-.83.463-1.597 1.017-1.597 1.017-.542.456-.825.995-.825 1.707V20m6.344 3.361l4.724 1.839L16 32M7.124 13.25v6.267c0 .163.006.327.019.49M9.469 35.2s15.04-.867 19.575-10.35"/><path d="M29.043 24.85l-2.573-2.2 10.737-4.25-1.286 12-3.068-2.25S29.587 34 24.887 35.2"/></symbol><symbol viewBox="0 0 18 21" id="disabilities" xmlns="http://www.w3.org/2000/svg"><path d="M9.772 12.267h2.72c.613 0 1.183.3 1.49.816l3.246 5.199"/><path d="M15.035 18.711l-2.368-3.867c-.176-.257-.439-.43-.746-.43h-3.29c-1.227 0-1.666-.6-1.93-1.718-.262-1.117-.833-4.21-.964-4.94C5.56 6.81 6 6.252 6.877 6.252h.439c1.272 0 1.316.86 1.623 2.105l.57 2.191h3.509M9.333 3.03c0 1.074-.92 1.933-1.973 1.933-1.097 0-1.974-.902-1.974-1.933 0-1.074.921-1.934 1.974-1.934 1.096 0 1.973.903 1.973 1.934z"/><path d="M12.184 16.563A5.683 5.683 0 017.14 19.57c-3.158 0-5.701-2.492-5.701-5.585a5.492 5.492 0 013.07-4.94"/></symbol><symbol viewBox="0 0 26 22" id="education" xmlns="http://www.w3.org/2000/svg"><path d="M19.227 8.11L13 10.6 1 5.8 13 1l12 4.8-1.475.59"/><path d="M7 9.8l-.8 4.4c1.991 1.58 4.395 2.4 6.8 2.4 2.403 0 4.807-.816 6.8-2.4L19 9.8m2.201 5.6c.196.056.4.08.6.08.2 0 .404-.028.6-.08"/><path d="M23 20.6a1.994 1.994 0 01-2.4 0l.6-5.2s-.2-.38-.2-1.092c0-.452.324-.908.8-.908.476 0 .8.456.8.908 0 .716-.2 1.092-.2 1.092l.6 5.2zm-1.2-7.2V7.08L13 5.4"/></symbol><symbol viewBox="0 0 11 18" id="facebook" xmlns="http://www.w3.org/2000/svg"><path d="M.833 7.333v3.334h2.5V16.5h3.334v-5.833h2.5L10 7.333H6.667V5.667a.833.833 0 01.833-.834H10V1.5H7.5a4.167 4.167 0 00-4.167 4.167v1.666h-2.5z"/></symbol><symbol viewBox="0 0 35 36" id="graph" xmlns="http://www.w3.org/2000/svg"><path d="M3.724 27V10.5h5.212V27m2.979 0V6h5.213v9m2.978-.75V.75h5.213v13.5M13.404 28.5H0m24.574 6.75c5.347 0 9.681-4.365 9.681-9.75s-4.334-9.75-9.68-9.75c-5.347 0-9.681 4.365-9.681 9.75s4.334 9.75 9.68 9.75z"/><path d="M17.872 25.5c0-3.728 3-6.75 6.702-6.75 1.572 0 3.018.545 4.161 1.459a6.763 6.763 0 011.438 1.58M24.575 31.5a2.242 2.242 0 002.234-2.25c0-1.243-1-2.25-2.234-2.25a2.242 2.242 0 00-2.234 2.25c0 1.243 1 2.25 2.234 2.25zm1.78-3.606l5.666-4.644"/></symbol><symbol viewBox="0 0 20 14" id="identity" xmlns="http://www.w3.org/2000/svg"><path d="M3.198 12.926c-.998 0-1.813-.935-1.813-2.043V3.088c0-1.108.815-2.014 1.813-2.014h13.604c.998 0 1.813.906 1.813 2.014v7.785c0 1.108-.815 2.043-1.813 2.043H3.198v.01z"/><path d="M6.42 10.5h3.145V9.083C9.408 8.916 7.875 8 6.42 8c-1.454 0-2.987.916-3.145 1.083V10.5H6.42zm0-7.334c-.928 0-1.637.717-1.637 1.536v.512c0 .87.71 1.536 1.637 1.536.928 0 1.638-.717 1.638-1.536v-.512c0-.819-.764-1.536-1.638-1.536zm4.652 1.75h5.653m-5.653 1.667h5.653M11.072 8.25h3.044"/></symbol><symbol viewBox="0 0 18 18" id="injury" xmlns="http://www.w3.org/2000/svg"><path d="M11.325 15.975l-9.3-9.3c-.842-.842-.842-2.233 0-3.112l1.538-1.538c.842-.842 2.233-.842 3.112 0l9.336 9.336c.843.843.843 2.234 0 3.113l-1.537 1.537a2.243 2.243 0 01-3.15-.036zm-3.112-1.538l-1.538 1.538c-.842.842-2.233.842-3.112 0l-1.538-1.538c-.842-.842-.842-2.233 0-3.112l1.538-1.538m6.224-6.224l1.538-1.538c.842-.842 2.233-.842 3.112 0l1.538 1.538c.842.842.842 2.233 0 3.112l-1.538 1.538M8.213 5.1L5.1 8.214m7.8 1.573L9.786 12.9M7.7 7.7l-.256.256m1.538 1.026l-.257.292m.55-2.086l-.293.256m1.83 1.281l-.256.257m-3.368.293l-.257.256m1.794 1.281l-.256.257M10.3 10.3l-.257.256"/></symbol><symbol viewBox="0 0 16 16" id="instagram" xmlns="http://www.w3.org/2000/svg"><path d="M11.333 1.333H4.667a3.333 3.333 0 00-3.334 3.334v6.667a3.333 3.333 0 003.334 3.333h6.666a3.333 3.333 0 003.334-3.333V4.667a3.333 3.333 0 00-3.334-3.333z"/><path d="M8 10.5a2.5 2.5 0 100-5 2.5 2.5 0 000 5zm3.75-6.25"/></symbol><symbol viewBox="0 0 16 16" id="linkedin" xmlns="http://www.w3.org/2000/svg"><path d="M13 1.333H3c-.92 0-1.667.747-1.667 1.667v10c0 .92.746 1.667 1.667 1.667h10c.92 0 1.667-.746 1.667-1.667V3c0-.92-.746-1.667-1.667-1.667zM4.667 7.167v4.167m0-6.667v.008M8 11.334V7.167"/><path d="M11.333 11.334v-2.5a1.667 1.667 0 00-3.333 0"/></symbol><symbol viewBox="0 0 20 16" id="mail" xmlns="http://www.w3.org/2000/svg"><path d="M17 1H3a2 2 0 00-2 2v10a2 2 0 002 2h14a2 2 0 002-2V3a2 2 0 00-2-2z"/><path d="M1 3l9 6 9-6"/></symbol><symbol viewBox="0 0 8 14" id="next" xmlns="http://www.w3.org/2000/svg"><path d="M1 1l6 6-6 6"/></symbol><symbol viewBox="0 0 40 35" id="passion" xmlns="http://www.w3.org/2000/svg"><path d="M26.194 14.561l.976-1.756a.69.69 0 00-.238-.923l-5.073-3.041a.638.638 0 00-.889.247l-.976 1.756.238.923-.325.586-.89.247-1.952 3.512.238.923-.325.585-.89.248-.975 1.756a.69.69 0 00.238.923l5.073 3.041a.638.638 0 00.889-.247l.976-1.756-.238-.923.325-.585.89-.248 1.952-3.512-.238-.923.325-.585.889-.248z"/><path d="M23.59 19.244l.563.338c3.382 2.027 10.384 7.006 12.075 8.02.934.56 2.128.227 2.667-.743.54-.97.22-2.21-.714-2.77-1.691-1.013-9.344-4.821-12.726-6.849l-.563-.337m-3.296-3.537l3.382 2.028m-5.986 2.655l3.382 2.027M10.953 30.625H8.425c-.93 0-1.685.784-1.685 1.75v1.75h16.01v-1.75c0-.966-.755-1.75-1.686-1.75h-7.583m-5.055 0v-1.75c0-.966.754-1.75 1.685-1.75h9.268c.931 0 1.686.784 1.686 1.75v1.75M14.448 14.51a8.987 8.987 0 00-.967-.51l-2.528 3.5-1.685-2.625L7.583 17.5 5.055 14C2.77 15.032.84 17.067.842 19.25v5.25m8.426-13.125c-2.533 0-4.213-1.813-4.213-4.05v-2.4c0-2.237 1.68-4.05 4.213-4.05 2.532 0 4.213 1.813 4.213 4.05v2.4c0 2.237-1.68 4.05-4.213 4.05z"/></symbol><symbol viewBox="0 0 18 18" id="phone" xmlns="http://www.w3.org/2000/svg"><path d="M3.167 2.333H6.5L8.167 6.5 6.083 7.75a9.167 9.167 0 004.167 4.167l1.25-2.084 4.167 1.667v3.333A1.666 1.666 0 0114 16.5 13.333 13.333 0 011.5 4a1.667 1.667 0 011.667-1.667m8.333 2.5A1.667 1.667 0 0113.167 6.5m-1.667-5a5 5 0 015 5"/></symbol><symbol viewBox="0 0 15 18" id="play" xmlns="http://www.w3.org/2000/svg"><path d="M1 1v16l13-8L1 1z"/></symbol><symbol viewBox="0 0 8 14" id="prev" xmlns="http://www.w3.org/2000/svg"><path d="M7 1L1 7l6 6"/></symbol><symbol viewBox="0 0 30 36" id="protecting" xmlns="http://www.w3.org/2000/svg"><path d="M15.008.75C13.623 2.718 4.378 6.752.75 6.752v14.254c0 6.7 13.458 14.032 14.25 14.244.792-.212 14.25-8.055 14.25-13.494V6.752c-3.958 0-12.857-4.034-14.242-6.002zM15 31.509c.625-.166 11.25-6.247 11.25-10.503"/><path d="M15 4.501c-1.094 1.54-8.385 4.501-11.25 4.501v11.254M21 12.003l-7.5 7.502-3-3-2.25 2.25 5.25 5.252 9.75-9.753-2.25-2.25z"/></symbol><symbol viewBox="0 0 10 16" id="question" xmlns="http://www.w3.org/2000/svg"><path d="M1 4c0-.796.369-1.559 1.025-2.121C2.682 1.316 3.572 1 4.5 1h1c.928 0 1.819.316 2.475.879C8.63 2.44 9 3.204 9 4a3 3 0 01-2 3c-.613.288-1.14.833-1.501 1.555A5.04 5.04 0 005 11M5 15v.01"/></symbol><symbol viewBox="0 0 38 38" id="record" xmlns="http://www.w3.org/2000/svg"><path d="M12.129 8.894c1.884 0 3.234-1.32 3.234-3.234V4.043c0-1.914-1.35-3.235-3.234-3.235-1.885 0-3.234 1.321-3.234 3.235V5.66c0 1.913 1.35 3.234 3.234 3.234zm-4.043 8.085v7.276m0 7.277V38m1.616-13.745H.81v7.277h8.893v-7.277z"/><path d="M19.405 20.213V16.17c0-2.67-3.234-4.85-7.277-4.85-4.042 0-7.276 2.18-7.276 4.85v8.085m12.133-.825l-3.24 6.485m4.035-6.488l3.241 6.488m-8.086 0v.346c0 2.488 1.991 4.505 4.447 4.505s4.447-2.017 4.447-4.505v-.346h-8.894zm2.428-7.681c.085.447 1.4 1.213 2.488 1.213 3.732 0 3.483-2.426 7.215-2.426m8.077 2.409l3.24 6.485m-4.033-6.488l-3.243 6.488m8.086 0v.288c0 2.074-1.991 3.754-4.447 3.754s-4.447-1.68-4.447-3.754v-.288h8.894z"/><path d="M34.767 22.234c-.085.447-1.4 1.213-2.488 1.213-3.732 0-3.483-2.426-7.215-2.426m0-1.617v16.979m0 0c-.808.808-4.043.808-4.043.808m4.043-.808c.809.808 4.043.808 4.043.808M16.17 16.979v3.234"/></symbol><symbol viewBox="0 0 37 32" id="recovered" xmlns="http://www.w3.org/2000/svg"><path d="M25.438 8.585c5.96 0 10.791-1.747 10.791-3.902 0-2.155-4.831-3.902-10.791-3.902S14.646 2.528 14.646 4.683c0 2.155 4.831 3.902 10.791 3.902z"/><path d="M36.23 4.683v3.902c0 2.155-4.832 3.903-10.793 3.903a28.8 28.8 0 01-3.433-.201"/><path d="M35.329 10.146c.579.479.9 1.007.9 1.563v.78c0 2.155-4.831 3.903-10.791 3.903-.49 0-.973-.012-1.447-.035"/><path d="M35.329 14.049c.579.478.9 1.007.9 1.562v.78c0 2.156-4.831 3.903-10.791 3.903-.282 0-.56-.004-.835-.011"/><path d="M35.329 17.951c.579.479.9 1.007.9 1.563v.78c0 2.155-4.831 3.903-10.791 3.903-.447 0-.886-.01-1.318-.03"/><path d="M35.329 21.854c.579.478.9 1.006.9 1.562v.78c0 2.156-4.831 3.903-10.791 3.903-1.147 0-2.253-.065-3.29-.185M11.563 31.22c5.96 0 10.791-4.893 10.791-10.927 0-6.035-4.831-10.927-10.791-10.927S.77 14.258.77 20.293c0 6.034 4.831 10.927 10.791 10.927z"/><path d="M9.25 22.634v.78c0 .863.69 1.562 1.542 1.562h1.541c.852 0 1.542-.699 1.542-1.561v-1.217c0-.672-.425-1.268-1.055-1.48l-2.516-.85a1.56 1.56 0 01-1.054-1.48v-.437c0-.862.69-1.56 1.542-1.56h1.541a1.55 1.55 0 011.542 1.56v.78m-2.312-2.341v-2.34m0 10.926v2.341m3.083-22.634v2.341"/></symbol><symbol viewBox="0 0 18 18" id="shield-lock" xmlns="http://www.w3.org/2000/svg"><path d="M9 1.5A10 10 0 0016.083 4 10 10 0 019 16.5 10 10 0 011.917 4 10 10 0 009 1.5"/><path d="M9 9a.833.833 0 100-1.667A.833.833 0 009 9zm0 0v2.083"/></symbol><symbol viewBox="0 0 18 18" id="telemarketer" xmlns="http://www.w3.org/2000/svg"><path d="M10.26 17.29H8.036a.75.75 0 01-.74-.754v-.376a.75.75 0 01.74-.754h2.222a.75.75 0 01.741.754v.376a.75.75 0 01-.74.754zm4.814-10.174V5.948c0-2.901-2.666-5.238-5.926-5.238-3.259 0-5.926 2.337-5.926 5.238v1.168M11 16.273c2-.566 3.519-2.035 3.963-3.882"/><path d="M16.889 7.455l-.852-.527c-.333-.226-.778-.151-1.074.15a.917.917 0 00-.26.641v4.07a.89.89 0 00.26.64c.296.302.74.34 1.074.15l.852-.527c.26-.15.407-.452.407-.753V8.284c0-.377-.148-.64-.407-.829zm-15.111 0l.852-.527c.333-.226.778-.151 1.074.15a.89.89 0 01.26.641v4.07c0 .226-.075.452-.26.603a.892.892 0 01-1.074.15l-.852-.527c-.26-.151-.408-.453-.408-.754V8.247a.94.94 0 01.408-.792z"/></symbol><symbol viewBox="0 0 36 32" id="trusted" xmlns="http://www.w3.org/2000/svg"><path d="M33.54 6.67C29.861 3.017 24.251.741 18.616.741c-7.72 0-14.43 4.248-17.864 10.5"/><path d="M2.88 12.987a16.794 16.794 0 0112.54-5.575c4.283 0 8.19 1.588 11.149 4.197m-4.187 12.178l12.866-11.489-.91-1.18-14.684 9.127m-5.058 9.368l-1.797 1.344a1.519 1.519 0 01-2.107-.284l-.91-1.18a1.468 1.468 0 01.289-2.077l1.796-1.345m5.129 2.223c2.077 0 3.76-1.659 3.76-3.705 0-2.047-1.683-3.706-3.76-3.706s-3.76 1.659-3.76 3.706c0 2.046 1.683 3.705 3.76 3.705z"/></symbol><symbol viewBox="0 0 18 16" id="twitter" xmlns="http://www.w3.org/2000/svg"><path d="M17.333 1.342c-.833.408-1.65.574-2.5.825-.934-1.054-2.319-1.113-3.65-.614C9.853 2.05 8.981 3.269 9 4.667V5.5c-2.704.07-5.112-1.162-6.667-3.333 0 0-3.485 6.194 3.334 9.166-1.56 1.04-3.116 1.74-5 1.667 2.756 1.502 5.76 2.02 8.361 1.264 2.984-.866 5.435-3.102 6.376-6.451.28-1.02.42-2.071.414-3.128-.001-.207 1.259-2.31 1.515-3.344z"/></symbol><symbol viewBox="0 0 32 32" id="verdicts" xmlns="http://www.w3.org/2000/svg"><path d="M5.427 15.782h10.331m-10.331 4.34h7.698m-7.698 4.354h7.12M7.577 3.633v4.054H3.56"/><path d="M23.389 12.585V.68H6.542L.672 6.626V31.32h15.234"/><path d="M18.445 17.02a8.11 8.11 0 012.794-1.469c4.205-1.21 8.585 1.252 9.794 5.51 1.195 4.259-1.236 8.694-5.44 9.919-4.206 1.21-8.585-1.252-9.794-5.51a8.044 8.044 0 01.618-5.96"/><path d="M19.21 22.776l2.835 3.972 5.226-6.326"/></symbol></svg>