<?xml version="1.0" encoding="utf-8"?><svg xmlns="http://www.w3.org/2000/svg" xmlns:xlink="http://www.w3.org/1999/xlink"><symbol viewBox="0 0 10 6" id="arrow-down" xmlns="http://www.w3.org/2000/svg"><path d="M1 1l4 4 4-4"/></symbol><symbol viewBox="0 0 17 14" id="bankruptcy" xmlns="http://www.w3.org/2000/svg"><path d="M9.965 7.393l2.978 5.118M.6 1.196l3.685 2.867L6.68 1.66l1.81 3.143"/><path d="M.6 5.05l4.976 4.04 6.508-5.365 3.684 3.7"/><path d="M16.044 5.08v2.652h-2.64m.491 2.62l-.768 2.56-2.548-.772"/></symbol><symbol viewBox="0 0 18 18" id="checkerrow" xmlns="http://www.w3.org/2000/svg"><path d="M12.528 3.273a6.574 6.574 0 010 9.281 6.539 6.539 0 01-9.26 0 6.586 6.586 0 010-9.281 6.551 6.551 0 019.26 0zM5.667 5.667l4.666 4.666m-4.666 0l4.666-4.666"/><path d="M13.136 11.846l3.285 3.292c.325.326.304.878-.05 1.225-.353.354-.904.375-1.222.05l-2.352-2.351"/></symbol><symbol viewBox="0 0 22 15" id="class" xmlns="http://www.w3.org/2000/svg"><path d="M15.583 15V9.552c0-1.466-3-2.514-4.583-2.514-1.583 0-4.583 1.048-4.583 2.514V15M11 5.78c1.208 0 2.083-.921 2.083-2.094v-.838c0-1.174-.875-2.096-2.083-2.096-1.208 0-2.083.922-2.083 2.096v.838c0 1.173.875 2.095 2.083 2.095zm5 2.096h.417c1.458 0 4.166 1.132 4.166 2.514v3.524m-3.75-7.295c1.209 0 2.084-.922 2.084-2.095v-.838c0-1.174-.875-2.096-2.084-2.096-1.208 0-2.083.922-2.083 2.096v.838c0 1.173.875 2.095 2.083 2.095zM1.417 13.914V10.39c0-1.382 2.708-2.514 4.166-2.514H6m-.833-1.257c-1.209 0-2.084-.922-2.084-2.095v-.838c0-1.174.875-2.096 2.084-2.096 1.208 0 2.083.922 2.083 2.096v.838c0 1.173-.875 2.095-2.083 2.095z"/></symbol><symbol viewBox="0 0 18 18" id="consumer" xmlns="http://www.w3.org/2000/svg"><path d="M7.326 14.177H1.963m8.91-5.974l5.996 5.36c.578.502.605 1.368.055 1.898l-.22.224a1.276 1.276 0 01-1.87-.056L9.526 9.543m-1.15-6.087L4.758 7.128l2.645 2.684 3.617-3.671-2.644-2.685zm.022.001l.165-1.089.99-1.033 3.493 3.574-.99 1.005-1.072.167M1.33 17.667V15.88h6.6v1.787M4.768 7.142l-1.073.167-1.017 1.033 3.493 3.546 1.017-1.033.165-1.089"/></symbol><symbol viewBox="0 0 20 14" id="credit" xmlns="http://www.w3.org/2000/svg"><path d="M3.198 12.926c-.998 0-1.813-.935-1.813-2.043V3.088c0-1.108.815-2.014 1.813-2.014h13.604c.998 0 1.813.906 1.813 2.014v7.785c0 1.108-.815 2.043-1.813 2.043H3.198v.01zM3.644 10.493h8.413M3.644 8.466h5.558"/><path d="M15.626 4.922c0 .979-.756 1.78-1.696 1.78s-1.696-.793-1.696-1.78c0-.978.755-1.78 1.696-1.78.94 0 1.696.802 1.696 1.78z"/></symbol><symbol viewBox="0 0 20 19" id="debt" xmlns="http://www.w3.org/2000/svg"><path d="M13.982 18.009l-4.694-1.97a.897.897 0 01-.475-1.17l.052-.123a.898.898 0 011.17-.474l2.133.89-.812-1.969-1.671-4.068a.899.899 0 01.487-1.17l.072-.025a.89.89 0 011.164.487l1.274 3.106 3.387-.78s1.119-.214 1.678 1.138l1.255 3.912M5.16 7.715c0 .741.643 1.339 1.443 1.339.793 0 1.443-.598 1.443-1.339 0-.74-.767-1.065-1.443-1.403-.683-.345-1.45-.67-1.45-1.41 0-.741.644-1.34 1.437-1.34s1.443.599 1.443 1.34M6.59 3.556V2.64m0 7.337V9.06"/><path d="M9.106 11.322a5.625 5.625 0 01-7.893-3.496 5.632 5.632 0 01.533-4.354m1.222-1.469a5.625 5.625 0 019.2 5.199"/></symbol><symbol viewBox="0 0 18 21" id="disabilities" xmlns="http://www.w3.org/2000/svg"><path d="M9.772 12.267h2.72c.613 0 1.183.3 1.49.816l3.246 5.199"/><path d="M15.035 18.711l-2.368-3.867c-.176-.257-.439-.43-.746-.43h-3.29c-1.227 0-1.666-.6-1.93-1.718-.262-1.117-.833-4.21-.964-4.94C5.56 6.81 6 6.252 6.877 6.252h.439c1.272 0 1.316.86 1.623 2.105l.57 2.191h3.509M9.333 3.03c0 1.074-.92 1.933-1.973 1.933-1.097 0-1.974-.902-1.974-1.933 0-1.074.921-1.934 1.974-1.934 1.096 0 1.973.903 1.973 1.934z"/><path d="M12.184 16.563A5.683 5.683 0 017.14 19.57c-3.158 0-5.701-2.492-5.701-5.585a5.492 5.492 0 013.07-4.94"/></symbol><symbol viewBox="0 0 20 14" id="identity" xmlns="http://www.w3.org/2000/svg"><path d="M3.198 12.926c-.998 0-1.813-.935-1.813-2.043V3.088c0-1.108.815-2.014 1.813-2.014h13.604c.998 0 1.813.906 1.813 2.014v7.785c0 1.108-.815 2.043-1.813 2.043H3.198v.01z"/><path d="M6.42 10.5h3.145V9.083C9.408 8.916 7.875 8 6.42 8c-1.454 0-2.987.916-3.145 1.083V10.5H6.42zm0-7.334c-.928 0-1.637.717-1.637 1.536v.512c0 .87.71 1.536 1.637 1.536.928 0 1.638-.717 1.638-1.536v-.512c0-.819-.764-1.536-1.638-1.536zm4.652 1.75h5.653m-5.653 1.667h5.653M11.072 8.25h3.044"/></symbol><symbol viewBox="0 0 18 18" id="injury" xmlns="http://www.w3.org/2000/svg"><path d="M11.325 15.975l-9.3-9.3c-.842-.842-.842-2.233 0-3.112l1.538-1.538c.842-.842 2.233-.842 3.112 0l9.336 9.336c.843.843.843 2.234 0 3.113l-1.537 1.537a2.243 2.243 0 01-3.15-.036zm-3.112-1.538l-1.538 1.538c-.842.842-2.233.842-3.112 0l-1.538-1.538c-.842-.842-.842-2.233 0-3.112l1.538-1.538m6.224-6.224l1.538-1.538c.842-.842 2.233-.842 3.112 0l1.538 1.538c.842.842.842 2.233 0 3.112l-1.538 1.538M8.213 5.1L5.1 8.214m7.8 1.573L9.786 12.9M7.7 7.7l-.256.256m1.538 1.026l-.257.292m.55-2.086l-.293.256m1.83 1.281l-.256.257m-3.368.293l-.257.256m1.794 1.281l-.256.257M10.3 10.3l-.257.256"/></symbol><symbol viewBox="0 0 8 14" id="next" xmlns="http://www.w3.org/2000/svg"><path d="M1 1l6 6-6 6"/></symbol><symbol viewBox="0 0 18 18" id="phone" xmlns="http://www.w3.org/2000/svg"><path d="M3.167 2.333H6.5L8.167 6.5 6.083 7.75a9.167 9.167 0 004.167 4.167l1.25-2.084 4.167 1.667v3.333A1.666 1.666 0 0114 16.5 13.333 13.333 0 011.5 4a1.667 1.667 0 011.667-1.667m8.333 2.5A1.667 1.667 0 0113.167 6.5m-1.667-5a5 5 0 015 5"/></symbol><symbol viewBox="0 0 15 18" id="play" xmlns="http://www.w3.org/2000/svg"><path d="M1 1v16l13-8L1 1z"/></symbol><symbol viewBox="0 0 8 14" id="prev" xmlns="http://www.w3.org/2000/svg"><path d="M7 1L1 7l6 6"/></symbol><symbol viewBox="0 0 30 36" id="protecting" xmlns="http://www.w3.org/2000/svg"><path d="M15.008.75C13.623 2.718 4.378 6.752.75 6.752v14.254c0 6.7 13.458 14.032 14.25 14.244.792-.212 14.25-8.055 14.25-13.494V6.752c-3.958 0-12.857-4.034-14.242-6.002zM15 31.509c.625-.166 11.25-6.247 11.25-10.503"/><path d="M15 4.501c-1.094 1.54-8.385 4.501-11.25 4.501v11.254M21 12.003l-7.5 7.502-3-3-2.25 2.25 5.25 5.252 9.75-9.753-2.25-2.25z"/></symbol><symbol viewBox="0 0 37 32" id="recovered" xmlns="http://www.w3.org/2000/svg"><path d="M25.438 8.585c5.96 0 10.791-1.747 10.791-3.902 0-2.155-4.831-3.902-10.791-3.902S14.646 2.528 14.646 4.683c0 2.155 4.831 3.902 10.791 3.902z"/><path d="M36.23 4.683v3.902c0 2.155-4.832 3.903-10.793 3.903a28.8 28.8 0 01-3.433-.201"/><path d="M35.329 10.146c.579.479.9 1.007.9 1.563v.78c0 2.155-4.831 3.903-10.791 3.903-.49 0-.973-.012-1.447-.035"/><path d="M35.329 14.049c.579.478.9 1.007.9 1.562v.78c0 2.156-4.831 3.903-10.791 3.903-.282 0-.56-.004-.835-.011"/><path d="M35.329 17.951c.579.479.9 1.007.9 1.563v.78c0 2.155-4.831 3.903-10.791 3.903-.447 0-.886-.01-1.318-.03"/><path d="M35.329 21.854c.579.478.9 1.006.9 1.562v.78c0 2.156-4.831 3.903-10.791 3.903-1.147 0-2.253-.065-3.29-.185M11.563 31.22c5.96 0 10.791-4.893 10.791-10.927 0-6.035-4.831-10.927-10.791-10.927S.77 14.258.77 20.293c0 6.034 4.831 10.927 10.791 10.927z"/><path d="M9.25 22.634v.78c0 .863.69 1.562 1.542 1.562h1.541c.852 0 1.542-.699 1.542-1.561v-1.217c0-.672-.425-1.268-1.055-1.48l-2.516-.85a1.56 1.56 0 01-1.054-1.48v-.437c0-.862.69-1.56 1.542-1.56h1.541a1.55 1.55 0 011.542 1.56v.78m-2.312-2.341v-2.34m0 10.926v2.341m3.083-22.634v2.341"/></symbol><symbol viewBox="0 0 18 18" id="telemarketer" xmlns="http://www.w3.org/2000/svg"><path d="M10.26 17.29H8.036a.75.75 0 01-.74-.754v-.376a.75.75 0 01.74-.754h2.222a.75.75 0 01.741.754v.376a.75.75 0 01-.74.754zm4.814-10.174V5.948c0-2.901-2.666-5.238-5.926-5.238-3.259 0-5.926 2.337-5.926 5.238v1.168M11 16.273c2-.566 3.519-2.035 3.963-3.882"/><path d="M16.889 7.455l-.852-.527c-.333-.226-.778-.151-1.074.15a.917.917 0 00-.26.641v4.07a.89.89 0 00.26.64c.296.302.74.34 1.074.15l.852-.527c.26-.15.407-.452.407-.753V8.284c0-.377-.148-.64-.407-.829zm-15.111 0l.852-.527c.333-.226.778-.151 1.074.15a.89.89 0 01.26.641v4.07c0 .226-.075.452-.26.603a.892.892 0 01-1.074.15l-.852-.527c-.26-.151-.408-.453-.408-.754V8.247a.94.94 0 01.408-.792z"/></symbol><symbol viewBox="0 0 36 32" id="trusted" xmlns="http://www.w3.org/2000/svg"><path d="M33.54 6.67C29.861 3.017 24.251.741 18.616.741c-7.72 0-14.43 4.248-17.864 10.5"/><path d="M2.88 12.987a16.794 16.794 0 0112.54-5.575c4.283 0 8.19 1.588 11.149 4.197m-4.187 12.178l12.866-11.489-.91-1.18-14.684 9.127m-5.058 9.368l-1.797 1.344a1.519 1.519 0 01-2.107-.284l-.91-1.18a1.468 1.468 0 01.289-2.077l1.796-1.345m5.129 2.223c2.077 0 3.76-1.659 3.76-3.705 0-2.047-1.683-3.706-3.76-3.706s-3.76 1.659-3.76 3.706c0 2.046 1.683 3.705 3.76 3.705z"/></symbol><symbol viewBox="0 0 32 32" id="verdicts" xmlns="http://www.w3.org/2000/svg"><path d="M5.427 15.782h10.331m-10.331 4.34h7.698m-7.698 4.354h7.12M7.577 3.633v4.054H3.56"/><path d="M23.389 12.585V.68H6.542L.672 6.626V31.32h15.234"/><path d="M18.445 17.02a8.11 8.11 0 012.794-1.469c4.205-1.21 8.585 1.252 9.794 5.51 1.195 4.259-1.236 8.694-5.44 9.919-4.206 1.21-8.585-1.252-9.794-5.51a8.044 8.044 0 01.618-5.96"/><path d="M19.21 22.776l2.835 3.972 5.226-6.326"/></symbol></svg>