<svg width="250" height="122" fill="none" xmlns="http://www.w3.org/2000/svg"><path fill-rule="evenodd" clip-rule="evenodd" d="M127.494 84.577c-21.562 0-39.045-17.65-39.045-39.421 0-21.77 17.479-39.422 39.045-39.422 21.566 0 39.045 17.651 39.045 39.422 0 21.77-17.479 39.421-39.045 39.421zm-.425-58.588c-10.485 0-18.985 8.582-18.985 19.167 0 10.584 8.5 19.166 18.985 19.166s18.984-8.582 18.984-19.166c-.004-10.588-8.503-19.167-18.984-19.167z" fill="#44B64B"/><path d="M168.255 122a9.641 9.641 0 01-5.241-1.546c-10.592-6.809-22.875-10.409-35.52-10.409-12.479 0-24.625 3.51-35.125 10.157-4.549 2.879-10.562 1.508-13.429-3.061-2.866-4.57-1.501-10.611 3.048-13.49 13.61-8.616 29.347-13.17 45.506-13.17 16.373 0 32.284 4.666 46.016 13.497 4.531 2.912 5.851 8.961 2.952 13.508a9.713 9.713 0 01-8.207 4.514z" fill="#44B64B"/><path d="M.207 78.66c0-1.283.345-2.565 1.036-3.848L36.319 5.844c1.579-3.355 4.292-5.032 8.14-5.032 1.973 0 4.045.74 6.216 2.22 2.27 1.381 3.404 3.108 3.404 5.18 0 .69-.247 1.53-.74 2.516L24.923 67.56h17.316V52.02c0-1.973.937-3.453 2.812-4.44 1.875-1.085 4.144-1.628 6.808-1.628 2.664 0 4.933.543 6.808 1.628 1.875.987 2.812 2.467 2.812 4.44v15.54h6.956c1.875 0 3.355.888 4.44 2.664 1.085 1.776 1.628 3.897 1.628 6.364 0 2.27-.641 4.341-1.924 6.216-1.184 1.776-2.565 2.664-4.144 2.664h-6.956v17.464c0 1.875-.937 3.355-2.812 4.44-1.875 1.085-4.144 1.628-6.808 1.628-2.565 0-4.835-.543-6.808-1.628-1.875-1.085-2.812-2.565-2.812-4.44V85.468H6.719c-1.875 0-3.453-.592-4.736-1.776C.799 82.409.207 80.732.207 78.66zm175 0c0-1.283.345-2.565 1.036-3.848l35.076-68.968c1.579-3.355 4.292-5.032 8.14-5.032 1.973 0 4.045.74 6.216 2.22 2.269 1.381 3.404 3.108 3.404 5.18 0 .69-.247 1.53-.74 2.516L199.923 67.56h17.316V52.02c0-1.973.937-3.453 2.812-4.44 1.875-1.085 4.144-1.628 6.808-1.628 2.664 0 4.933.543 6.808 1.628 1.875.987 2.812 2.467 2.812 4.44v15.54h6.956c1.875 0 3.355.888 4.44 2.664 1.085 1.776 1.628 3.897 1.628 6.364 0 2.27-.641 4.341-1.924 6.216-1.184 1.776-2.565 2.664-4.144 2.664h-6.956v17.464c0 1.875-.937 3.355-2.812 4.44-1.875 1.085-4.144 1.628-6.808 1.628-2.565 0-4.835-.543-6.808-1.628-1.875-1.085-2.812-2.565-2.812-4.44V85.468h-35.52c-1.875 0-3.453-.592-4.736-1.776-1.184-1.283-1.776-2.96-1.776-5.032z" fill="#fff"/></svg>