<svg width="300" height="151" fill="none" xmlns="http://www.w3.org/2000/svg"><g opacity=".1"><path d="M3.013 13l.209.454h.002l.006-.003.02-.01a10.313 10.313 0 00.362-.179c.245-.125.595-.312 1.02-.559.85-.493 2.005-1.23 3.229-2.206h0c1.945-1.552 2.859-3.26 3.282-4.595.211-.666.3-1.235.335-1.643a5.516 5.516 0 00.018-.655v-11.25l-.275-.139C8.935-8.936 5.955-9.5 3.002-9.5c-2.953 0-5.935.563-8.223 1.717l-.275.139V3.617a2.241 2.241 0 00-.004.172c0 .116.004.28.022.484.036.408.124.978.335 1.644.425 1.337 1.34 3.047 3.285 4.6h0a25.518 25.518 0 003.251 2.205 20.735 20.735 0 001.312.687l.077.035.021.01.006.002.002.001h0L3.014 13zm0 0l.209.454-.205.094-.205-.09.201-.458z" stroke="#CDCDD8"/><mask id="path-2-outside-1" maskUnits="userSpaceOnUse" x="-3" y="-7" width="12" height="18" fill="#000"><path fill="#fff" d="M-3-7H9v18H-3z"/><path fill-rule="evenodd" clip-rule="evenodd" d="M5.843 7.027C4.343 8.332 3.008 9 3.008 9S1.671 8.357.158 7.04c-2.324-2.024-2.155-4.427-2.155-4.427v-7.479c2.75-1.513 7.248-1.51 9.994 0v7.47s.17 2.4-2.154 4.423z"/></mask><path d="M5.843 7.027l.657.754-.657-.754zM3.008 9l-.433.901.442.213.439-.22L3.008 9zM.158 7.04l-.656.755.657-.754zm-2.155-4.427l.997.07.003-.035v-.035h-1zm0-7.479l-.482-.876-.518.285v.591h1zm9.994 0h1v-.592l-.518-.285-.482.876zm0 7.47h-1v.036L7 2.675l.997-.07zm-2.81 3.668a15.509 15.509 0 01-1.86 1.386 12.284 12.284 0 01-.767.448L3.009 9l.448.894h.001l.002-.001.005-.003a3.13 3.13 0 00.071-.037 14.28 14.28 0 00.863-.505A17.509 17.509 0 006.5 7.78L5.187 6.272zM3.008 9l.434-.901h.001a.911.911 0 01-.04-.02 11.386 11.386 0 01-.724-.414A14.63 14.63 0 01.814 6.286L-.498 7.795c.804.7 1.562 1.221 2.12 1.568a13.37 13.37 0 00.944.534l.006.003h.002v.001L3.009 9zM.815 6.286C-.18 5.42-.628 4.487-.83 3.788a4.282 4.282 0 01-.16-.847 2.757 2.757 0 01-.008-.263v-.004a.338.338 0 010 .006v.002l-.998-.069-.998-.069v.009a1.53 1.53 0 00-.003.05L-3 2.72c0 .095.003.223.016.38.025.315.087.747.233 1.248.293 1.009.925 2.291 2.253 3.448l1.313-1.51zm-2.812-3.673h1v-7.478h-2v7.478h1zm.482-6.603C-.325-4.644 1.31-5 3-5c1.692 0 3.326.356 4.514 1.01l.964-1.753C6.921-6.6 4.933-7 3.001-7s-3.92.4-5.48 1.258l.964 1.752zm8.512-.877v7.471h2v-7.471h-2zm1 7.471L7 2.674V2.67a1.107 1.107 0 010-.005v.047c0 .045-.001.12-.01.219a4.27 4.27 0 01-.159.846c-.202.697-.648 1.627-1.644 2.494L6.5 7.782c1.328-1.157 1.959-2.438 2.252-3.446.146-.5.207-.932.232-1.246a4.743 4.743 0 00.011-.547v-.008l-.998.07z" fill="#CDCDD8" mask="url(#path-2-outside-1)"/><path d="M35.013 13l.209.454h.002l.006-.003.02-.01a10.368 10.368 0 00.362-.179c.245-.125.595-.312 1.02-.559.85-.493 2.005-1.23 3.229-2.206h0c1.945-1.552 2.859-3.26 3.282-4.595.211-.666.3-1.235.335-1.643a5.516 5.516 0 00.018-.655v-11.25l-.275-.139C40.936-8.936 37.955-9.5 35.002-9.5c-2.953 0-5.935.563-8.223 1.717l-.275.139V3.617l-.001.036a5.541 5.541 0 00.02.62c.035.408.123.978.335 1.644.424 1.337 1.338 3.047 3.284 4.6h0a25.515 25.515 0 003.251 2.205 20.736 20.736 0 001.312.687l.077.035.021.01.006.002.002.001h0l.202-.457zm0 0l.209.454-.205.094-.205-.09.201-.458z" stroke="#CDCDD8"/><mask id="path-5-outside-2" maskUnits="userSpaceOnUse" x="29" y="-7" width="12" height="18" fill="#000"><path fill="#fff" d="M29-7h12v18H29z"/><path fill-rule="evenodd" clip-rule="evenodd" d="M37.843 7.027C36.343 8.332 35.008 9 35.008 9s-1.337-.643-2.85-1.96c-2.324-2.024-2.155-4.427-2.155-4.427v-7.479c2.75-1.513 7.248-1.51 9.994 0v7.47s.17 2.4-2.154 4.423z"/></mask><path d="M37.843 7.027l.656.754-.656-.754zM35.008 9l-.433.901.442.213.439-.22L35.008 9zm-2.85-1.96l-.656.755.657-.754zm-2.155-4.427l.997.07.003-.035v-.035h-1zm0-7.479l-.482-.876-.518.285v.591h1zm9.994 0h1v-.592l-.518-.285-.482.876zm0 7.47h-1v.036l.003.035.997-.07zm-2.81 3.668a15.51 15.51 0 01-1.86 1.386 12.306 12.306 0 01-.76.445l-.007.003.448.894a313.505 313.505 0 00.448.894h.001l.002-.001.005-.003.017-.008a5.972 5.972 0 00.247-.134c.163-.09.393-.224.67-.4A17.503 17.503 0 0038.5 7.78l-1.312-1.509zM35.008 9l.434-.901h.001l-.007-.003a11.422 11.422 0 01-.758-.432 14.63 14.63 0 01-1.863-1.378l-1.313 1.509c.804.7 1.562 1.221 2.12 1.568a13.35 13.35 0 00.928.526l.016.008.006.003a.058.058 0 00.002.001L35.009 9zm-2.193-2.714c-.996-.867-1.443-1.799-1.646-2.498a4.28 4.28 0 01-.16-.847c-.008-.1-.01-.175-.009-.22v-.047.008l-.997-.069-.998-.069v.009l-.001.013-.002.038-.002.115c0 .095.003.223.016.38.025.315.087.747.233 1.248.293 1.009.925 2.291 2.253 3.448l1.313-1.509zm-2.812-3.673h1v-7.478h-2v7.478h1zm.482-6.603C31.675-4.644 33.31-5 35-5c1.692 0 3.326.356 4.514 1.01l.964-1.753C38.921-6.6 36.933-7 35.001-7c-1.931 0-3.92.4-5.48 1.258l.964 1.752zm8.512-.877v7.471h2v-7.471h-2zm1 7.471l-.997.07v-.007.047a4.164 4.164 0 01-.169 1.065c-.202.697-.648 1.627-1.644 2.494l1.313 1.51c1.328-1.157 1.959-2.438 2.252-3.446.146-.5.207-.932.232-1.246a4.756 4.756 0 00.012-.533v-.014l-.001-.005v-.003l-.998.07z" fill="#CDCDD8" mask="url(#path-5-outside-2)"/><path d="M67.013 13l.209.454h.003l.005-.003.02-.01a10.368 10.368 0 00.362-.179c.245-.125.595-.312 1.02-.559.85-.493 2.005-1.23 3.229-2.206h0c1.944-1.552 2.859-3.26 3.282-4.595.211-.666.3-1.235.335-1.643a5.516 5.516 0 00.018-.655v-11.25l-.275-.139C72.936-8.936 69.955-9.5 67.002-9.5c-2.953 0-5.935.563-8.223 1.717l-.275.139V3.617l-.001.036a5.541 5.541 0 00.02.62c.035.408.123.978.334 1.644.425 1.337 1.34 3.047 3.285 4.6h0a25.515 25.515 0 003.251 2.205 20.736 20.736 0 001.312.687l.077.035.021.01.006.002.002.001h0l.202-.457zm0 0l.209.454-.204.094-.206-.09.201-.458z" stroke="#CDCDD8"/><mask id="path-8-outside-3" maskUnits="userSpaceOnUse" x="61" y="-7" width="12" height="18" fill="#000"><path fill="#fff" d="M61-7h12v18H61z"/><path fill-rule="evenodd" clip-rule="evenodd" d="M69.843 7.027C68.343 8.332 67.008 9 67.008 9s-1.337-.643-2.85-1.96c-2.324-2.024-2.155-4.427-2.155-4.427v-7.479c2.75-1.513 7.248-1.51 9.994 0v7.47s.17 2.4-2.154 4.423z"/></mask><path d="M69.843 7.027l.656.754-.656-.754zM67.008 9l-.433.901.442.213.439-.22L67.008 9zm-2.85-1.96l-.656.755.657-.754zm-2.155-4.427l.997.07.003-.035v-.035h-1zm0-7.479l-.482-.876-.518.285v.591h1zm9.994 0h1v-.592l-.518-.285-.482.876zm0 7.47h-1v.036l.003.035.997-.07zm-2.81 3.668a15.51 15.51 0 01-1.86 1.386 12.306 12.306 0 01-.76.445l-.007.003.448.894a313.505 313.505 0 00.449.894l.002-.001.005-.003.017-.008a5.972 5.972 0 00.247-.134c.163-.09.393-.224.67-.4A17.503 17.503 0 0070.5 7.78l-1.313-1.509zM67.008 9l.434-.901h.001l-.007-.003a11.422 11.422 0 01-.758-.432 14.63 14.63 0 01-1.863-1.378l-1.313 1.509c.804.7 1.562 1.221 2.12 1.568a13.35 13.35 0 00.927.526l.017.008.006.003a.058.058 0 00.002.001L67.009 9zm-2.193-2.714c-.996-.867-1.443-1.799-1.646-2.498a4.28 4.28 0 01-.16-.847c-.008-.1-.01-.175-.009-.22v-.047.008l-.997-.069-.998-.069v.009l-.001.013-.002.038-.002.115c0 .095.003.223.016.38.025.315.087.747.233 1.248.293 1.009.925 2.291 2.253 3.448l1.313-1.509zm-2.812-3.673h1v-7.478h-2v7.478h1zm.482-6.603C63.675-4.644 65.31-5 67-5c1.692 0 3.326.356 4.514 1.01l.964-1.753C70.921-6.6 68.933-7 67.001-7c-1.931 0-3.92.4-5.48 1.258l.964 1.752zm8.512-.877v7.471h2v-7.471h-2zm1 7.471l-.997.07v-.007.047a4.22 4.22 0 01-.168 1.065c-.203.697-.65 1.627-1.645 2.494l1.313 1.51c1.328-1.157 1.959-2.438 2.252-3.446.146-.5.207-.932.232-1.246a4.756 4.756 0 00.012-.533v-.014l-.001-.005v-.003l-.998.07z" fill="#CDCDD8" mask="url(#path-8-outside-3)"/><path d="M99.013 13l.209.454h.003l.005-.003.02-.01a10.368 10.368 0 00.362-.179c.245-.125.595-.312 1.02-.559a26.9 26.9 0 003.229-2.206h0c1.945-1.552 2.859-3.26 3.282-4.595.211-.666.3-1.235.335-1.643a5.484 5.484 0 00.019-.62l-.001-.035v-11.25l-.275-.139c-2.286-1.151-5.266-1.715-8.219-1.715-2.953 0-5.935.563-8.223 1.717l-.275.139V3.617l-.001.036a5.541 5.541 0 00.02.62c.035.408.123.978.335 1.644.424 1.337 1.338 3.047 3.284 4.6h0a25.515 25.515 0 003.251 2.205 20.736 20.736 0 001.312.687l.077.035.021.01.006.002.002.001h0l.202-.457zm0 0l.209.454-.204.094-.206-.09.201-.458z" stroke="#CDCDD8"/><mask id="path-11-outside-4" maskUnits="userSpaceOnUse" x="93" y="-7" width="12" height="18" fill="#000"><path fill="#fff" d="M93-7h12v18H93z"/><path fill-rule="evenodd" clip-rule="evenodd" d="M101.843 7.027C100.343 8.332 99.008 9 99.008 9s-1.337-.643-2.85-1.96c-2.324-2.024-2.155-4.427-2.155-4.427v-7.479c2.75-1.513 7.248-1.51 9.994 0v7.47s.17 2.4-2.154 4.423z"/></mask><path d="M101.843 7.027l.657.754-.657-.754zM99.008 9l-.433.901.442.213.439-.22L99.008 9zm-2.85-1.96l-.656.755.657-.754zm-2.155-4.427l.997.07.003-.035v-.035h-1zm0-7.479l-.482-.876-.518.285v.591h1zm9.994 0h1v-.592l-.518-.285-.482.876zm0 7.47h-1v.036l.003.035.997-.07zm-2.81 3.668a15.55 15.55 0 01-1.86 1.386 12.306 12.306 0 01-.76.445l-.007.003.448.894a313.505 313.505 0 00.449.894l.002-.001.005-.003.017-.008a5.972 5.972 0 00.247-.134c.163-.09.393-.224.67-.4A17.582 17.582 0 00102.5 7.78l-1.313-1.509zM99.008 9l.434-.901h.001l-.007-.003a11.422 11.422 0 01-.758-.432 14.63 14.63 0 01-1.863-1.378l-1.313 1.509c.804.7 1.562 1.221 2.12 1.568a13.35 13.35 0 00.927.526l.017.008.006.003a.058.058 0 00.002.001L99.009 9zm-2.193-2.714c-.996-.867-1.443-1.799-1.646-2.498a4.28 4.28 0 01-.16-.847c-.008-.1-.01-.175-.009-.22v-.047.008l-.997-.069-.998-.069v.009l-.001.013-.002.038-.002.115c0 .095.003.223.016.38.025.315.087.747.233 1.248.293 1.009.925 2.291 2.253 3.448l1.313-1.509zm-2.812-3.673h1v-7.478h-2v7.478h1zm.482-6.603C95.675-4.644 97.31-5 99-5c1.692 0 3.326.356 4.514 1.01l.964-1.753C102.921-6.6 100.933-7 99.001-7c-1.931 0-3.92.4-5.48 1.258l.964 1.752zm8.512-.877v7.471h2v-7.471h-2zm1 7.471l-.997.07-.001-.003v-.004.003a2.683 2.683 0 01-.008.262c-.016.2-.057.495-.16.847-.202.697-.648 1.627-1.644 2.494l1.313 1.51c1.328-1.157 1.959-2.438 2.252-3.446.146-.5.207-.932.232-1.246a4.596 4.596 0 00.014-.496l-.002-.037-.001-.014v-.008l-.998.07z" fill="#CDCDD8" mask="url(#path-11-outside-4)"/><path d="M131.013 13l.209.454h.002l.006-.003.021-.01.077-.037.284-.142c.245-.125.595-.312 1.02-.559a26.9 26.9 0 003.229-2.206h0c1.945-1.552 2.859-3.26 3.282-4.595.211-.666.3-1.235.335-1.643a5.484 5.484 0 00.019-.62l-.001-.035v-11.25l-.275-.139c-2.286-1.151-5.266-1.715-8.219-1.715-2.953 0-5.935.563-8.223 1.717l-.275.139V3.617l-.001.036a5.494 5.494 0 00.019.62c.036.408.124.978.335 1.644.425 1.337 1.339 3.047 3.285 4.6h0a25.494 25.494 0 003.251 2.205 20.38 20.38 0 001.389.722l.021.01.006.002.002.001h.001l.201-.457zm0 0l.209.454-.205.094-.205-.09.201-.458z" stroke="#CDCDD8"/><mask id="path-14-outside-5" maskUnits="userSpaceOnUse" x="125" y="-7" width="12" height="18" fill="#000"><path fill="#fff" d="M125-7h12v18h-12z"/><path fill-rule="evenodd" clip-rule="evenodd" d="M133.843 7.027C132.343 8.332 131.008 9 131.008 9s-1.337-.643-2.849-1.96c-2.325-2.024-2.156-4.427-2.156-4.427v-7.479c2.749-1.513 7.248-1.51 9.994 0v7.47s.17 2.4-2.154 4.423z"/></mask><path d="M133.843 7.027l.657.754-.657-.754zM131.008 9l-.433.901.442.213.439-.22-.448-.894zm-2.849-1.96l-.657.755.657-.754zm-2.156-4.427l.997.07.003-.035v-.035h-1zm0-7.479l-.482-.876-.518.285v.591h1zm9.994 0h1v-.592l-.518-.285-.482.876zm0 7.47h-1v.036l.003.035.997-.07zm-2.81 3.668a15.566 15.566 0 01-1.859 1.386c-.244.154-.441.27-.576.344-.067.038-.118.065-.15.082l-.035.019-.007.003h-.001.002l.447.894.448.894h.001l.002-.001.005-.003.017-.008a124.198 124.198 0 00.247-.134c.163-.09.393-.224.67-.4A17.582 17.582 0 00134.5 7.78l-1.313-1.509zM131.008 9l.434-.901h.001l-.007-.003-.034-.017a11.328 11.328 0 01-.724-.414 14.637 14.637 0 01-1.863-1.379l-1.313 1.509c.804.7 1.562 1.221 2.121 1.568a13.227 13.227 0 00.871.498l.055.028.017.008a.049.049 0 00.006.003h.002v.001h.001l.433-.901zm-2.193-2.714c-.996-.867-1.443-1.799-1.646-2.498a4.333 4.333 0 01-.16-.847 3.26 3.26 0 01-.008-.263v-.004.006l-.001.002-.997-.069-.998-.069v.009l-.001.013-.002.038-.002.115c0 .095.003.223.016.38.025.315.087.747.233 1.248.293 1.009.925 2.291 2.253 3.448l1.313-1.509zm-2.812-3.673h1v-7.478h-2v7.478h1zm.482-6.603c1.19-.654 2.825-1.01 4.516-1.01 1.692 0 3.326.356 4.514 1.01l.964-1.753C134.921-6.6 132.933-7 131.001-7s-3.921.4-5.48 1.258l.964 1.752zm8.512-.877v7.471h2v-7.471h-2zm1 7.471l-.997.07-.001-.003v-.004.003a2.683 2.683 0 01-.008.262c-.016.2-.057.495-.16.847-.202.697-.648 1.627-1.644 2.494l1.313 1.51c1.328-1.157 1.959-2.438 2.252-3.446.146-.5.207-.932.232-1.246a4.596 4.596 0 00.014-.496l-.002-.037-.001-.014v-.008l-.998.07z" fill="#CDCDD8" mask="url(#path-14-outside-5)"/><path d="M163.013 13l.209.454h.002l.006-.003.021-.01.077-.037.284-.142c.245-.125.595-.312 1.02-.559a26.9 26.9 0 003.229-2.206h0c1.945-1.552 2.859-3.26 3.282-4.595.211-.666.3-1.235.335-1.643a5.484 5.484 0 00.019-.62l-.001-.035v-11.25l-.275-.139c-2.286-1.151-5.266-1.715-8.219-1.715-2.953 0-5.935.563-8.223 1.717l-.275.139V3.617l-.001.036a5.494 5.494 0 00.019.62c.036.408.124.978.335 1.644.425 1.337 1.339 3.047 3.285 4.6h0a25.494 25.494 0 003.251 2.205 20.38 20.38 0 001.389.722l.021.01.006.002.002.001h.001l.201-.457zm0 0l.209.454-.205.094-.205-.09.201-.458z" stroke="#CDCDD8"/><mask id="path-17-outside-6" maskUnits="userSpaceOnUse" x="157" y="-7" width="12" height="18" fill="#000"><path fill="#fff" d="M157-7h12v18h-12z"/><path fill-rule="evenodd" clip-rule="evenodd" d="M165.843 7.027C164.343 8.332 163.008 9 163.008 9s-1.337-.643-2.849-1.96c-2.325-2.024-2.156-4.427-2.156-4.427v-7.479c2.749-1.513 7.248-1.51 9.994 0v7.47s.17 2.4-2.154 4.423z"/></mask><path d="M165.843 7.027l.657.754-.657-.754zM163.008 9l-.433.901.442.213.439-.22-.448-.894zm-2.849-1.96l-.657.755.657-.754zm-2.156-4.427l.997.07.003-.035v-.035h-1zm0-7.479l-.482-.876-.518.285v.591h1zm9.994 0h1v-.592l-.518-.285-.482.876zm0 7.47h-1v.036l.003.035.997-.07zm-2.81 3.668a15.566 15.566 0 01-1.859 1.386c-.244.154-.441.27-.576.344-.067.038-.118.065-.15.082l-.035.019-.007.003h-.001.002l.447.894.448.894h.001l.002-.001.005-.003.017-.008a124.198 124.198 0 00.247-.134c.163-.09.393-.224.67-.4A17.582 17.582 0 00166.5 7.78l-1.313-1.509zM163.008 9l.434-.901h.001l-.007-.003-.034-.017a11.328 11.328 0 01-.724-.414 14.637 14.637 0 01-1.863-1.379l-1.313 1.509c.804.7 1.562 1.221 2.121 1.568a13.227 13.227 0 00.871.498l.055.028.017.008a.049.049 0 00.006.003h.002v.001h.001l.433-.901zm-2.193-2.714c-.996-.867-1.443-1.799-1.646-2.498a4.333 4.333 0 01-.16-.847 3.26 3.26 0 01-.008-.263v-.004.006l-.001.002-.997-.069-.998-.069v.009l-.001.013-.002.038-.002.115c0 .095.003.223.016.38.025.315.087.747.233 1.248.293 1.009.925 2.291 2.253 3.448l1.313-1.509zm-2.812-3.673h1v-7.478h-2v7.478h1zm.482-6.603c1.19-.654 2.825-1.01 4.516-1.01 1.692 0 3.326.356 4.514 1.01l.964-1.753C166.921-6.6 164.933-7 163.001-7s-3.921.4-5.48 1.258l.964 1.752zm8.512-.877v7.471h2v-7.471h-2zm1 7.471l-.997.07-.001-.003v-.004.003a2.683 2.683 0 01-.008.262c-.016.2-.057.495-.16.847-.202.697-.648 1.627-1.644 2.494l1.313 1.51c1.328-1.157 1.959-2.438 2.252-3.446.146-.5.207-.932.232-1.246a4.596 4.596 0 00.014-.496l-.002-.037-.001-.014v-.008l-.998.07z" fill="#CDCDD8" mask="url(#path-17-outside-6)"/><path d="M195.013 13l.209.454h.002l.006-.003.021-.01.077-.037.284-.142c.245-.125.595-.312 1.02-.559a26.9 26.9 0 003.229-2.206h0c1.945-1.552 2.859-3.26 3.282-4.595.211-.666.3-1.235.335-1.643a5.484 5.484 0 00.019-.62l-.001-.035v-11.25l-.275-.139c-2.286-1.151-5.266-1.715-8.219-1.715-2.953 0-5.935.563-8.223 1.717l-.275.139V3.617l-.001.036a5.494 5.494 0 00.019.62c.036.408.124.978.335 1.644.425 1.337 1.339 3.047 3.285 4.6h0a25.494 25.494 0 003.251 2.205 20.38 20.38 0 001.389.722l.021.01.006.002.002.001h.001l.201-.457zm0 0l.209.454-.205.094-.205-.09.201-.458z" stroke="#CDCDD8"/><mask id="path-20-outside-7" maskUnits="userSpaceOnUse" x="189" y="-7" width="12" height="18" fill="#000"><path fill="#fff" d="M189-7h12v18h-12z"/><path fill-rule="evenodd" clip-rule="evenodd" d="M197.843 7.027C196.343 8.332 195.008 9 195.008 9s-1.337-.643-2.849-1.96c-2.325-2.024-2.156-4.427-2.156-4.427v-7.479c2.749-1.513 7.248-1.51 9.994 0v7.47s.17 2.4-2.154 4.423z"/></mask><path d="M197.843 7.027l.657.754-.657-.754zM195.008 9l-.433.901.442.213.439-.22-.448-.894zm-2.849-1.96l-.657.755.657-.754zm-2.156-4.427l.997.07.003-.035v-.035h-1zm0-7.479l-.482-.876-.518.285v.591h1zm9.994 0h1v-.592l-.518-.285-.482.876zm0 7.47h-1v.036l.003.035.997-.07zm-2.81 3.668a15.566 15.566 0 01-1.859 1.386c-.244.154-.441.27-.576.344-.067.038-.118.065-.15.082l-.035.019-.007.003h-.001.002l.447.894.448.894h.001l.002-.001.005-.003.017-.008a124.198 124.198 0 00.247-.134c.163-.09.393-.224.67-.4A17.582 17.582 0 00198.5 7.78l-1.313-1.509zM195.008 9l.434-.901h.001l-.007-.003-.034-.017a11.328 11.328 0 01-.724-.414 14.637 14.637 0 01-1.863-1.379l-1.313 1.509c.804.7 1.562 1.221 2.121 1.568a13.227 13.227 0 00.871.498l.055.028.017.008a.049.049 0 00.006.003h.002v.001h.001l.433-.901zm-2.193-2.714c-.996-.867-1.443-1.799-1.646-2.498a4.333 4.333 0 01-.16-.847 3.26 3.26 0 01-.008-.263v-.004.006l-.001.002-.997-.069-.998-.069v.009l-.001.013-.002.038-.002.115c0 .095.003.223.016.38.025.315.087.747.233 1.248.293 1.009.925 2.291 2.253 3.448l1.313-1.509zm-2.812-3.673h1v-7.478h-2v7.478h1zm.482-6.603c1.19-.654 2.825-1.01 4.516-1.01 1.692 0 3.326.356 4.514 1.01l.964-1.753C198.921-6.6 196.933-7 195.001-7s-3.921.4-5.48 1.258l.964 1.752zm8.512-.877v7.471h2v-7.471h-2zm1 7.471l-.997.07-.001-.003v-.004.003a2.683 2.683 0 01-.008.262c-.016.2-.057.495-.16.847-.202.697-.648 1.627-1.644 2.494l1.313 1.51c1.328-1.157 1.959-2.438 2.252-3.446.146-.5.207-.932.232-1.246a4.596 4.596 0 00.014-.496l-.002-.037-.001-.014v-.008l-.998.07z" fill="#CDCDD8" mask="url(#path-20-outside-7)"/><path d="M227.013 13l.209.454h.002l.006-.003.021-.01.077-.037.284-.142c.245-.125.595-.312 1.02-.559a26.9 26.9 0 003.229-2.206h0c1.945-1.552 2.859-3.26 3.282-4.595.211-.666.3-1.235.335-1.643a5.484 5.484 0 00.019-.62l-.001-.035v-11.25l-.275-.139c-2.286-1.151-5.266-1.715-8.219-1.715-2.953 0-5.935.563-8.223 1.717l-.275.139V3.617l-.001.036a5.494 5.494 0 00.019.62c.036.408.124.978.335 1.644.425 1.337 1.339 3.047 3.285 4.6h0a25.494 25.494 0 003.251 2.205 20.38 20.38 0 001.389.722l.021.01.006.002.002.001h.001l.201-.457zm0 0l.209.454-.205.094-.205-.09.201-.458z" stroke="#CDCDD8"/><mask id="path-23-outside-8" maskUnits="userSpaceOnUse" x="221" y="-7" width="12" height="18" fill="#000"><path fill="#fff" d="M221-7h12v18h-12z"/><path fill-rule="evenodd" clip-rule="evenodd" d="M229.843 7.027C228.343 8.332 227.008 9 227.008 9s-1.337-.643-2.849-1.96c-2.325-2.024-2.156-4.427-2.156-4.427v-7.479c2.749-1.513 7.248-1.51 9.994 0v7.47s.17 2.4-2.154 4.423z"/></mask><path d="M229.843 7.027l.657.754-.657-.754zM227.008 9l-.433.901.442.213.439-.22-.448-.894zm-2.849-1.96l-.657.755.657-.754zm-2.156-4.427l.997.07.003-.035v-.035h-1zm0-7.479l-.482-.876-.518.285v.591h1zm9.994 0h1v-.592l-.518-.285-.482.876zm0 7.47h-1v.036l.003.035.997-.07zm-2.81 3.668a15.566 15.566 0 01-1.859 1.386c-.244.154-.441.27-.576.344-.067.038-.118.065-.15.082l-.035.019-.007.003h-.001.002l.447.894.448.894h.001l.002-.001.005-.003.017-.008a124.198 124.198 0 00.247-.134c.163-.09.393-.224.67-.4A17.582 17.582 0 00230.5 7.78l-1.313-1.509zM227.008 9l.434-.901h.001l-.007-.003-.034-.017a11.328 11.328 0 01-.724-.414 14.637 14.637 0 01-1.863-1.379l-1.313 1.509c.804.7 1.562 1.221 2.121 1.568a13.227 13.227 0 00.871.498l.055.028.017.008a.049.049 0 00.006.003h.002v.001h.001l.433-.901zm-2.193-2.714c-.996-.867-1.443-1.799-1.646-2.498a4.333 4.333 0 01-.16-.847 3.26 3.26 0 01-.008-.263v-.004.006l-.001.002-.997-.069-.998-.069v.009l-.001.013-.002.038-.002.115c0 .095.003.223.016.38.025.315.087.747.233 1.248.293 1.009.925 2.291 2.253 3.448l1.313-1.509zm-2.812-3.673h1v-7.478h-2v7.478h1zm.482-6.603c1.19-.654 2.825-1.01 4.516-1.01 1.692 0 3.326.356 4.514 1.01l.964-1.753C230.921-6.6 228.933-7 227.001-7s-3.921.4-5.48 1.258l.964 1.752zm8.512-.877v7.471h2v-7.471h-2zm1 7.471l-.997.07-.001-.003v-.004.003a2.683 2.683 0 01-.008.262c-.016.2-.057.495-.16.847-.202.697-.648 1.627-1.644 2.494l1.313 1.51c1.328-1.157 1.959-2.438 2.252-3.446.146-.5.207-.932.232-1.246a4.596 4.596 0 00.014-.496l-.002-.037-.001-.014v-.008l-.998.07z" fill="#CDCDD8" mask="url(#path-23-outside-8)"/><path d="M259.013 13l.209.454h.002l.006-.003.021-.01.077-.037.284-.142c.245-.125.595-.312 1.02-.559a26.9 26.9 0 003.229-2.206h0c1.945-1.552 2.859-3.26 3.282-4.595.211-.666.3-1.235.335-1.643a5.484 5.484 0 00.019-.62l-.001-.035v-11.25l-.275-.139c-2.286-1.151-5.266-1.715-8.219-1.715-2.953 0-5.935.563-8.223 1.717l-.275.139V3.617l-.001.036a5.494 5.494 0 00.019.62c.036.408.124.978.335 1.644.425 1.337 1.339 3.047 3.285 4.6h0a25.494 25.494 0 003.251 2.205 20.38 20.38 0 001.389.722l.021.01.006.002.002.001h.001l.201-.457zm0 0l.209.454-.205.094-.205-.09.201-.458z" stroke="#CDCDD8"/><mask id="path-26-outside-9" maskUnits="userSpaceOnUse" x="253" y="-7" width="12" height="18" fill="#000"><path fill="#fff" d="M253-7h12v18h-12z"/><path fill-rule="evenodd" clip-rule="evenodd" d="M261.843 7.027C260.343 8.332 259.008 9 259.008 9s-1.337-.643-2.849-1.96c-2.325-2.024-2.156-4.427-2.156-4.427v-7.479c2.749-1.513 7.248-1.51 9.994 0v7.47s.17 2.4-2.154 4.423z"/></mask><path d="M261.843 7.027l.657.754-.657-.754zM259.008 9l-.433.901.442.213.439-.22-.448-.894zm-2.849-1.96l-.657.755.657-.754zm-2.156-4.427l.997.07.003-.035v-.035h-1zm0-7.479l-.482-.876-.518.285v.591h1zm9.994 0h1v-.592l-.518-.285-.482.876zm0 7.47h-1v.036l.003.035.997-.07zm-2.81 3.668a15.566 15.566 0 01-1.859 1.386c-.244.154-.441.27-.576.344-.067.038-.118.065-.15.082l-.035.019-.007.003h-.001.002l.447.894.448.894h.001l.002-.001.005-.003.017-.008a124.198 124.198 0 00.247-.134c.163-.09.393-.224.67-.4A17.582 17.582 0 00262.5 7.78l-1.313-1.509zM259.008 9l.434-.901h.001l-.007-.003-.034-.017a11.328 11.328 0 01-.724-.414 14.637 14.637 0 01-1.863-1.379l-1.313 1.509c.804.7 1.562 1.221 2.121 1.568a13.227 13.227 0 00.871.498l.055.028.017.008a.049.049 0 00.006.003h.002v.001h.001l.433-.901zm-2.193-2.714c-.996-.867-1.443-1.799-1.646-2.498a4.333 4.333 0 01-.16-.847 3.26 3.26 0 01-.008-.263v-.004.006l-.001.002-.997-.069-.998-.069v.009l-.001.013-.002.038-.002.115c0 .095.003.223.016.38.025.315.087.747.233 1.248.293 1.009.925 2.291 2.253 3.448l1.313-1.509zm-2.812-3.673h1v-7.478h-2v7.478h1zm.482-6.603c1.19-.654 2.825-1.01 4.516-1.01 1.692 0 3.326.356 4.514 1.01l.964-1.753C262.921-6.6 260.933-7 259.001-7s-3.921.4-5.48 1.258l.964 1.752zm8.512-.877v7.471h2v-7.471h-2zm1 7.471l-.997.07-.001-.003v-.004.003a2.683 2.683 0 01-.008.262c-.016.2-.057.495-.16.847-.202.697-.648 1.627-1.644 2.494l1.313 1.51c1.328-1.157 1.959-2.438 2.252-3.446.146-.5.207-.932.232-1.246a4.596 4.596 0 00.014-.496l-.002-.037-.001-.014v-.008l-.998.07z" fill="#CDCDD8" mask="url(#path-26-outside-9)"/><path d="M291.013 13l.209.454h.002l.006-.003.021-.01.077-.037.284-.142c.245-.125.595-.312 1.02-.559a26.9 26.9 0 003.229-2.206h0c1.945-1.552 2.859-3.26 3.282-4.595.211-.666.3-1.235.335-1.643a5.484 5.484 0 00.019-.62l-.001-.035v-11.25l-.275-.139c-2.286-1.151-5.266-1.715-8.219-1.715-2.953 0-5.935.563-8.223 1.717l-.275.139V3.617l-.001.036a5.494 5.494 0 00.019.62c.036.408.124.978.335 1.644.425 1.337 1.339 3.047 3.285 4.6h0a25.494 25.494 0 003.251 2.205 20.38 20.38 0 001.389.722l.021.01.006.002.002.001h.001l.201-.457zm0 0l.209.454-.205.094-.205-.09.201-.458z" stroke="#CDCDD8"/><mask id="path-29-outside-10" maskUnits="userSpaceOnUse" x="285" y="-7" width="12" height="18" fill="#000"><path fill="#fff" d="M285-7h12v18h-12z"/><path fill-rule="evenodd" clip-rule="evenodd" d="M293.843 7.027C292.343 8.332 291.008 9 291.008 9s-1.337-.643-2.849-1.96c-2.325-2.024-2.156-4.427-2.156-4.427v-7.479c2.749-1.513 7.248-1.51 9.994 0v7.47s.17 2.4-2.154 4.423z"/></mask><path d="M293.843 7.027l.657.754-.657-.754zM291.008 9l-.433.901.442.213.439-.22-.448-.894zm-2.849-1.96l-.657.755.657-.754zm-2.156-4.427l.997.07.003-.035v-.035h-1zm0-7.479l-.482-.876-.518.285v.591h1zm9.994 0h1v-.592l-.518-.285-.482.876zm0 7.47h-1v.036l.003.035.997-.07zm-2.81 3.668a15.566 15.566 0 01-1.859 1.386c-.244.154-.441.27-.576.344-.067.038-.118.065-.15.082l-.035.019-.007.003h-.001.002l.447.894.448.894h.001l.002-.001.005-.003.017-.008a124.198 124.198 0 00.247-.134c.163-.09.393-.224.67-.4A17.582 17.582 0 00294.5 7.78l-1.313-1.509zM291.008 9l.434-.901h.001l-.007-.003-.034-.017a11.328 11.328 0 01-.724-.414 14.637 14.637 0 01-1.863-1.379l-1.313 1.509c.804.7 1.562 1.221 2.121 1.568a13.227 13.227 0 00.871.498l.055.028.017.008a.049.049 0 00.006.003h.002v.001h.001l.433-.901zm-2.193-2.714c-.996-.867-1.443-1.799-1.646-2.498a4.333 4.333 0 01-.16-.847 3.26 3.26 0 01-.009-.22l.001-.043v-.004.006l-.001.002-.997-.069-.998-.069v.009l-.001.013-.002.038-.002.115c0 .095.003.223.016.38.025.315.087.747.233 1.248.293 1.009.925 2.291 2.253 3.448l1.313-1.509zm-2.812-3.673h1v-7.478h-2v7.478h1zm.482-6.603c1.19-.654 2.825-1.01 4.516-1.01 1.692 0 3.326.356 4.514 1.01l.964-1.753C294.921-6.6 292.933-7 291.001-7s-3.921.4-5.48 1.258l.964 1.752zm8.512-.877v7.471h2v-7.471h-2zm1 7.471l-.997.07-.001-.003v-.004.003a2.683 2.683 0 01-.008.262c-.016.2-.057.495-.16.847-.202.697-.648 1.627-1.644 2.494l1.313 1.51c1.328-1.157 1.959-2.438 2.252-3.446.146-.5.207-.932.232-1.246a4.596 4.596 0 00.014-.496l-.002-.037-.001-.014v-.008l-.998.07z" fill="#CDCDD8" mask="url(#path-29-outside-10)"/><path d="M19.013 47l.209.454h.002l.006-.003.02-.01a10.368 10.368 0 00.362-.179c.245-.125.595-.312 1.02-.559.85-.493 2.005-1.23 3.229-2.206h0c1.944-1.552 2.859-3.26 3.282-4.595.211-.666.3-1.235.335-1.643a5.514 5.514 0 00.018-.655v-11.25l-.275-.139c-2.285-1.151-5.266-1.715-8.219-1.715-2.953 0-5.935.563-8.223 1.717l-.275.139v11.261l-.001.036a5.543 5.543 0 00.02.62c.035.408.123.978.335 1.644.424 1.337 1.338 3.047 3.284 4.6h0a25.515 25.515 0 003.251 2.205 20.736 20.736 0 001.312.687l.077.035.021.01.006.002.002.001h0l.202-.457zm0 0l.209.455-.205.093-.205-.09.201-.458z" stroke="#CDCDD8"/><mask id="path-32-outside-11" maskUnits="userSpaceOnUse" x="13" y="27" width="12" height="18" fill="#000"><path fill="#fff" d="M13 27h12v18H13z"/><path fill-rule="evenodd" clip-rule="evenodd" d="M21.843 41.027C20.343 42.332 19.008 43 19.008 43s-1.337-.643-2.85-1.96c-2.324-2.024-2.155-4.427-2.155-4.427v-7.479c2.75-1.513 7.248-1.51 9.994 0v7.47s.17 2.4-2.154 4.423z"/></mask><path d="M21.843 41.027l.657.754-.657-.754zM19.008 43l-.433.901.442.213.439-.22-.448-.894zm-2.85-1.96l-.656.755.657-.754zm-2.155-4.427l.997.07.003-.035v-.035h-1zm0-7.479l-.482-.876-.518.285v.591h1zm9.994 0h1v-.592l-.518-.285-.482.876zm0 7.47h-1v.036l.003.035.997-.07zm-2.81 3.668a15.506 15.506 0 01-1.86 1.386 12.262 12.262 0 01-.725.426l-.035.019-.007.003.448.894.448.894h.001l.002-.001.005-.003.017-.008.054-.029.193-.105c.163-.09.393-.224.67-.4A17.505 17.505 0 0022.5 41.78l-1.313-1.509zM19.008 43l.434-.901h.001l-.007-.003a3.319 3.319 0 01-.183-.096 11.194 11.194 0 01-.575-.335 14.631 14.631 0 01-1.863-1.379l-1.313 1.509c.804.7 1.562 1.221 2.12 1.568a13.35 13.35 0 00.927.526l.017.008a.828.828 0 00.006.003h.002v.001l.434-.901zm-2.193-2.714c-.996-.867-1.443-1.799-1.646-2.498a4.28 4.28 0 01-.16-.847c-.008-.1-.01-.175-.009-.22v-.047.008l-.997-.069-.998-.069v.009l-.001.013-.002.038-.002.115c0 .095.003.223.016.38.025.315.087.747.233 1.248.293 1.009.925 2.291 2.253 3.448l1.313-1.509zm-2.812-3.673h1v-7.479h-2v7.479h1zm.482-6.603C15.675 29.356 17.31 29 19 29c1.692 0 3.326.356 4.514 1.01l.964-1.753C22.921 27.4 20.933 27 19.001 27c-1.931 0-3.92.4-5.48 1.258l.964 1.752zm8.512-.877v7.471h2v-7.471h-2zm1 7.471l-.997.07v-.008.047a4.164 4.164 0 01-.169 1.065c-.202.697-.648 1.628-1.644 2.494l1.313 1.51c1.328-1.156 1.959-2.438 2.252-3.446.146-.5.207-.932.232-1.246a4.757 4.757 0 00.012-.533v-.014l-.001-.005v-.003l-.998.07z" fill="#CDCDD8" mask="url(#path-32-outside-11)"/><path d="M51.013 47l.209.454h.002l.006-.003.02-.01a10.368 10.368 0 00.362-.179c.245-.125.595-.312 1.02-.559.85-.493 2.005-1.23 3.229-2.206h0c1.945-1.552 2.859-3.26 3.282-4.595.211-.666.3-1.235.335-1.643a5.514 5.514 0 00.018-.655v-11.25l-.275-.139c-2.285-1.151-5.266-1.715-8.219-1.715-2.953 0-5.935.563-8.223 1.717l-.275.139v11.261l-.001.036a5.543 5.543 0 00.02.62c.035.408.123.978.334 1.644.425 1.337 1.34 3.047 3.285 4.6h0a25.515 25.515 0 003.251 2.205 20.736 20.736 0 001.312.687l.077.035.021.01.006.002.002.001h0l.202-.457zm0 0l.209.455-.205.093-.205-.09.201-.458z" stroke="#CDCDD8"/><mask id="path-35-outside-12" maskUnits="userSpaceOnUse" x="45" y="27" width="12" height="18" fill="#000"><path fill="#fff" d="M45 27h12v18H45z"/><path fill-rule="evenodd" clip-rule="evenodd" d="M53.843 41.027C52.343 42.332 51.008 43 51.008 43s-1.337-.643-2.85-1.96c-2.324-2.024-2.155-4.427-2.155-4.427v-7.479c2.75-1.513 7.248-1.51 9.994 0v7.47s.17 2.4-2.154 4.423z"/></mask><path d="M53.843 41.027l.656.754-.656-.754zM51.008 43l-.433.901.442.213.439-.22-.448-.894zm-2.85-1.96l-.656.755.657-.754zm-2.155-4.427l.997.07.003-.035v-.035h-1zm0-7.479l-.482-.876-.518.285v.591h1zm9.994 0h1v-.592l-.518-.285-.482.876zm0 7.47h-1v.036l.003.035.997-.07zm-2.81 3.668a15.506 15.506 0 01-1.86 1.386 12.262 12.262 0 01-.725.426l-.035.019-.007.003.448.894.448.894h.001l.002-.001.005-.003.017-.008.054-.029a14.282 14.282 0 00.863-.505A17.505 17.505 0 0054.5 41.78l-1.312-1.509zM51.008 43l.434-.901h.001l-.007-.003a3.319 3.319 0 01-.184-.096c-.133-.072-.33-.184-.574-.335a14.631 14.631 0 01-1.863-1.379l-1.313 1.509c.804.7 1.562 1.221 2.12 1.568a13.35 13.35 0 00.944.534.828.828 0 00.006.003h.002v.001l.434-.901zm-2.193-2.714c-.996-.867-1.443-1.799-1.646-2.498a4.28 4.28 0 01-.16-.847c-.008-.1-.01-.175-.009-.22v-.047.008l-.997-.069-.998-.069v.009l-.001.013-.002.038-.002.115c0 .095.003.223.016.38.025.315.087.747.233 1.248.293 1.009.925 2.291 2.253 3.448l1.313-1.509zm-2.812-3.673h1v-7.479h-2v7.479h1zm.482-6.603C47.675 29.356 49.31 29 51 29c1.692 0 3.326.356 4.514 1.01l.964-1.753C54.921 27.4 52.933 27 51.001 27c-1.931 0-3.92.4-5.48 1.258l.964 1.752zm8.512-.877v7.471h2v-7.471h-2zm1 7.471l-.997.07v-.008.047a4.164 4.164 0 01-.169 1.065c-.202.697-.648 1.628-1.644 2.494l1.313 1.51c1.328-1.156 1.959-2.438 2.252-3.446.146-.5.207-.932.232-1.246a4.757 4.757 0 00.012-.533v-.014l-.001-.005v-.003l-.998.07z" fill="#CDCDD8" mask="url(#path-35-outside-12)"/><path d="M83.013 47l.209.454h.003l.005-.003.02-.01a10.368 10.368 0 00.362-.179c.245-.125.595-.312 1.02-.559.85-.493 2.005-1.23 3.229-2.206h0c1.944-1.552 2.859-3.26 3.282-4.595.211-.666.3-1.235.335-1.643a5.514 5.514 0 00.018-.655v-11.25l-.275-.139c-2.285-1.151-5.266-1.715-8.219-1.715-2.953 0-5.935.563-8.223 1.717l-.275.139v11.261l-.001.036a5.543 5.543 0 00.02.62c.035.408.123.978.335 1.644.424 1.337 1.338 3.047 3.284 4.6h0a25.515 25.515 0 003.251 2.205 20.736 20.736 0 001.312.687l.077.035.021.01.006.002.002.001h0l.202-.457zm0 0l.209.455-.204.093-.206-.09.201-.458z" stroke="#CDCDD8"/><mask id="path-38-outside-13" maskUnits="userSpaceOnUse" x="77" y="27" width="12" height="18" fill="#000"><path fill="#fff" d="M77 27h12v18H77z"/><path fill-rule="evenodd" clip-rule="evenodd" d="M85.843 41.027C84.343 42.332 83.008 43 83.008 43s-1.337-.643-2.85-1.96c-2.324-2.024-2.155-4.427-2.155-4.427v-7.479c2.75-1.513 7.248-1.51 9.994 0v7.47s.17 2.4-2.154 4.423z"/></mask><path d="M85.843 41.027l.656.754-.656-.754zM83.008 43l-.433.901.442.213.439-.22-.448-.894zm-2.85-1.96l-.656.755.657-.754zm-2.155-4.427l.997.07.003-.035v-.035h-1zm0-7.479l-.482-.876-.518.285v.591h1zm9.994 0h1v-.592l-.518-.285-.482.876zm0 7.47h-1v.036l.003.035.997-.07zm-2.81 3.668a15.506 15.506 0 01-1.86 1.386 12.262 12.262 0 01-.725.426l-.035.019-.007.003.448.894.448.894h.001l.002-.001.005-.003.017-.008.054-.029a14.282 14.282 0 00.863-.505A17.505 17.505 0 0086.5 41.78l-1.313-1.509zM83.008 43l.434-.901h.001l-.007-.003a3.319 3.319 0 01-.184-.096c-.133-.072-.33-.184-.574-.335a14.631 14.631 0 01-1.863-1.379l-1.313 1.509c.804.7 1.562 1.221 2.12 1.568a13.35 13.35 0 00.944.534.828.828 0 00.006.003h.002v.001l.434-.901zm-2.193-2.714c-.996-.867-1.443-1.799-1.646-2.498a4.28 4.28 0 01-.16-.847c-.008-.1-.01-.175-.009-.22v-.047.008l-.997-.069-.998-.069v.009l-.001.013-.002.038-.002.115c0 .095.003.223.016.38.025.315.087.747.233 1.248.293 1.009.925 2.291 2.253 3.448l1.313-1.509zm-2.812-3.673h1v-7.479h-2v7.479h1zm.482-6.603C79.675 29.356 81.31 29 83 29c1.692 0 3.326.356 4.514 1.01l.964-1.753C86.921 27.4 84.933 27 83.001 27c-1.931 0-3.92.4-5.48 1.258l.964 1.752zm8.512-.877v7.471h2v-7.471h-2zm1 7.471l-.997.07v-.008.047a4.22 4.22 0 01-.168 1.065c-.203.697-.65 1.628-1.645 2.494l1.313 1.51c1.328-1.156 1.959-2.438 2.252-3.446.146-.5.207-.932.232-1.246a4.757 4.757 0 00.012-.533v-.014l-.001-.005v-.003l-.998.07z" fill="#CDCDD8" mask="url(#path-38-outside-13)"/><path d="M115.013 47l.209.454h.002l.006-.003.021-.01.077-.037.284-.142c.245-.125.595-.312 1.02-.559a26.9 26.9 0 003.229-2.206h0c1.945-1.552 2.859-3.26 3.282-4.595.211-.666.3-1.235.335-1.643a5.482 5.482 0 00.019-.62l-.001-.035v-11.25l-.275-.139c-2.286-1.151-5.266-1.715-8.219-1.715-2.953 0-5.935.563-8.223 1.717l-.275.139v11.261l-.001.036a5.496 5.496 0 00.019.62c.036.408.124.978.335 1.644.425 1.337 1.339 3.047 3.285 4.6h0a25.494 25.494 0 003.251 2.205 20.38 20.38 0 001.389.722l.021.01.006.002.002.001h.001l.201-.457zm0 0l.209.455-.205.093-.205-.09.201-.458z" stroke="#CDCDD8"/><mask id="path-41-outside-14" maskUnits="userSpaceOnUse" x="109" y="27" width="12" height="18" fill="#000"><path fill="#fff" d="M109 27h12v18h-12z"/><path fill-rule="evenodd" clip-rule="evenodd" d="M117.843 41.027c-1.5 1.305-2.835 1.973-2.835 1.973s-1.337-.643-2.849-1.96c-2.325-2.024-2.156-4.427-2.156-4.427v-7.479c2.749-1.513 7.248-1.51 9.994 0v7.47s.17 2.4-2.154 4.423z"/></mask><path d="M117.843 41.027l.657.754-.657-.754zM115.008 43l-.433.901.442.213.439-.22-.448-.894zm-2.849-1.96l-.657.755.657-.754zm-2.156-4.427l.997.07.003-.035v-.035h-1zm0-7.479l-.482-.876-.518.285v.591h1zm9.994 0h1v-.592l-.518-.285-.482.876zm0 7.47h-1v.036l.003.035.997-.07zm-2.81 3.668a15.562 15.562 0 01-1.859 1.386c-.244.154-.441.27-.576.344-.067.038-.118.065-.15.082l-.035.019-.007.003h-.001.002l.447.894.448.894h.001l.002-.001.005-.003.017-.008.054-.029a14.032 14.032 0 00.863-.505 17.584 17.584 0 002.102-1.567l-1.313-1.509zM115.008 43l.434-.901h.001l-.007-.003-.034-.017a11.339 11.339 0 01-.724-.414 14.638 14.638 0 01-1.863-1.379l-1.313 1.509c.804.7 1.562 1.221 2.121 1.568a13.227 13.227 0 00.871.498l.055.028.017.008a.052.052 0 00.006.003h.002v.001h.001l.433-.901zm-2.193-2.714c-.996-.867-1.443-1.799-1.646-2.498a4.333 4.333 0 01-.16-.847 3.257 3.257 0 01-.009-.22l.001-.043v-.004.006l-.001.002-.997-.069-.998-.069v.009l-.001.013-.002.038-.002.115c0 .095.003.223.016.38.025.315.087.747.233 1.248.293 1.009.925 2.291 2.253 3.448l1.313-1.509zm-2.812-3.673h1v-7.479h-2v7.479h1zm.482-6.603c1.19-.654 2.825-1.01 4.516-1.01 1.692 0 3.326.356 4.514 1.01l.964-1.753C118.921 27.4 116.933 27 115.001 27s-3.921.4-5.48 1.258l.964 1.752zm8.512-.877v7.471h2v-7.471h-2zm1 7.471l-.997.07-.001-.003v-.005.003a2.683 2.683 0 01-.008.263 4.251 4.251 0 01-.16.846c-.202.697-.648 1.628-1.644 2.494l1.313 1.51c1.328-1.156 1.959-2.438 2.252-3.446.146-.5.207-.932.232-1.246a4.596 4.596 0 00.014-.496l-.002-.037-.001-.014v-.008l-.998.07z" fill="#CDCDD8" mask="url(#path-41-outside-14)"/><path d="M147.013 47l.209.454h.002l.006-.003.021-.01.077-.037.284-.142c.245-.125.595-.312 1.02-.559a26.9 26.9 0 003.229-2.206h0c1.945-1.552 2.859-3.26 3.282-4.595.211-.666.3-1.235.335-1.643a5.482 5.482 0 00.019-.62l-.001-.035v-11.25l-.275-.139c-2.286-1.151-5.266-1.715-8.219-1.715-2.953 0-5.935.563-8.223 1.717l-.275.139v11.261l-.001.036a5.496 5.496 0 00.019.62c.036.408.124.978.335 1.644.425 1.337 1.339 3.047 3.285 4.6h0a25.494 25.494 0 003.251 2.205 20.38 20.38 0 001.389.722l.021.01.006.002.002.001h.001l.201-.457zm0 0l.209.455-.205.093-.205-.09.201-.458z" stroke="#CDCDD8"/><mask id="path-44-outside-15" maskUnits="userSpaceOnUse" x="141" y="27" width="12" height="18" fill="#000"><path fill="#fff" d="M141 27h12v18h-12z"/><path fill-rule="evenodd" clip-rule="evenodd" d="M149.843 41.027c-1.5 1.305-2.835 1.973-2.835 1.973s-1.337-.643-2.849-1.96c-2.325-2.024-2.156-4.427-2.156-4.427v-7.479c2.749-1.513 7.248-1.51 9.994 0v7.47s.17 2.4-2.154 4.423z"/></mask><path d="M149.843 41.027l.657.754-.657-.754zM147.008 43l-.433.901.442.213.439-.22-.448-.894zm-2.849-1.96l-.657.755.657-.754zm-2.156-4.427l.997.07.003-.035v-.035h-1zm0-7.479l-.482-.876-.518.285v.591h1zm9.994 0h1v-.592l-.518-.285-.482.876zm0 7.47h-1v.036l.003.035.997-.07zm-2.81 3.668a15.562 15.562 0 01-1.859 1.386c-.244.154-.441.27-.576.344-.067.038-.118.065-.15.082l-.035.019-.007.003h-.001.002l.447.894.448.894h.001l.002-.001.005-.003.017-.008.054-.029a14.032 14.032 0 00.863-.505 17.584 17.584 0 002.102-1.567l-1.313-1.509zM147.008 43l.434-.901h.001l-.007-.003-.034-.017a11.339 11.339 0 01-.724-.414 14.638 14.638 0 01-1.863-1.379l-1.313 1.509c.804.7 1.562 1.221 2.121 1.568a13.227 13.227 0 00.871.498l.055.028.017.008a.052.052 0 00.006.003h.002v.001h.001l.433-.901zm-2.193-2.714c-.996-.867-1.443-1.799-1.646-2.498a4.333 4.333 0 01-.16-.847 3.257 3.257 0 01-.009-.22l.001-.043v-.004.006l-.001.002-.997-.069-.998-.069v.009l-.001.013-.002.038-.002.115c0 .095.003.223.016.38.025.315.087.747.233 1.248.293 1.009.925 2.291 2.253 3.448l1.313-1.509zm-2.812-3.673h1v-7.479h-2v7.479h1zm.482-6.603c1.19-.654 2.825-1.01 4.516-1.01 1.692 0 3.326.356 4.514 1.01l.964-1.753C150.921 27.4 148.933 27 147.001 27s-3.921.4-5.48 1.258l.964 1.752zm8.512-.877v7.471h2v-7.471h-2zm1 7.471l-.997.07-.001-.003v-.005.003a2.683 2.683 0 01-.008.263 4.251 4.251 0 01-.16.846c-.202.697-.648 1.628-1.644 2.494l1.313 1.51c1.328-1.156 1.959-2.438 2.252-3.446.146-.5.207-.932.232-1.246a4.596 4.596 0 00.014-.496l-.002-.037-.001-.014v-.008l-.998.07z" fill="#CDCDD8" mask="url(#path-44-outside-15)"/><path d="M179.013 47l.209.454h.002l.006-.003.021-.01.077-.037.284-.142c.245-.125.595-.312 1.02-.559a26.9 26.9 0 003.229-2.206h0c1.945-1.552 2.859-3.26 3.282-4.595.211-.666.3-1.235.335-1.643a5.482 5.482 0 00.019-.62l-.001-.035v-11.25l-.275-.139c-2.286-1.151-5.266-1.715-8.219-1.715-2.953 0-5.935.563-8.223 1.717l-.275.139v11.261l-.001.036a5.496 5.496 0 00.019.62c.036.408.124.978.335 1.644.425 1.337 1.339 3.047 3.285 4.6h0a25.494 25.494 0 003.251 2.205 20.38 20.38 0 001.389.722l.021.01.006.002.002.001h.001l.201-.457zm0 0l.209.455-.205.093-.205-.09.201-.458z" stroke="#CDCDD8"/><mask id="path-47-outside-16" maskUnits="userSpaceOnUse" x="173" y="27" width="12" height="18" fill="#000"><path fill="#fff" d="M173 27h12v18h-12z"/><path fill-rule="evenodd" clip-rule="evenodd" d="M181.843 41.027c-1.5 1.305-2.835 1.973-2.835 1.973s-1.337-.643-2.849-1.96c-2.325-2.024-2.156-4.427-2.156-4.427v-7.479c2.749-1.513 7.248-1.51 9.994 0v7.47s.17 2.4-2.154 4.423z"/></mask><path d="M181.843 41.027l.657.754-.657-.754zM179.008 43l-.433.901.442.213.439-.22-.448-.894zm-2.849-1.96l-.657.755.657-.754zm-2.156-4.427l.997.07.003-.035v-.035h-1zm0-7.479l-.482-.876-.518.285v.591h1zm9.994 0h1v-.592l-.518-.285-.482.876zm0 7.47h-1v.036l.003.035.997-.07zm-2.81 3.668a15.562 15.562 0 01-1.859 1.386c-.244.154-.441.27-.576.344-.067.038-.118.065-.15.082l-.035.019-.007.003h-.001.002l.447.894.448.894h.001l.002-.001.005-.003.017-.008.054-.029a14.032 14.032 0 00.863-.505 17.584 17.584 0 002.102-1.567l-1.313-1.509zM179.008 43l.434-.901h.001l-.007-.003-.034-.017a11.339 11.339 0 01-.724-.414 14.638 14.638 0 01-1.863-1.379l-1.313 1.509c.804.7 1.562 1.221 2.121 1.568a13.227 13.227 0 00.871.498l.055.028.017.008a.052.052 0 00.006.003h.002v.001h.001l.433-.901zm-2.193-2.714c-.996-.867-1.443-1.799-1.646-2.498a4.333 4.333 0 01-.16-.847 3.257 3.257 0 01-.009-.22l.001-.043v-.004.006l-.001.002-.997-.069-.998-.069v.009l-.001.013-.002.038-.002.115c0 .095.003.223.016.38.025.315.087.747.233 1.248.293 1.009.925 2.291 2.253 3.448l1.313-1.509zm-2.812-3.673h1v-7.479h-2v7.479h1zm.482-6.603c1.19-.654 2.825-1.01 4.516-1.01 1.692 0 3.326.356 4.514 1.01l.964-1.753C182.921 27.4 180.933 27 179.001 27s-3.921.4-5.48 1.258l.964 1.752zm8.512-.877v7.471h2v-7.471h-2zm1 7.471l-.997.07-.001-.003v-.005.003a2.683 2.683 0 01-.008.263 4.251 4.251 0 01-.16.846c-.202.697-.648 1.628-1.644 2.494l1.313 1.51c1.328-1.156 1.959-2.438 2.252-3.446.146-.5.207-.932.232-1.246a4.596 4.596 0 00.014-.496l-.002-.037-.001-.014v-.008l-.998.07z" fill="#CDCDD8" mask="url(#path-47-outside-16)"/><path d="M211.013 47l.209.454h.002l.006-.003.021-.01.077-.037.284-.142c.245-.125.595-.312 1.02-.559a26.9 26.9 0 003.229-2.206h0c1.945-1.552 2.859-3.26 3.282-4.595.211-.666.3-1.235.335-1.643a5.482 5.482 0 00.019-.62l-.001-.035v-11.25l-.275-.139c-2.286-1.151-5.266-1.715-8.219-1.715-2.953 0-5.935.563-8.223 1.717l-.275.139v11.261l-.001.036a5.496 5.496 0 00.019.62c.036.408.124.978.335 1.644.425 1.337 1.339 3.047 3.285 4.6h0a25.494 25.494 0 003.251 2.205 20.38 20.38 0 001.389.722l.021.01.006.002.002.001h.001l.201-.457zm0 0l.209.455-.205.093-.205-.09.201-.458z" stroke="#CDCDD8"/><mask id="path-50-outside-17" maskUnits="userSpaceOnUse" x="205" y="27" width="12" height="18" fill="#000"><path fill="#fff" d="M205 27h12v18h-12z"/><path fill-rule="evenodd" clip-rule="evenodd" d="M213.843 41.027c-1.5 1.305-2.835 1.973-2.835 1.973s-1.337-.643-2.849-1.96c-2.325-2.024-2.156-4.427-2.156-4.427v-7.479c2.749-1.513 7.248-1.51 9.994 0v7.47s.17 2.4-2.154 4.423z"/></mask><path d="M213.843 41.027l.657.754-.657-.754zM211.008 43l-.433.901.442.213.439-.22-.448-.894zm-2.849-1.96l-.657.755.657-.754zm-2.156-4.427l.997.07.003-.035v-.035h-1zm0-7.479l-.482-.876-.518.285v.591h1zm9.994 0h1v-.592l-.518-.285-.482.876zm0 7.47h-1v.036l.003.035.997-.07zm-2.81 3.668a15.562 15.562 0 01-1.859 1.386c-.244.154-.441.27-.576.344-.067.038-.118.065-.15.082l-.035.019-.007.003h-.001.002l.447.894.448.894h.001l.002-.001.005-.003.017-.008.054-.029a14.032 14.032 0 00.863-.505 17.584 17.584 0 002.102-1.567l-1.313-1.509zM211.008 43l.434-.901h.001l-.007-.003-.034-.017a11.339 11.339 0 01-.724-.414 14.638 14.638 0 01-1.863-1.379l-1.313 1.509c.804.7 1.562 1.221 2.121 1.568a13.227 13.227 0 00.871.498l.055.028.017.008a.052.052 0 00.006.003h.002v.001h.001l.433-.901zm-2.193-2.714c-.996-.867-1.443-1.799-1.646-2.498a4.333 4.333 0 01-.16-.847 3.257 3.257 0 01-.009-.22l.001-.043v-.004.006l-.001.002-.997-.069-.998-.069v.009l-.001.013-.002.038-.002.115c0 .095.003.223.016.38.025.315.087.747.233 1.248.293 1.009.925 2.291 2.253 3.448l1.313-1.509zm-2.812-3.673h1v-7.479h-2v7.479h1zm.482-6.603c1.19-.654 2.825-1.01 4.516-1.01 1.692 0 3.326.356 4.514 1.01l.964-1.753C214.921 27.4 212.933 27 211.001 27s-3.921.4-5.48 1.258l.964 1.752zm8.512-.877v7.471h2v-7.471h-2zm1 7.471l-.997.07-.001-.003v-.005.003a2.683 2.683 0 01-.008.263 4.251 4.251 0 01-.16.846c-.202.697-.648 1.628-1.644 2.494l1.313 1.51c1.328-1.156 1.959-2.438 2.252-3.446.146-.5.207-.932.232-1.246a4.596 4.596 0 00.014-.496l-.002-.037-.001-.014v-.008l-.998.07z" fill="#CDCDD8" mask="url(#path-50-outside-17)"/><path d="M3.013 81l.209.454h.002l.006-.003.02-.01a10.313 10.313 0 00.362-.179c.245-.125.595-.312 1.02-.559.85-.493 2.005-1.23 3.229-2.206h0c1.945-1.552 2.859-3.26 3.282-4.595.211-.666.3-1.235.335-1.643a5.514 5.514 0 00.018-.655v-11.25l-.275-.139C8.935 59.063 5.955 58.5 3.002 58.5c-2.953 0-5.935.563-8.223 1.717l-.275.139v11.261a2.232 2.232 0 00-.004.172c0 .116.004.28.022.484.036.408.124.978.335 1.644.425 1.337 1.34 3.047 3.285 4.6h0a25.518 25.518 0 003.251 2.205 20.735 20.735 0 001.312.687l.077.035.021.01.006.002.002.001h0L3.014 81zm0 0l.209.454-.205.094-.205-.09.201-.458z" stroke="#CDCDD8"/><mask id="path-53-outside-18" maskUnits="userSpaceOnUse" x="-3" y="61" width="12" height="18" fill="#000"><path fill="#fff" d="M-3 61H9v18H-3z"/><path fill-rule="evenodd" clip-rule="evenodd" d="M5.843 75.027C4.343 76.332 3.008 77 3.008 77s-1.337-.643-2.85-1.96c-2.324-2.024-2.155-4.427-2.155-4.427v-7.479c2.75-1.513 7.248-1.51 9.994 0v7.47s.17 2.4-2.154 4.423z"/></mask><path d="M5.843 75.027l.657.754-.657-.754zM3.008 77l-.433.901.442.213.439-.22L3.008 77zm-2.85-1.96l-.656.755.657-.754zm-2.155-4.427l.997.07.003-.035v-.035h-1zm0-7.479l-.482-.876-.518.285v.591h1zm9.994 0h1v-.592l-.518-.285-.482.876zm0 7.47h-1v.036l.003.035.997-.07zm-2.81 3.668a15.505 15.505 0 01-1.86 1.386 12.24 12.24 0 01-.725.426l-.035.019-.007.003.448.894.448.894h.001l.002-.001.005-.003.017-.008a6.026 6.026 0 00.247-.134c.163-.09.393-.224.67-.4A17.511 17.511 0 006.5 75.78l-1.313-1.509zM3.008 77l.434-.901h.001l-.007-.003A3.896 3.896 0 013.253 76a11.194 11.194 0 01-.575-.335 14.63 14.63 0 01-1.863-1.379l-1.313 1.509c.804.7 1.562 1.221 2.12 1.568a13.37 13.37 0 00.927.526l.017.008.006.003h.002v.001L3.009 77zM.815 74.287c-.996-.869-1.443-1.8-1.646-2.499a4.283 4.283 0 01-.16-.847 2.755 2.755 0 01-.008-.263v-.004a.217.217 0 010 .006v.002l-.998-.069-.998-.069v.009a1.503 1.503 0 00-.003.05L-3 70.72c0 .095.003.223.016.38.025.315.087.747.233 1.248.293 1.009.925 2.291 2.253 3.448l1.313-1.508zm-2.812-3.674h1v-7.479h-2v7.479h1zm.482-6.603C-.325 63.356 1.31 63 3 63c1.692 0 3.326.356 4.514 1.01l.964-1.753C6.921 61.4 4.933 61 3.001 61s-3.92.4-5.48 1.258l.964 1.752zm8.512-.877v7.471h2v-7.471h-2zm1 7.471l-.997.07a.274.274 0 010-.008v.047c0 .045-.001.12-.01.219a4.27 4.27 0 01-.159.846c-.202.697-.648 1.627-1.644 2.494l1.313 1.51c1.328-1.156 1.959-2.438 2.252-3.446.146-.5.207-.932.232-1.246a4.744 4.744 0 00.011-.547v-.008l-.998.07z" fill="#CDCDD8" mask="url(#path-53-outside-18)"/><path d="M35.013 81l.209.454h.002l.006-.003.02-.01a10.368 10.368 0 00.362-.179c.245-.125.595-.312 1.02-.559.85-.493 2.005-1.23 3.229-2.206h0c1.945-1.552 2.859-3.26 3.282-4.595.211-.666.3-1.235.335-1.643a5.514 5.514 0 00.018-.655v-11.25l-.275-.139c-2.285-1.152-5.266-1.715-8.219-1.715-2.953 0-5.935.563-8.223 1.717l-.275.139v11.261l-.001.036a5.543 5.543 0 00.02.62c.035.408.123.978.335 1.644.424 1.337 1.338 3.047 3.284 4.6h0a25.515 25.515 0 003.251 2.205 20.736 20.736 0 001.312.687l.077.035.021.01.006.002.002.001h0l.202-.457zm0 0l.209.454-.205.094-.205-.09.201-.458z" stroke="#CDCDD8"/><mask id="path-56-outside-19" maskUnits="userSpaceOnUse" x="29" y="61" width="12" height="18" fill="#000"><path fill="#fff" d="M29 61h12v18H29z"/><path fill-rule="evenodd" clip-rule="evenodd" d="M37.843 75.027C36.343 76.332 35.008 77 35.008 77s-1.337-.643-2.85-1.96c-2.324-2.024-2.155-4.427-2.155-4.427v-7.479c2.75-1.513 7.248-1.51 9.994 0v7.47s.17 2.4-2.154 4.423z"/></mask><path d="M37.843 75.027l.656.754-.656-.754zM35.008 77l-.433.901.442.213.439-.22-.448-.894zm-2.85-1.96l-.656.755.657-.754zm-2.155-4.427l.997.07.003-.035v-.035h-1zm0-7.479l-.482-.876-.518.285v.591h1zm9.994 0h1v-.592l-.518-.285-.482.876zm0 7.47h-1v.036l.003.035.997-.07zm-2.81 3.668a15.506 15.506 0 01-1.86 1.386 12.262 12.262 0 01-.725.426l-.035.019-.007.003.448.894.448.894h.001l.002-.001.005-.003.017-.008.054-.029a14.282 14.282 0 00.863-.505A17.505 17.505 0 0038.5 75.78l-1.312-1.509zM35.008 77l.434-.901h.001l-.007-.003a3.319 3.319 0 01-.184-.096c-.133-.072-.33-.184-.574-.335a14.631 14.631 0 01-1.863-1.379l-1.313 1.509c.804.7 1.562 1.221 2.12 1.568a13.35 13.35 0 00.928.526l.016.008a.828.828 0 00.006.003h.002v.001l.434-.901zm-2.193-2.713c-.996-.869-1.443-1.8-1.646-2.499a4.28 4.28 0 01-.16-.847c-.008-.1-.01-.175-.009-.22v-.047.008l-.997-.069-.998-.069v.009l-.001.013-.002.038-.002.115c0 .095.003.223.016.38.025.315.087.747.233 1.248.293 1.009.925 2.291 2.253 3.448l1.313-1.508zm-2.812-3.674h1v-7.479h-2v7.479h1zm.482-6.603C31.675 63.356 33.31 63 35 63c1.692 0 3.326.356 4.514 1.01l.964-1.753C38.921 61.4 36.933 61 35.001 61c-1.931 0-3.92.4-5.48 1.258l.964 1.752zm8.512-.877v7.471h2v-7.471h-2zm1 7.471l-.997.07v-.008.047a4.164 4.164 0 01-.169 1.065c-.202.697-.648 1.627-1.644 2.494l1.313 1.51c1.328-1.156 1.959-2.438 2.252-3.446.146-.5.207-.932.232-1.246a4.757 4.757 0 00.012-.533v-.014l-.001-.005v-.003l-.998.07z" fill="#CDCDD8" mask="url(#path-56-outside-19)"/><path d="M67.013 81l.209.454h.003l.005-.003.02-.01a10.368 10.368 0 00.362-.179c.245-.125.595-.312 1.02-.559.85-.493 2.005-1.23 3.229-2.206h0c1.944-1.552 2.859-3.26 3.282-4.595.211-.666.3-1.235.335-1.643a5.514 5.514 0 00.018-.655v-11.25l-.275-.139c-2.285-1.152-5.266-1.715-8.219-1.715-2.953 0-5.935.563-8.223 1.717l-.275.139v11.261l-.001.036a5.543 5.543 0 00.02.62c.035.408.123.978.334 1.644.425 1.337 1.34 3.047 3.285 4.6h0a25.515 25.515 0 003.251 2.205 20.736 20.736 0 001.312.687l.077.035.021.01.006.002.002.001h0l.202-.457zm0 0l.209.454-.204.094-.206-.09.201-.458z" stroke="#CDCDD8"/><mask id="path-59-outside-20" maskUnits="userSpaceOnUse" x="61" y="61" width="12" height="18" fill="#000"><path fill="#fff" d="M61 61h12v18H61z"/><path fill-rule="evenodd" clip-rule="evenodd" d="M69.843 75.027C68.343 76.332 67.008 77 67.008 77s-1.337-.643-2.85-1.96c-2.324-2.024-2.155-4.427-2.155-4.427v-7.479c2.75-1.513 7.248-1.51 9.994 0v7.47s.17 2.4-2.154 4.423z"/></mask><path d="M69.843 75.027l.656.754-.656-.754zM67.008 77l-.433.901.442.213.439-.22-.448-.894zm-2.85-1.96l-.656.755.657-.754zm-2.155-4.427l.997.07.003-.035v-.035h-1zm0-7.479l-.482-.876-.518.285v.591h1zm9.994 0h1v-.592l-.518-.285-.482.876zm0 7.47h-1v.036l.003.035.997-.07zm-2.81 3.668a15.506 15.506 0 01-1.86 1.386 12.262 12.262 0 01-.725.426l-.035.019-.007.003.448.894.448.894h.001l.002-.001.005-.003.017-.008.054-.029a14.282 14.282 0 00.863-.505A17.505 17.505 0 0070.5 75.78l-1.313-1.509zM67.008 77l.434-.901h.001l-.007-.003a3.319 3.319 0 01-.184-.096c-.133-.072-.33-.184-.574-.335a14.631 14.631 0 01-1.863-1.379l-1.313 1.509c.804.7 1.562 1.221 2.12 1.568a13.35 13.35 0 00.927.526l.017.008a.828.828 0 00.006.003h.002v.001l.434-.901zm-2.193-2.713c-.996-.869-1.443-1.8-1.646-2.499a4.28 4.28 0 01-.16-.847c-.008-.1-.01-.175-.009-.22v-.047.008l-.997-.069-.998-.069v.009l-.001.013-.002.038-.002.115c0 .095.003.223.016.38.025.315.087.747.233 1.248.293 1.009.925 2.291 2.253 3.448l1.313-1.508zm-2.812-3.674h1v-7.479h-2v7.479h1zm.482-6.603C63.675 63.356 65.31 63 67 63c1.692 0 3.326.356 4.514 1.01l.964-1.753C70.921 61.4 68.933 61 67.001 61c-1.931 0-3.92.4-5.48 1.258l.964 1.752zm8.512-.877v7.471h2v-7.471h-2zm1 7.471l-.997.07v-.008.047a4.22 4.22 0 01-.168 1.065c-.203.697-.65 1.627-1.645 2.494l1.313 1.51c1.328-1.156 1.959-2.438 2.252-3.446.146-.5.207-.932.232-1.246a4.757 4.757 0 00.012-.533v-.014l-.001-.005v-.003l-.998.07z" fill="#CDCDD8" mask="url(#path-59-outside-20)"/><path d="M99.013 81l.209.454h.003l.005-.003.02-.01a10.368 10.368 0 00.362-.179c.245-.125.595-.312 1.02-.559a26.9 26.9 0 003.229-2.206h0c1.945-1.552 2.859-3.26 3.282-4.595.211-.666.3-1.235.335-1.643a5.482 5.482 0 00.019-.62l-.001-.035v-11.25l-.275-.139c-2.286-1.152-5.266-1.715-8.219-1.715-2.953 0-5.935.563-8.223 1.717l-.275.139v11.261l-.001.036a5.543 5.543 0 00.02.62c.035.408.123.978.335 1.644.424 1.337 1.338 3.047 3.284 4.6h0a25.515 25.515 0 003.251 2.205 20.736 20.736 0 001.312.687l.077.035.021.01.006.002.002.001h0l.202-.457zm0 0l.209.454-.204.094-.206-.09.201-.458z" stroke="#CDCDD8"/><mask id="path-62-outside-21" maskUnits="userSpaceOnUse" x="93" y="61" width="12" height="18" fill="#000"><path fill="#fff" d="M93 61h12v18H93z"/><path fill-rule="evenodd" clip-rule="evenodd" d="M101.843 75.027c-1.5 1.305-2.835 1.973-2.835 1.973s-1.337-.643-2.85-1.96c-2.324-2.024-2.155-4.427-2.155-4.427v-7.479c2.75-1.513 7.248-1.51 9.994 0v7.47s.17 2.4-2.154 4.423z"/></mask><path d="M101.843 75.027l.657.754-.657-.754zM99.008 77l-.433.901.442.213.439-.22-.448-.894zm-2.85-1.96l-.656.755.657-.754zm-2.155-4.427l.997.07.003-.035v-.035h-1zm0-7.479l-.482-.876-.518.285v.591h1zm9.994 0h1v-.592l-.518-.285-.482.876zm0 7.47h-1v.036l.003.035.997-.07zm-2.81 3.668a15.546 15.546 0 01-1.86 1.386 12.262 12.262 0 01-.725.426l-.035.019-.007.003.448.894.448.894h.001l.002-.001.005-.003.017-.008.054-.029a14.032 14.032 0 00.863-.505 17.584 17.584 0 002.102-1.567l-1.313-1.509zM99.008 77l.434-.901h.001l-.007-.003a3.319 3.319 0 01-.184-.096c-.133-.072-.33-.184-.574-.335a14.631 14.631 0 01-1.863-1.379l-1.313 1.509c.804.7 1.562 1.221 2.12 1.568a13.35 13.35 0 00.927.526l.017.008a.828.828 0 00.006.003h.002v.001l.434-.901zm-2.193-2.713c-.996-.869-1.443-1.8-1.646-2.499a4.28 4.28 0 01-.16-.847c-.008-.1-.01-.175-.009-.22v-.047.008l-.997-.069-.998-.069v.009l-.001.013-.002.038-.002.115c0 .095.003.223.016.38.025.315.087.747.233 1.248.293 1.009.925 2.291 2.253 3.448l1.313-1.508zm-2.812-3.674h1v-7.479h-2v7.479h1zm.482-6.603C95.675 63.356 97.31 63 99 63c1.692 0 3.326.356 4.514 1.01l.964-1.753C102.921 61.4 100.933 61 99.001 61c-1.931 0-3.92.4-5.48 1.258l.964 1.752zm8.512-.877v7.471h2v-7.471h-2zm1 7.471l-.997.07-.001-.003v-.005.003a2.683 2.683 0 01-.008.263 4.251 4.251 0 01-.16.846c-.202.697-.648 1.627-1.644 2.494l1.313 1.51c1.328-1.156 1.959-2.438 2.252-3.446.146-.5.207-.932.232-1.246a4.596 4.596 0 00.014-.496l-.002-.037-.001-.014v-.008l-.998.07z" fill="#CDCDD8" mask="url(#path-62-outside-21)"/><path d="M131.013 81l.209.454h.002l.006-.003.021-.01.077-.037.284-.142c.245-.125.595-.312 1.02-.559a26.9 26.9 0 003.229-2.206h0c1.945-1.552 2.859-3.26 3.282-4.595.211-.666.3-1.235.335-1.643a5.482 5.482 0 00.019-.62l-.001-.035v-11.25l-.275-.139c-2.286-1.152-5.266-1.715-8.219-1.715-2.953 0-5.935.563-8.223 1.717l-.275.139v11.261l-.001.036a5.496 5.496 0 00.019.62c.036.408.124.978.335 1.644.425 1.337 1.339 3.047 3.285 4.6h0a25.494 25.494 0 003.251 2.205 20.38 20.38 0 001.389.722l.021.01.006.002.002.001h.001l.201-.457zm0 0l.209.454-.205.094-.205-.09.201-.458z" stroke="#CDCDD8"/><mask id="path-65-outside-22" maskUnits="userSpaceOnUse" x="125" y="61" width="12" height="18" fill="#000"><path fill="#fff" d="M125 61h12v18h-12z"/><path fill-rule="evenodd" clip-rule="evenodd" d="M133.843 75.027c-1.5 1.305-2.835 1.973-2.835 1.973s-1.337-.643-2.849-1.96c-2.325-2.024-2.156-4.427-2.156-4.427v-7.479c2.749-1.513 7.248-1.51 9.994 0v7.47s.17 2.4-2.154 4.423z"/></mask><path d="M133.843 75.027l.657.754-.657-.754zM131.008 77l-.433.901.442.213.439-.22-.448-.894zm-2.849-1.96l-.657.755.657-.754zm-2.156-4.427l.997.07.003-.035v-.035h-1zm0-7.479l-.482-.876-.518.285v.591h1zm9.994 0h1v-.592l-.518-.285-.482.876zm0 7.47h-1v.036l.003.035.997-.07zm-2.81 3.668a15.562 15.562 0 01-1.859 1.386c-.244.154-.441.27-.576.344-.067.038-.118.065-.15.082l-.035.019-.007.003h-.001.002l.447.894.448.894h.001l.002-.001.005-.003.017-.008.054-.029a14.032 14.032 0 00.863-.505 17.584 17.584 0 002.102-1.567l-1.313-1.509zM131.008 77l.434-.901h.001l-.007-.003-.034-.017a11.339 11.339 0 01-.724-.414 14.638 14.638 0 01-1.863-1.379l-1.313 1.509c.804.7 1.562 1.221 2.121 1.568a13.227 13.227 0 00.871.498l.055.028.017.008a.052.052 0 00.006.003h.002v.001h.001l.433-.901zm-2.193-2.713c-.996-.869-1.443-1.8-1.646-2.499a4.333 4.333 0 01-.16-.847 3.257 3.257 0 01-.009-.22l.001-.043v-.004.006l-.001.001v.001l-.997-.069-.998-.069v.009l-.001.013-.002.038-.002.115c0 .095.003.223.016.38.025.315.087.747.233 1.248.293 1.009.925 2.291 2.253 3.448l1.313-1.508zm-2.812-3.674h1v-7.479h-2v7.479h1zm.482-6.603c1.19-.654 2.825-1.01 4.516-1.01 1.692 0 3.326.356 4.514 1.01l.964-1.753C134.921 61.4 132.933 61 131.001 61s-3.921.4-5.48 1.258l.964 1.752zm8.512-.877v7.471h2v-7.471h-2zm1 7.471l-.997.07-.001-.003v-.005.003a2.683 2.683 0 01-.008.263 4.251 4.251 0 01-.16.846c-.202.697-.648 1.627-1.644 2.494l1.313 1.51c1.328-1.156 1.959-2.438 2.252-3.446.146-.5.207-.932.232-1.246a4.596 4.596 0 00.014-.496l-.002-.037-.001-.014v-.008l-.998.07z" fill="#CDCDD8" mask="url(#path-65-outside-22)"/><path d="M163.013 81l.209.454h.002l.006-.003.021-.01.077-.037.284-.142c.245-.125.595-.312 1.02-.559a26.9 26.9 0 003.229-2.206h0c1.945-1.552 2.859-3.26 3.282-4.595.211-.666.3-1.235.335-1.643a5.482 5.482 0 00.019-.62l-.001-.035v-11.25l-.275-.139c-2.286-1.152-5.266-1.715-8.219-1.715-2.953 0-5.935.563-8.223 1.717l-.275.139v11.261l-.001.036a5.496 5.496 0 00.019.62c.036.408.124.978.335 1.644.425 1.337 1.339 3.047 3.285 4.6h0a25.494 25.494 0 003.251 2.205 20.38 20.38 0 001.389.722l.021.01.006.002.002.001h.001l.201-.457zm0 0l.209.454-.205.094-.205-.09.201-.458z" stroke="#CDCDD8"/><mask id="path-68-outside-23" maskUnits="userSpaceOnUse" x="157" y="61" width="12" height="18" fill="#000"><path fill="#fff" d="M157 61h12v18h-12z"/><path fill-rule="evenodd" clip-rule="evenodd" d="M165.843 75.027c-1.5 1.305-2.835 1.973-2.835 1.973s-1.337-.643-2.849-1.96c-2.325-2.024-2.156-4.427-2.156-4.427v-7.479c2.749-1.513 7.248-1.51 9.994 0v7.47s.17 2.4-2.154 4.423z"/></mask><path d="M165.843 75.027l.657.754-.657-.754zM163.008 77l-.433.901.442.213.439-.22-.448-.894zm-2.849-1.96l-.657.755.657-.754zm-2.156-4.427l.997.07.003-.035v-.035h-1zm0-7.479l-.482-.876-.518.285v.591h1zm9.994 0h1v-.592l-.518-.285-.482.876zm0 7.47h-1v.036l.003.035.997-.07zm-2.81 3.668a15.562 15.562 0 01-1.859 1.386c-.244.154-.441.27-.576.344-.067.038-.118.065-.15.082l-.035.019-.007.003h-.001.002l.447.894.448.894h.001l.002-.001.005-.003.017-.008.054-.029a14.032 14.032 0 00.863-.505 17.584 17.584 0 002.102-1.567l-1.313-1.509zM163.008 77l.434-.901h.001l-.007-.003-.034-.017a11.339 11.339 0 01-.724-.414 14.638 14.638 0 01-1.863-1.379l-1.313 1.509c.804.7 1.562 1.221 2.121 1.568a13.227 13.227 0 00.871.498l.055.028.017.008a.052.052 0 00.006.003h.002v.001h.001l.433-.901zm-2.193-2.713c-.996-.869-1.443-1.8-1.646-2.499a4.333 4.333 0 01-.16-.847 3.257 3.257 0 01-.009-.22l.001-.043v-.004.006l-.001.001v.001l-.997-.069-.998-.069v.009l-.001.013-.002.038-.002.115c0 .095.003.223.016.38.025.315.087.747.233 1.248.293 1.009.925 2.291 2.253 3.448l1.313-1.508zm-2.812-3.674h1v-7.479h-2v7.479h1zm.482-6.603c1.19-.654 2.825-1.01 4.516-1.01 1.692 0 3.326.356 4.514 1.01l.964-1.753C166.921 61.4 164.933 61 163.001 61s-3.921.4-5.48 1.258l.964 1.752zm8.512-.877v7.471h2v-7.471h-2zm1 7.471l-.997.07-.001-.003v-.005.003a2.683 2.683 0 01-.008.263 4.251 4.251 0 01-.16.846c-.202.697-.648 1.627-1.644 2.494l1.313 1.51c1.328-1.156 1.959-2.438 2.252-3.446.146-.5.207-.932.232-1.246a4.596 4.596 0 00.014-.496l-.002-.037-.001-.014v-.008l-.998.07z" fill="#CDCDD8" mask="url(#path-68-outside-23)"/><path d="M195.013 81l.209.454h.002l.006-.003.021-.01.077-.037.284-.142c.245-.125.595-.312 1.02-.559a26.9 26.9 0 003.229-2.206h0c1.945-1.552 2.859-3.26 3.282-4.595.211-.666.3-1.235.335-1.643a5.482 5.482 0 00.019-.62l-.001-.035v-11.25l-.275-.139c-2.286-1.152-5.266-1.715-8.219-1.715-2.953 0-5.935.563-8.223 1.717l-.275.139v11.261l-.001.036a5.496 5.496 0 00.019.62c.036.408.124.978.335 1.644.425 1.337 1.339 3.047 3.285 4.6h0a25.494 25.494 0 003.251 2.205 20.38 20.38 0 001.389.722l.021.01.006.002.002.001h.001l.201-.457zm0 0l.209.454-.205.094-.205-.09.201-.458z" stroke="#CDCDD8"/><mask id="path-71-outside-24" maskUnits="userSpaceOnUse" x="189" y="61" width="12" height="18" fill="#000"><path fill="#fff" d="M189 61h12v18h-12z"/><path fill-rule="evenodd" clip-rule="evenodd" d="M197.843 75.027c-1.5 1.305-2.835 1.973-2.835 1.973s-1.337-.643-2.849-1.96c-2.325-2.024-2.156-4.427-2.156-4.427v-7.479c2.749-1.513 7.248-1.51 9.994 0v7.47s.17 2.4-2.154 4.423z"/></mask><path d="M197.843 75.027l.657.754-.657-.754zM195.008 77l-.433.901.442.213.439-.22-.448-.894zm-2.849-1.96l-.657.755.657-.754zm-2.156-4.427l.997.07.003-.035v-.035h-1zm0-7.479l-.482-.876-.518.285v.591h1zm9.994 0h1v-.592l-.518-.285-.482.876zm0 7.47h-1v.036l.003.035.997-.07zm-2.81 3.668a15.562 15.562 0 01-1.859 1.386c-.244.154-.441.27-.576.344-.067.038-.118.065-.15.082l-.035.019-.007.003h-.001.002l.447.894.448.894h.001l.002-.001.005-.003.017-.008.054-.029a14.032 14.032 0 00.863-.505 17.584 17.584 0 002.102-1.567l-1.313-1.509zM195.008 77l.434-.901h.001l-.007-.003-.034-.017a11.339 11.339 0 01-.724-.414 14.638 14.638 0 01-1.863-1.379l-1.313 1.509c.804.7 1.562 1.221 2.121 1.568a13.227 13.227 0 00.871.498l.055.028.017.008a.052.052 0 00.006.003h.002v.001h.001l.433-.901zm-2.193-2.713c-.996-.869-1.443-1.8-1.646-2.499a4.333 4.333 0 01-.16-.847 3.257 3.257 0 01-.009-.22l.001-.043v-.004.006l-.001.001v.001l-.997-.069-.998-.069v.009l-.001.013-.002.038-.002.115c0 .095.003.223.016.38.025.315.087.747.233 1.248.293 1.009.925 2.291 2.253 3.448l1.313-1.508zm-2.812-3.674h1v-7.479h-2v7.479h1zm.482-6.603c1.19-.654 2.825-1.01 4.516-1.01 1.692 0 3.326.356 4.514 1.01l.964-1.753C198.921 61.4 196.933 61 195.001 61s-3.921.4-5.48 1.258l.964 1.752zm8.512-.877v7.471h2v-7.471h-2zm1 7.471l-.997.07-.001-.003v-.005.003a2.683 2.683 0 01-.008.263 4.251 4.251 0 01-.16.846c-.202.697-.648 1.627-1.644 2.494l1.313 1.51c1.328-1.156 1.959-2.438 2.252-3.446.146-.5.207-.932.232-1.246a4.596 4.596 0 00.014-.496l-.002-.037-.001-.014v-.008l-.998.07z" fill="#CDCDD8" mask="url(#path-71-outside-24)"/><path d="M227.013 81l.209.454h.002l.006-.003.021-.01.077-.037.284-.142c.245-.125.595-.312 1.02-.559a26.9 26.9 0 003.229-2.206h0c1.945-1.552 2.859-3.26 3.282-4.595.211-.666.3-1.235.335-1.643a5.482 5.482 0 00.019-.62l-.001-.035v-11.25l-.275-.139c-2.286-1.152-5.266-1.715-8.219-1.715-2.953 0-5.935.563-8.223 1.717l-.275.139v11.261l-.001.036a5.496 5.496 0 00.019.62c.036.408.124.978.335 1.644.425 1.337 1.339 3.047 3.285 4.6h0a25.494 25.494 0 003.251 2.205 20.38 20.38 0 001.389.722l.021.01.006.002.002.001h.001l.201-.457zm0 0l.209.454-.205.094-.205-.09.201-.458z" stroke="#CDCDD8"/><mask id="path-74-outside-25" maskUnits="userSpaceOnUse" x="221" y="61" width="12" height="18" fill="#000"><path fill="#fff" d="M221 61h12v18h-12z"/><path fill-rule="evenodd" clip-rule="evenodd" d="M229.843 75.027c-1.5 1.305-2.835 1.973-2.835 1.973s-1.337-.643-2.849-1.96c-2.325-2.024-2.156-4.427-2.156-4.427v-7.479c2.749-1.513 7.248-1.51 9.994 0v7.47s.17 2.4-2.154 4.423z"/></mask><path d="M229.843 75.027l.657.754-.657-.754zM227.008 77l-.433.901.442.213.439-.22-.448-.894zm-2.849-1.96l-.657.755.657-.754zm-2.156-4.427l.997.07.003-.035v-.035h-1zm0-7.479l-.482-.876-.518.285v.591h1zm9.994 0h1v-.592l-.518-.285-.482.876zm0 7.47h-1v.036l.003.035.997-.07zm-2.81 3.668a15.562 15.562 0 01-1.859 1.386c-.244.154-.441.27-.576.344-.067.038-.118.065-.15.082l-.035.019-.007.003h-.001.002l.447.894.448.894h.001l.002-.001.005-.003.017-.008.054-.029a14.032 14.032 0 00.863-.505 17.584 17.584 0 002.102-1.567l-1.313-1.509zM227.008 77l.434-.901h.001l-.007-.003-.034-.017a11.339 11.339 0 01-.724-.414 14.638 14.638 0 01-1.863-1.379l-1.313 1.509c.804.7 1.562 1.221 2.121 1.568a13.227 13.227 0 00.871.498l.055.028.017.008a.052.052 0 00.006.003h.002v.001h.001l.433-.901zm-2.193-2.713c-.996-.869-1.443-1.8-1.646-2.499a4.333 4.333 0 01-.16-.847 3.257 3.257 0 01-.009-.22l.001-.043v-.004.006l-.001.001v.001l-.997-.069-.998-.069v.009l-.001.013-.002.038-.002.115c0 .095.003.223.016.38.025.315.087.747.233 1.248.293 1.009.925 2.291 2.253 3.448l1.313-1.508zm-2.812-3.674h1v-7.479h-2v7.479h1zm.482-6.603c1.19-.654 2.825-1.01 4.516-1.01 1.692 0 3.326.356 4.514 1.01l.964-1.753C230.921 61.4 228.933 61 227.001 61s-3.921.4-5.48 1.258l.964 1.752zm8.512-.877v7.471h2v-7.471h-2zm1 7.471l-.997.07-.001-.003v-.005.003a2.683 2.683 0 01-.008.263 4.251 4.251 0 01-.16.846c-.202.697-.648 1.627-1.644 2.494l1.313 1.51c1.328-1.156 1.959-2.438 2.252-3.446.146-.5.207-.932.232-1.246a4.596 4.596 0 00.014-.496l-.002-.037-.001-.014v-.008l-.998.07z" fill="#CDCDD8" mask="url(#path-74-outside-25)"/><path d="M259.013 81l.209.454h.002l.006-.003.021-.01.077-.037.284-.142c.245-.125.595-.312 1.02-.559a26.9 26.9 0 003.229-2.206h0c1.945-1.552 2.859-3.26 3.282-4.595.211-.666.3-1.235.335-1.643a5.482 5.482 0 00.019-.62l-.001-.035v-11.25l-.275-.139c-2.286-1.152-5.266-1.715-8.219-1.715-2.953 0-5.935.563-8.223 1.717l-.275.139v11.261l-.001.036a5.496 5.496 0 00.019.62c.036.408.124.978.335 1.644.425 1.337 1.339 3.047 3.285 4.6h0a25.494 25.494 0 003.251 2.205 20.38 20.38 0 001.389.722l.021.01.006.002.002.001h.001l.201-.457zm0 0l.209.454-.205.094-.205-.09.201-.458z" stroke="#CDCDD8"/><mask id="path-77-outside-26" maskUnits="userSpaceOnUse" x="253" y="61" width="12" height="18" fill="#000"><path fill="#fff" d="M253 61h12v18h-12z"/><path fill-rule="evenodd" clip-rule="evenodd" d="M261.843 75.027c-1.5 1.305-2.835 1.973-2.835 1.973s-1.337-.643-2.849-1.96c-2.325-2.024-2.156-4.427-2.156-4.427v-7.479c2.749-1.513 7.248-1.51 9.994 0v7.47s.17 2.4-2.154 4.423z"/></mask><path d="M261.843 75.027l.657.754-.657-.754zM259.008 77l-.433.901.442.213.439-.22-.448-.894zm-2.849-1.96l-.657.755.657-.754zm-2.156-4.427l.997.07.003-.035v-.035h-1zm0-7.479l-.482-.876-.518.285v.591h1zm9.994 0h1v-.592l-.518-.285-.482.876zm0 7.47h-1v.036l.003.035.997-.07zm-2.81 3.668a15.562 15.562 0 01-1.859 1.386c-.244.154-.441.27-.576.344-.067.038-.118.065-.15.082l-.035.019-.007.003h-.001.002l.447.894.448.894h.001l.002-.001.005-.003.017-.008.054-.029a14.032 14.032 0 00.863-.505 17.584 17.584 0 002.102-1.567l-1.313-1.509zM259.008 77l.434-.901h.001l-.007-.003-.034-.017a11.339 11.339 0 01-.724-.414 14.638 14.638 0 01-1.863-1.379l-1.313 1.509c.804.7 1.562 1.221 2.121 1.568a13.227 13.227 0 00.871.498l.055.028.017.008a.052.052 0 00.006.003h.002v.001h.001l.433-.901zm-2.193-2.713c-.996-.869-1.443-1.8-1.646-2.499a4.333 4.333 0 01-.16-.847 3.257 3.257 0 01-.009-.22l.001-.043v-.004.006l-.001.001v.001l-.997-.069-.998-.069v.009l-.001.013-.002.038-.002.115c0 .095.003.223.016.38.025.315.087.747.233 1.248.293 1.009.925 2.291 2.253 3.448l1.313-1.508zm-2.812-3.674h1v-7.479h-2v7.479h1zm.482-6.603c1.19-.654 2.825-1.01 4.516-1.01 1.692 0 3.326.356 4.514 1.01l.964-1.753C262.921 61.4 260.933 61 259.001 61s-3.921.4-5.48 1.258l.964 1.752zm8.512-.877v7.471h2v-7.471h-2zm1 7.471l-.997.07-.001-.003v-.005.003l.001.044c0 .045-.001.12-.009.219a4.251 4.251 0 01-.16.846c-.202.697-.648 1.627-1.644 2.494l1.313 1.51c1.328-1.156 1.959-2.438 2.252-3.446.146-.5.207-.932.232-1.246a4.596 4.596 0 00.014-.496l-.002-.037-.001-.014v-.008l-.998.07z" fill="#CDCDD8" mask="url(#path-77-outside-26)"/><path d="M19.013 115l.209.454h0l.002-.001.006-.002.02-.01.078-.037a21.927 21.927 0 001.304-.701 26.83 26.83 0 003.229-2.206h0c1.944-1.552 2.859-3.26 3.282-4.595.211-.666.3-1.235.335-1.643a5.52 5.52 0 00.018-.655v-11.25l-.275-.138c-2.285-1.152-5.266-1.716-8.219-1.716-2.953 0-5.935.563-8.223 1.717l-.275.139v11.261l-.001.036a5.539 5.539 0 00.02.62c.035.408.123.978.335 1.644.424 1.337 1.338 3.047 3.284 4.6h0a25.524 25.524 0 003.251 2.205 20.976 20.976 0 001.312.687l.077.035.021.01.006.002.002.001h0l.202-.457zm0 0l.209.454-.205.094-.205-.09.201-.458z" stroke="#CDCDD8"/><mask id="path-80-outside-27" maskUnits="userSpaceOnUse" x="13" y="95" width="12" height="18" fill="#000"><path fill="#fff" d="M13 95h12v18H13z"/><path fill-rule="evenodd" clip-rule="evenodd" d="M21.843 109.027c-1.5 1.305-2.835 1.973-2.835 1.973s-1.337-.643-2.85-1.959c-2.324-2.025-2.155-4.428-2.155-4.428v-7.479c2.75-1.513 7.248-1.51 9.994 0v7.47s.17 2.4-2.154 4.423z"/></mask><path d="M21.843 109.027l.657.754-.657-.754zM19.008 111l-.433.901.442.213.439-.22-.448-.894zm-2.85-1.959l-.656.754.657-.754zm-2.155-4.428l.997.07.003-.035v-.035h-1zm0-7.479l-.482-.876-.518.285v.591h1zm9.994 0h1v-.592l-.518-.285-.482.876zm0 7.47h-1v.036l.003.035.997-.071zm-2.81 3.668a15.478 15.478 0 01-1.86 1.386 12.605 12.605 0 01-.725.426l-.035.019-.007.003.448.894.448.894h.001l.002-.001a.042.042 0 01.005-.003l.017-.008.054-.029a13.937 13.937 0 00.863-.505 17.482 17.482 0 002.101-1.567l-1.312-1.509zM19.008 111l.434-.901h.001c0 .001 0 0 0 0l-.007-.003-.034-.017-.15-.079c-.133-.072-.33-.184-.574-.335a14.65 14.65 0 01-1.863-1.379l-1.313 1.509c.804.7 1.562 1.221 2.12 1.568a13.168 13.168 0 00.872.498l.055.028.017.008a.045.045 0 01.006.003l.002.001.434-.901zm-2.193-2.714c-.996-.867-1.443-1.799-1.646-2.498a4.28 4.28 0 01-.16-.847c-.008-.1-.01-.175-.009-.219v-.048.008l-.997-.069-.998-.069v.003a.12.12 0 010 .006l-.001.013-.002.038a4.784 4.784 0 00.014.496c.025.314.087.746.233 1.247.293 1.009.925 2.291 2.253 3.448l1.313-1.509zm-2.812-3.673h1v-7.479h-2v7.479h1zm.482-6.603C15.675 97.356 17.31 97 19 97c1.692 0 3.326.356 4.514 1.01l.964-1.753C22.921 95.4 20.933 95 19.001 95c-1.931 0-3.92.4-5.48 1.258l.964 1.752zm8.512-.877v7.471h2v-7.471h-2zm1 7.471l-.997.07v-.008.047c0 .045-.002.119-.01.219a4.274 4.274 0 01-.159.846c-.202.697-.648 1.627-1.644 2.494l1.313 1.509c1.328-1.156 1.959-2.437 2.252-3.445.146-.501.207-.932.232-1.246a4.753 4.753 0 00.011-.547v-.008l-.998.069z" fill="#CDCDD8" mask="url(#path-80-outside-27)"/><path d="M51.013 115l.209.454h0l.002-.001.006-.002.02-.01.078-.037a21.927 21.927 0 001.304-.701 26.83 26.83 0 003.229-2.206h0c1.945-1.552 2.859-3.26 3.282-4.595.211-.666.3-1.235.335-1.643a5.52 5.52 0 00.018-.655v-11.25l-.275-.138c-2.285-1.152-5.266-1.716-8.219-1.716-2.953 0-5.935.563-8.223 1.717l-.275.139v11.261l-.001.036a5.539 5.539 0 00.02.62c.035.408.123.978.334 1.644.425 1.337 1.34 3.047 3.285 4.6h0a25.524 25.524 0 003.251 2.205 20.976 20.976 0 001.312.687l.077.035.021.01.006.002.002.001h0l.202-.457zm0 0l.209.454-.205.094-.205-.09.201-.458z" stroke="#CDCDD8"/><mask id="path-83-outside-28" maskUnits="userSpaceOnUse" x="45" y="95" width="12" height="18" fill="#000"><path fill="#fff" d="M45 95h12v18H45z"/><path fill-rule="evenodd" clip-rule="evenodd" d="M53.843 109.027c-1.5 1.305-2.835 1.973-2.835 1.973s-1.337-.643-2.85-1.959c-2.324-2.025-2.155-4.428-2.155-4.428v-7.479c2.75-1.513 7.248-1.51 9.994 0v7.47s.17 2.4-2.154 4.423z"/></mask><path d="M53.843 109.027l.656.754-.656-.754zM51.008 111l-.433.901.442.213.439-.22-.448-.894zm-2.85-1.959l-.656.754.657-.754zm-2.155-4.428l.997.07.003-.035v-.035h-1zm0-7.479l-.482-.876-.518.285v.591h1zm9.994 0h1v-.592l-.518-.285-.482.876zm0 7.47h-1v.036l.003.035.997-.071zm-2.81 3.668a15.478 15.478 0 01-1.86 1.386 12.605 12.605 0 01-.725.426l-.035.019-.007.003.448.894.448.894h.001l.002-.001a.042.042 0 01.005-.003l.017-.008.054-.029a13.937 13.937 0 00.863-.505 17.482 17.482 0 002.101-1.567l-1.312-1.509zM51.008 111l.434-.901h.001c0 .001 0 0 0 0l-.007-.003-.034-.017-.15-.079c-.133-.072-.33-.184-.574-.335a14.65 14.65 0 01-1.863-1.379l-1.313 1.509c.804.7 1.562 1.221 2.12 1.568a13.168 13.168 0 00.872.498l.056.028.016.008a.045.045 0 01.006.003l.002.001.434-.901zm-2.193-2.714c-.996-.867-1.443-1.799-1.646-2.498a4.28 4.28 0 01-.16-.847c-.008-.1-.01-.175-.009-.219v-.048.008l-.997-.069-.998-.069v.003a.12.12 0 010 .006l-.001.013-.002.038a4.784 4.784 0 00.014.496c.025.314.087.746.233 1.247.293 1.009.925 2.291 2.253 3.448l1.313-1.509zm-2.812-3.673h1v-7.479h-2v7.479h1zm.482-6.603C47.675 97.356 49.31 97 51 97c1.692 0 3.326.356 4.514 1.01l.964-1.753C54.921 95.4 52.933 95 51.001 95c-1.931 0-3.92.4-5.48 1.258l.964 1.752zm8.512-.877v7.471h2v-7.471h-2zm1 7.471l-.997.07v-.008.047c0 .045-.002.119-.01.219a4.274 4.274 0 01-.159.846c-.202.697-.648 1.627-1.644 2.494l1.313 1.509c1.328-1.156 1.959-2.437 2.252-3.445.146-.501.207-.932.232-1.246a4.753 4.753 0 00.011-.547v-.008l-.998.069z" fill="#CDCDD8" mask="url(#path-83-outside-28)"/><path d="M83.013 115l.209.454h0l.003-.001.005-.002.02-.01.078-.037a21.927 21.927 0 001.304-.701 26.83 26.83 0 003.229-2.206h0c1.944-1.552 2.859-3.26 3.282-4.595.211-.666.3-1.235.335-1.643a5.52 5.52 0 00.018-.655v-11.25l-.275-.138c-2.285-1.152-5.266-1.716-8.219-1.716-2.953 0-5.935.563-8.223 1.717l-.275.139v11.261l-.001.036a5.539 5.539 0 00.02.62c.035.408.123.978.335 1.644.424 1.337 1.338 3.047 3.284 4.6h0a25.524 25.524 0 003.251 2.205 20.976 20.976 0 001.312.687l.077.035.021.01.006.002.002.001h0l.202-.457zm0 0l.209.454-.204.094-.206-.09.201-.458z" stroke="#CDCDD8"/><mask id="path-86-outside-29" maskUnits="userSpaceOnUse" x="77" y="95" width="12" height="18" fill="#000"><path fill="#fff" d="M77 95h12v18H77z"/><path fill-rule="evenodd" clip-rule="evenodd" d="M85.843 109.027c-1.5 1.305-2.835 1.973-2.835 1.973s-1.337-.643-2.85-1.959c-2.324-2.025-2.155-4.428-2.155-4.428v-7.479c2.75-1.513 7.248-1.51 9.994 0v7.47s.17 2.4-2.154 4.423z"/></mask><path d="M85.843 109.027l.656.754-.656-.754zM83.008 111l-.433.901.442.213.439-.22-.448-.894zm-2.85-1.959l-.656.754.657-.754zm-2.155-4.428l.997.07.003-.035v-.035h-1zm0-7.479l-.482-.876-.518.285v.591h1zm9.994 0h1v-.592l-.518-.285-.482.876zm0 7.47h-1v.036l.003.035.997-.071zm-2.81 3.668a15.478 15.478 0 01-1.86 1.386 12.605 12.605 0 01-.725.426l-.035.019-.007.003.448.894.448.894h.001l.002-.001a.042.042 0 01.005-.003l.017-.008.054-.029a13.937 13.937 0 00.863-.505 17.482 17.482 0 002.102-1.567l-1.313-1.509zM83.008 111l.434-.901h.001c0 .001 0 0 0 0l-.007-.003-.034-.017-.15-.079c-.133-.072-.33-.184-.574-.335a14.65 14.65 0 01-1.863-1.379l-1.313 1.509c.804.7 1.562 1.221 2.12 1.568a13.168 13.168 0 00.872.498l.055.028.017.008a.045.045 0 01.006.003l.002.001.434-.901zm-2.193-2.714c-.996-.867-1.443-1.799-1.646-2.498a4.28 4.28 0 01-.16-.847c-.008-.1-.01-.175-.009-.219v-.048.008l-.997-.069-.998-.069v.003a.12.12 0 010 .006l-.001.013-.002.038a4.784 4.784 0 00.014.496c.025.314.087.746.233 1.247.293 1.009.925 2.291 2.253 3.448l1.313-1.509zm-2.812-3.673h1v-7.479h-2v7.479h1zm.482-6.603C79.675 97.356 81.31 97 83 97c1.692 0 3.326.356 4.514 1.01l.964-1.753C86.921 95.4 84.933 95 83.001 95c-1.931 0-3.92.4-5.48 1.258l.964 1.752zm8.512-.877v7.471h2v-7.471h-2zm1 7.471l-.997.07v-.008.047c0 .045-.001.119-.01.219a4.274 4.274 0 01-.158.846c-.203.697-.65 1.627-1.645 2.494l1.313 1.509c1.328-1.156 1.959-2.437 2.252-3.445.146-.501.207-.932.232-1.246a4.753 4.753 0 00.012-.533v-.014l-.001-.005v-.003l-.998.069z" fill="#CDCDD8" mask="url(#path-86-outside-29)"/><path d="M115.013 115l.209.454h.001l.001-.001.006-.002.021-.01.077-.037a21.595 21.595 0 001.304-.701c.85-.493 2.005-1.23 3.229-2.206h0c1.945-1.552 2.859-3.26 3.282-4.595.211-.666.3-1.235.335-1.643a5.488 5.488 0 00.019-.62l-.001-.035v-11.25l-.275-.138c-2.286-1.152-5.266-1.716-8.219-1.716-2.953 0-5.935.563-8.223 1.717l-.275.139v11.261l-.001.036a5.492 5.492 0 00.019.62c.036.408.124.978.335 1.644.425 1.337 1.339 3.047 3.285 4.6h0a25.503 25.503 0 003.251 2.205 20.613 20.613 0 001.312.687l.077.035.021.01.006.002.002.001h.001l.201-.457zm0 0l.209.454-.205.094-.205-.09.201-.458z" stroke="#CDCDD8"/><mask id="path-89-outside-30" maskUnits="userSpaceOnUse" x="109" y="95" width="12" height="18" fill="#000"><path fill="#fff" d="M109 95h12v18h-12z"/><path fill-rule="evenodd" clip-rule="evenodd" d="M117.843 109.027c-1.5 1.305-2.835 1.973-2.835 1.973s-1.337-.643-2.849-1.959c-2.325-2.025-2.156-4.428-2.156-4.428v-7.479c2.749-1.513 7.248-1.51 9.994 0v7.47s.17 2.4-2.154 4.423z"/></mask><path d="M117.843 109.027l.657.754-.657-.754zM115.008 111l-.433.901.442.213.439-.22-.448-.894zm-2.849-1.959l-.657.754.657-.754zm-2.156-4.428l.997.07.003-.035v-.035h-1zm0-7.479l-.482-.876-.518.285v.591h1zm9.994 0h1v-.592l-.518-.285-.482.876zm0 7.47h-1v.036l.003.035.997-.071zm-2.81 3.668a15.534 15.534 0 01-1.859 1.386 12.29 12.29 0 01-.576.344c-.067.038-.118.065-.15.082a1.342 1.342 0 00-.035.019l-.007.003h-.001.002l.447.894.448.894h.001l.002-.001.005-.003.017-.008.054-.029a13.699 13.699 0 00.863-.505 17.56 17.56 0 002.102-1.567l-1.313-1.509zM115.008 111l.434-.901h.001c0 .001 0 0 0 0l-.007-.003-.034-.017-.149-.079a11.194 11.194 0 01-.575-.335 14.657 14.657 0 01-1.863-1.379l-1.313 1.509c.804.7 1.562 1.221 2.121 1.568a13.05 13.05 0 00.871.498l.055.028a.31.31 0 01.017.008l.006.003.002.001h.001l.433-.901zm-2.193-2.714c-.996-.867-1.443-1.799-1.646-2.498a4.333 4.333 0 01-.16-.847 3.286 3.286 0 01-.009-.219l.001-.044v-.004.006l-.001.002-.997-.069-.998-.069v.009l-.001.013-.002.038a4.614 4.614 0 00.014.496c.025.314.087.746.233 1.247.293 1.009.925 2.291 2.253 3.448l1.313-1.509zm-2.812-3.673h1v-7.479h-2v7.479h1zm.482-6.603c1.19-.654 2.825-1.01 4.516-1.01 1.692 0 3.326.356 4.514 1.01l.964-1.753C118.921 95.4 116.933 95 115.001 95s-3.921.4-5.48 1.258l.964 1.752zm8.512-.877v7.471h2v-7.471h-2zm1 7.471l-.997.07v-.001l-.001-.002v-.005.003l.001.044c0 .045-.001.119-.009.219a4.251 4.251 0 01-.16.846c-.202.697-.648 1.627-1.644 2.494l1.313 1.509c1.328-1.156 1.959-2.437 2.252-3.445.146-.501.207-.932.232-1.246a4.593 4.593 0 00.014-.496l-.002-.037-.001-.014v-.008l-.998.069z" fill="#CDCDD8" mask="url(#path-89-outside-30)"/><path d="M147.013 115l.209.454h.001l.001-.001.006-.002.021-.01.077-.037a21.595 21.595 0 001.304-.701c.85-.493 2.005-1.23 3.229-2.206h0c1.945-1.552 2.859-3.26 3.282-4.595.211-.666.3-1.235.335-1.643a5.488 5.488 0 00.019-.62l-.001-.035v-11.25l-.275-.138c-2.286-1.152-5.266-1.716-8.219-1.716-2.953 0-5.935.563-8.223 1.717l-.275.139v11.261l-.001.036a5.492 5.492 0 00.019.62c.036.408.124.978.335 1.644.425 1.337 1.339 3.047 3.285 4.6h0a25.503 25.503 0 003.251 2.205 20.613 20.613 0 001.312.687l.077.035.021.01.006.002.002.001h.001l.201-.457zm0 0l.209.454-.205.094-.205-.09.201-.458z" stroke="#CDCDD8"/><mask id="path-92-outside-31" maskUnits="userSpaceOnUse" x="141" y="95" width="12" height="18" fill="#000"><path fill="#fff" d="M141 95h12v18h-12z"/><path fill-rule="evenodd" clip-rule="evenodd" d="M149.843 109.027c-1.5 1.305-2.835 1.973-2.835 1.973s-1.337-.643-2.849-1.959c-2.325-2.025-2.156-4.428-2.156-4.428v-7.479c2.749-1.513 7.248-1.51 9.994 0v7.47s.17 2.4-2.154 4.423z"/></mask><path d="M149.843 109.027l.657.754-.657-.754zM147.008 111l-.433.901.442.213.439-.22-.448-.894zm-2.849-1.959l-.657.754.657-.754zm-2.156-4.428l.997.07.003-.035v-.035h-1zm0-7.479l-.482-.876-.518.285v.591h1zm9.994 0h1v-.592l-.518-.285-.482.876zm0 7.47h-1v.036l.003.035.997-.071zm-2.81 3.668a15.534 15.534 0 01-1.859 1.386 12.29 12.29 0 01-.576.344c-.067.038-.118.065-.15.082a1.342 1.342 0 00-.035.019l-.007.003h-.001.002l.447.894.448.894h.001l.002-.001.005-.003.017-.008.054-.029a13.699 13.699 0 00.863-.505 17.56 17.56 0 002.102-1.567l-1.313-1.509zM147.008 111l.434-.901h.001c0 .001 0 0 0 0l-.007-.003-.034-.017-.149-.079a11.194 11.194 0 01-.575-.335 14.657 14.657 0 01-1.863-1.379l-1.313 1.509c.804.7 1.562 1.221 2.121 1.568a13.05 13.05 0 00.871.498l.055.028a.31.31 0 01.017.008l.006.003.002.001h.001l.433-.901zm-2.193-2.714c-.996-.867-1.443-1.799-1.646-2.498a4.333 4.333 0 01-.16-.847 3.286 3.286 0 01-.009-.219l.001-.044v-.004.006l-.001.002-.997-.069-.998-.069v.009l-.001.013-.002.038a4.614 4.614 0 00.014.496c.025.314.087.746.233 1.247.293 1.009.925 2.291 2.253 3.448l1.313-1.509zm-2.812-3.673h1v-7.479h-2v7.479h1zm.482-6.603c1.19-.654 2.825-1.01 4.516-1.01 1.692 0 3.326.356 4.514 1.01l.964-1.753C150.921 95.4 148.933 95 147.001 95s-3.921.4-5.48 1.258l.964 1.752zm8.512-.877v7.471h2v-7.471h-2zm1 7.471l-.997.07v-.001l-.001-.002v-.005.003l.001.044c0 .045-.001.119-.009.219a4.251 4.251 0 01-.16.846c-.202.697-.648 1.627-1.644 2.494l1.313 1.509c1.328-1.156 1.959-2.437 2.252-3.445.146-.501.207-.932.232-1.246a4.593 4.593 0 00.014-.496l-.002-.037-.001-.014v-.008l-.998.069z" fill="#CDCDD8" mask="url(#path-92-outside-31)"/><path d="M3.013 149l.209.454h0l.002-.001.006-.002.02-.01.078-.037a21.94 21.94 0 001.304-.701 26.83 26.83 0 003.229-2.206h0c1.945-1.552 2.859-3.26 3.282-4.595.211-.666.3-1.235.335-1.643a5.52 5.52 0 00.018-.655v-11.25l-.275-.139c-2.286-1.151-5.266-1.715-8.219-1.715-2.953 0-5.935.563-8.223 1.717l-.275.139v11.261a1.883 1.883 0 00-.004.172c0 .116.004.28.022.484.036.408.124.978.335 1.644.425 1.337 1.34 3.047 3.285 4.6h0a25.527 25.527 0 003.251 2.205 20.975 20.975 0 001.312.687l.077.035.021.01.006.002.002.001h0l.202-.457zm0 0l.209.454-.205.094-.205-.09.201-.458z" stroke="#CDCDD8"/><mask id="path-95-outside-32" maskUnits="userSpaceOnUse" x="-3" y="129" width="12" height="18" fill="#000"><path fill="#fff" d="M-3 129H9v18H-3z"/><path fill-rule="evenodd" clip-rule="evenodd" d="M5.843 143.027C4.343 144.332 3.008 145 3.008 145s-1.337-.643-2.85-1.959c-2.324-2.025-2.155-4.428-2.155-4.428v-7.479c2.75-1.513 7.248-1.511 9.994-.001v7.471s.17 2.4-2.154 4.423z"/></mask><path d="M5.843 143.027l.657.754-.657-.754zM3.008 145l-.433.901.442.213.439-.22-.448-.894zm-2.85-1.959l-.656.754.657-.754zm-2.155-4.428l.997.07.003-.035v-.035h-1zm0-7.479l-.482-.876-.518.285v.591h1zm9.994-.001h1v-.591l-.518-.285-.482.876zm0 7.471h-1v.036l.003.035.997-.071zm-2.81 3.668a15.477 15.477 0 01-1.86 1.386 12.582 12.582 0 01-.725.426l-.035.019-.007.003.448.894.448.894h.001l.002-.001a.038.038 0 01.005-.003l.017-.008.054-.029a13.996 13.996 0 00.863-.505 17.488 17.488 0 002.102-1.567l-1.313-1.509zM3.008 145l.434-.901h.001c0 .001 0 0 0 0a.02.02 0 01-.007-.003l-.034-.017-.15-.079a11.25 11.25 0 01-.574-.335 14.649 14.649 0 01-1.863-1.379l-1.313 1.509c.804.7 1.562 1.221 2.12 1.568a13.188 13.188 0 00.872.498l.055.028.017.008a.042.042 0 01.006.003l.002.001.434-.901zm-2.193-2.714c-.996-.867-1.443-1.799-1.646-2.498a4.282 4.282 0 01-.16-.847 2.775 2.775 0 01-.008-.263v-.004.008l-.998-.069-.998-.069v.009l-.001.013a2.15 2.15 0 00-.004.153c0 .095.003.223.016.381.025.314.087.746.233 1.247.293 1.009.925 2.291 2.253 3.448l1.313-1.509zm-2.812-3.673h1v-7.479h-2v7.479h1zm.482-6.603C-.325 131.356 1.31 131 3 131c1.692 0 3.326.356 4.514 1.009l.964-1.752C6.921 129.4 4.933 129 3.001 129s-3.92.4-5.48 1.258l.964 1.752zm8.512-.877v7.471h2v-7.471h-2zm1 7.471l-.997.07v-.005.044c0 .045-.001.119-.01.219a4.276 4.276 0 01-.159.846c-.202.697-.648 1.627-1.644 2.494l1.313 1.509c1.328-1.156 1.959-2.437 2.252-3.445.146-.501.207-.932.232-1.246a4.74 4.74 0 00.012-.533v-.014l-.001-.005v-.003l-.998.069z" fill="#CDCDD8" mask="url(#path-95-outside-32)"/></g></svg>