<svg width="235" height="201" fill="none" xmlns="http://www.w3.org/2000/svg"><path d="M141.884 198.289l.012.01.013.01c1.938 1.451 4.019 2.191 6.233 2.191 2.608 0 4.889-.471 6.828-1.433 14.24-5.133 26.391-12.482 36.444-22.054 10.274-9.56 18.568-20.173 24.877-31.84 6.304-11.657 10.857-23.897 13.659-36.721 3.032-12.81 4.55-25.045 4.55-36.704 0-7.929-.701-15.626-2.102-23.092-1.172-6.548-3.163-12.748-5.975-18.598-2.816-5.857-6.454-11.016-10.917-15.471-4.469-4.463-9.76-7.869-15.868-10.216C193.748 1.786 186.933.5 179.205.5c-7.501 0-14.428 1.287-20.773 3.867-6.34 2.346-11.864 5.75-16.567 10.21h0l-.009.01c-4.466 4.459-7.991 9.622-10.575 15.486l-.003.008-.004.008c-2.351 5.87-3.526 12.09-3.526 18.657 0 7.027 1.173 13.594 3.524 19.696l.003.008.003.008c2.583 6.097 6.109 11.38 10.578 15.841h0l.009.01c4.701 4.46 10.223 7.977 16.559 10.555 6.348 2.583 13.277 3.87 20.781 3.87h2.155l.06-.014a6.25 6.25 0 001.466-.548c-.105 7.273-1.373 14.442-3.805 21.508l-.003.009a80.637 80.637 0 01-9.713 20.089h0l-.007.011a89.126 89.126 0 01-13.883 16.983v-.001l-.008.008c-5.094 5.088-10.417 9.362-15.966 12.825l-.235.147v19.794c0 4.203.809 7.196 2.618 8.744zm-127.248 0l.012.01.013.01c1.948 1.459 4.147 2.191 6.582 2.191 2.384 0 4.547-.474 6.479-1.433 14.24-5.133 26.39-12.482 36.444-22.054 10.274-9.56 18.568-20.173 24.877-31.84 6.303-11.656 10.857-23.897 13.659-36.72 3.032-12.81 4.55-25.046 4.55-36.705 0-7.928-.701-15.626-2.103-23.092-1.171-6.548-3.162-12.748-5.974-18.598-2.816-5.857-6.455-11.016-10.917-15.471-4.47-4.463-9.76-7.869-15.868-10.216C66.5 1.786 59.684.5 51.956.5c-7.5 0-14.427 1.287-20.773 3.867-6.34 2.346-11.863 5.75-16.566 10.21h0l-.01.01c-4.465 4.459-7.99 9.622-10.574 15.486l-.004.008-.003.008C1.675 35.959.5 42.179.5 48.746c0 7.027 1.173 13.594 3.524 19.696l.003.008.003.008c2.583 6.097 6.109 11.38 10.577 15.841h0l.01.01c4.7 4.46 10.222 7.977 16.559 10.555 6.348 2.583 13.276 3.87 20.78 3.87h2.156l.06-.014a6.252 6.252 0 001.465-.548c-.104 7.273-1.372 14.442-3.804 21.508h0l-.003.009a80.642 80.642 0 01-9.713 20.089h0l-.007.011a89.16 89.16 0 01-13.883 16.983v-.001l-.008.008c-5.095 5.088-10.417 9.362-15.966 12.825l-.236.147v19.794c0 4.203.81 7.196 2.619 8.744z" stroke="#E4E4EB"/></svg>