<svg width="11" height="15" fill="none" xmlns="http://www.w3.org/2000/svg"><path d="M5.508 13l.203.457h0l.002-.001.003-.002.013-.005a11.332 11.332 0 00.21-.101 15.379 15.379 0 002.426-1.531h0c1.132-.876 1.671-1.847 1.923-2.616.125-.382.178-.71.199-.948a3.142 3.142 0 00.011-.369V7.87v0-6.277l-.28-.137C8.893.811 7.183.5 5.5.5 3.818.5 2.107.81.783 1.458l-.28.137v6.282l-.001.015-.002.084c0 .07.003.166.013.285.022.238.075.566.2.949.252.77.791 1.741 1.924 2.618h0c.705.546 1.368.951 1.857 1.22a12.018 12.018 0 00.798.404l.013.005.004.002h.001L5.509 13zm0 0l.203.457-.2.088-.2-.085.197-.46z" stroke="#44B64B"/><path d="M5.505 10.818l.218.45h.002l.002-.002.01-.004.03-.016.106-.056a9.777 9.777 0 001.548-1.066h0c.738-.622 1.09-1.313 1.253-1.858a3.295 3.295 0 00.139-.879l-.002-.062v-.008 0-4.362l-.265-.142c-.863-.46-1.968-.676-3.045-.677-1.077 0-2.183.217-3.047.678l-.265.141V7.33l-.002.062a3.301 3.301 0 00.139.88c.164.545.515 1.237 1.253 1.86h0a9.28 9.28 0 001.562 1.063l.108.055.03.015.01.004.003.002h.001l.212-.453zm0 0l.218.45-.214.104-.216-.1.212-.454z" stroke="#44B64B"/></svg>