<svg width="482" height="560" fill="none" xmlns="http://www.w3.org/2000/svg"><mask id="path-1-inside-1" fill="#fff"><path fill-rule="evenodd" clip-rule="evenodd" d="M283.489 158.837V85.64c-57.883-28.904-152.754-28.938-210.718.022v191.88s-3.578 45.983 45.449 84.742c26.065 20.607 49.584 32.235 57.37 36.084l.001.001c1.735.858 2.688 1.329 2.714 1.427-.029-.104 1.139-.704 3.287-1.809 7.668-3.94 27.825-14.298 50.621-31.454a160.34 160.34 0 0048.662 55.54l-.616.502-.003.002-.005.005c-.385.314-.77.629-1.164.942-42.386 33.751-81.192 53.844-95.205 61.099h-.001c-3.614 1.872-5.579 2.889-5.529 3.066-.044-.167-1.651-.967-4.573-2.423l-.001-.001c-13.122-6.537-52.769-26.288-96.705-61.288C-5.568 358.141.462 280.04.462 280.04V36.876c97.706-49.19 257.622-49.134 355.191-.04v95.455c-26.55 2.818-51.152 12.211-72.164 26.546zm88.306 269.979c-75.93 0-137.484-61.871-137.484-138.192s61.554-138.189 137.484-138.189c75.931 0 137.484 61.868 137.484 138.189s-61.553 138.192-137.484 138.192zm-1.509-205.377c-36.916 0-66.844 30.078-66.844 67.185s29.928 67.189 66.844 67.189 66.843-30.082 66.843-67.189c0-37.107-29.927-67.185-66.843-67.185zm126.58 331.148a34.11 34.11 0 0018.45 5.413c11.299-.002 22.364-5.583 28.906-15.806 10.208-15.948 5.555-37.151-10.392-47.357-48.354-30.95-104.384-47.309-162.036-47.309-56.897 0-112.304 15.963-160.236 46.166-16.019 10.094-20.823 31.263-10.728 47.283 10.093 16.018 31.262 20.823 47.283 10.729 36.971-23.297 79.739-35.61 123.682-35.61 44.524 0 87.774 12.618 125.071 36.491z"/></mask><path d="M283.489 85.64h1v-.618l-.553-.277-.447.895zm0 73.197h-1v1.893l1.564-1.067-.564-.826zM72.771 85.663l-.447-.895-.553.276v.618h1zm0 191.879l.997.078.003-.039v-.039h-1zm45.449 84.742l.62-.784-.62.784zm57.37 36.084l.468-.884-.012-.006-.013-.006-.443.896zm.001.001l-.467.884.012.006.012.006.443-.896zm2.714 1.427l-.962.274 1.929-.532-.967.258zm3.287-1.809l-.457-.889.457.889zm50.621-31.454l.883-.468-.548-1.036-.937.705.602.799zm48.662 55.54l.63.776 1.021-.828-1.071-.763-.58.815zm-.616.502l-.633-.774-.007.006.64.768zm-.003.002l.63.777.01-.009-.64-.768zm-.005.005l-.63-.777-.003.002.633.775zm-1.164.942l-.622-.782h-.001l.623.782zm-95.205 61.099l.372.928.045-.018.043-.022-.46-.888zm-.001 0l-.371-.928-.045.018-.043.022.459.888zm-5.529 3.066l-.963.27 1.93-.526-.967.256zm-4.573-2.423l-.486.874.02.011.02.01.446-.895zm-.001-.001l.485-.874-.081-.045-.088-.03-.316.949zm0 0l-.446.895.063.032.066.022.317-.949zm-96.705-61.288l-.623.782.623-.782zM.462 280.04l.997.077.003-.039v-.038h-1zm0-243.164l-.45-.893-.55.277v.616h1zm355.191-.04h1v-.615l-.551-.277-.449.893zm0 95.455l.105.995.895-.095v-.9h-1zm81.476 158.333h-1 1zM515.316 560v1-1zm-18.45-5.413l.539-.843-.539.843zm47.356-10.393l-.842-.539.842.539zm-10.392-47.357l-.539.842.539-.842zm-322.272-1.143l-.533-.846.533.846zm-10.728 47.283l-.847.533h.001l.846-.533zm47.283 10.729l.533.846-.533-.846zM282.489 85.64v73.197h2V85.64h-2zm-209.271.917c28.806-14.392 66.851-21.607 104.943-21.605 38.091.001 76.116 7.218 104.881 21.583l.894-1.79c-29.118-14.54-67.47-21.792-105.775-21.793-38.306-.002-76.679 7.248-105.837 21.816l.894 1.789zm.553 190.985V85.662h-2v191.88h2zM118.84 361.5c-24.342-19.244-35.598-40.256-40.777-56.426-2.592-8.09-3.664-14.975-4.09-19.829a64.133 64.133 0 01-.26-5.65 38 38 0 01.047-1.86l.006-.091.001-.02a.03.03 0 010-.004v-.001l-.996-.077a72.84 72.84 0 00-.998-.076.03.03 0 000 .003v.009l-.002.029a13.302 13.302 0 00-.028.52c-.014.359-.03.885-.03 1.565a66.15 66.15 0 00.269 5.828c.436 4.98 1.533 12.013 4.176 20.264 5.288 16.51 16.758 37.87 41.442 57.385l1.24-1.569zm57.193 35.972c-7.766-3.84-31.211-15.431-57.193-35.972l-1.24 1.569c26.147 20.672 49.741 32.336 57.547 36.196l.886-1.793zm.026.013l-.001-.001-.936 1.768.002.001.935-1.768zm3.213 2.053c-.072-.269-.236-.431-.267-.463a1.27 1.27 0 00-.153-.133 2.444 2.444 0 00-.227-.149 11.278 11.278 0 00-.576-.314c-.469-.242-1.151-.58-2.014-1.006l-.887 1.792c.872.431 1.533.758 1.981.99.226.117.381.201.474.257.05.029.06.038.049.03a.854.854 0 01-.078-.07c-.013-.014-.166-.161-.235-.418l1.933-.516zm1.863-2.44c-1.069.55-1.91.982-2.479 1.289-.281.152-.517.285-.688.394-.08.05-.18.117-.269.194-.04.034-.122.108-.198.214-.038.053-.293.403-.158.881l1.924-.547c.132.464-.117.798-.14.83-.061.085-.119.134-.126.14-.022.019-.02.013.039-.024.108-.068.292-.174.568-.323.545-.295 1.362-.715 2.441-1.269l-.914-1.779zm50.476-31.364c-22.726 17.104-42.822 27.431-50.476 31.364l.914 1.779c7.682-3.948 27.9-14.337 50.765-31.545l-1.203-1.598zm49.844 55.524a159.357 159.357 0 01-48.359-55.193l-1.767.936a161.343 161.343 0 0048.966 55.886l1.16-1.629zm-.563 2.091l.613-.5-1.26-1.553-.619.505 1.266 1.548zm.004-.004l.003-.002-1.28-1.536-.003.002 1.28 1.536zm-.016.014l.006-.005-1.26-1.554-.005.005 1.259 1.554zm-1.17.947c.4-.318.789-.636 1.174-.95l-1.266-1.549c-.386.315-.766.626-1.153.935l1.245 1.564zm-95.368 61.205c14.029-7.264 52.904-27.392 95.368-61.205l-1.246-1.564c-42.308 33.689-81.045 53.746-95.041 60.993l.919 1.776zm-.089.04h.001l-.743-1.857-.001.001.743 1.856zm0 .001v-.001l-.743-1.856.743 1.857zm-4.938 1.867c.128.456-.116.781-.134.807a.654.654 0 01-.073.087l-.027.027.032-.024c.027-.019.064-.044.113-.075.202-.13.529-.318.995-.571.925-.504 2.308-1.221 4.12-2.159l-.919-1.776c-1.803.933-3.21 1.662-4.158 2.178-.471.257-.851.473-1.116.643a3.311 3.311 0 00-.375.27 1.442 1.442 0 00-.222.24c-.043.061-.296.415-.162.893l1.926-.54zm-5.982-1.258c1.465.73 2.587 1.289 3.349 1.686.383.2.658.35.834.455.091.055.133.084.144.092.007.006-.018-.012-.053-.048-.007-.008-.155-.15-.222-.402l1.934-.511c-.072-.272-.238-.44-.275-.479a1.575 1.575 0 00-.178-.155 3.757 3.757 0 00-.323-.212 18.81 18.81 0 00-.936-.513c-.783-.408-1.925-.977-3.382-1.703l-.892 1.79zm-.041-.022l.001.001.971-1.749h-.001l-.971 1.748zm.169.075h.001l.632-1.898-.633 1.898zm-97.01-61.455c44.017 35.066 83.739 54.854 96.881 61.401l.891-1.79c-13.101-6.527-52.674-26.241-96.527-61.175l-1.246 1.564zM.46 280.04c-.996-.077-.996-.076-.997-.075v.017a18.073 18.073 0 00-.015.225c-.01.156-.022.385-.034.685-.025.601-.05 1.485-.051 2.631-.004 2.291.085 5.629.45 9.835.732 8.414 2.573 20.307 7.01 34.265 8.876 27.923 28.135 64.082 69.626 97.136l1.246-1.564C36.547 390.413 17.5 354.603 8.73 327.017c-4.386-13.798-6.202-25.544-6.923-33.832-.36-4.144-.446-7.422-.443-9.659.002-1.119.026-1.977.05-2.552a35.639 35.639 0 01.041-.809l.003-.038a.82.82 0 000-.009v-.001l-.996-.077zm-1-243.164V280.04h2V36.876h-2zm356.641-.932C307.141 11.307 242.605-.998 178.109-1 113.613-1.002 49.042 11.299.012 35.983l.9 1.787C49.587 13.262 113.828.998 178.108 1c64.28.002 128.487 12.272 177.094 36.73l.899-1.786zm.551 96.347V36.837h-2v95.454h2zm-72.6 27.372c20.879-14.245 45.324-23.577 71.705-26.377l-.211-1.989c-26.718 2.836-51.477 12.288-72.621 26.714l1.127 1.652zM233.31 290.624c0 76.869 61.997 139.192 138.484 139.192v-2c-75.373 0-136.484-61.418-136.484-137.192h-2zm138.484-139.189c-76.487 0-138.484 62.32-138.484 139.189h2c0-75.774 61.111-137.189 136.484-137.189v-2zm138.484 139.189c0-76.869-61.996-139.189-138.484-139.189v2c75.374 0 136.484 61.415 136.484 137.189h2zM371.795 429.816c76.488 0 138.484-62.323 138.484-139.192h-2c0 75.774-61.11 137.192-136.484 137.192v2zm-67.353-139.192c0-36.56 29.485-66.185 65.844-66.185v-2c-37.473 0-67.844 30.53-67.844 68.185h2zm65.844 66.189c-36.359 0-65.844-29.629-65.844-66.189h-2c0 37.655 30.371 68.189 67.844 68.189v-2zm65.843-66.189c0 36.56-29.484 66.189-65.843 66.189v2c37.473 0 67.843-30.534 67.843-68.189h-2zm-65.843-66.185c36.359 0 65.843 29.625 65.843 66.185h2c0-37.655-30.37-68.185-67.843-68.185v2zM515.316 559a33.109 33.109 0 01-17.911-5.256l-1.079 1.685a35.112 35.112 0 0018.99 5.571v-2zm28.064-15.345c-6.351 9.924-17.091 15.343-28.065 15.345l.001 2c11.626-.002 23.015-5.745 29.749-16.267l-1.685-1.078zm-10.089-45.976c15.482 9.908 19.999 30.493 10.089 45.976l1.685 1.078c10.505-16.413 5.716-38.235-10.696-48.739l-1.078 1.685zm-161.497-47.151c57.461 0 113.304 16.305 161.497 47.151l1.078-1.685c-48.516-31.053-104.733-47.466-162.575-47.466v2zM212.091 496.54c47.771-30.102 102.994-46.012 159.703-46.012v-2c-57.085 0-112.677 16.016-160.769 46.32l1.066 1.692zm-10.415 45.904c-9.8-15.553-5.137-36.104 10.415-45.904l-1.066-1.692c-16.486 10.389-21.43 32.175-11.042 48.662l1.693-1.066zm45.904 10.415c-15.554 9.801-36.105 5.136-45.904-10.415l-1.692 1.066c10.388 16.486 32.173 21.431 48.662 11.042l-1.066-1.693zm124.215-35.763c-44.13 0-87.084 12.366-124.215 35.763l1.066 1.693c36.81-23.196 79.394-35.456 123.149-35.456v-2zm125.61 36.648c-37.459-23.976-80.896-36.648-125.61-36.648v2c44.334 0 87.397 12.564 124.532 36.333l1.078-1.685z" fill="#E4E4EB" mask="url(#path-1-inside-1)"/></svg>