<svg width="232" height="236" fill="none" xmlns="http://www.w3.org/2000/svg"><g clip-path="url(#clip0)"><g filter="url(#filter0_b)"><path d="M75.17 168.486l-.28.641h0l-.002-.001-.008-.003-.027-.012a66.545 66.545 0 01-2.063-.974 113.862 113.862 0 01-5.602-2.963 140.046 140.046 0 01-17.822-11.947c-10.471-8.262-15.344-17.312-17.592-24.318-1.123-3.499-1.59-6.484-1.776-8.6a28.106 28.106 0 01-.114-2.481 17.11 17.11 0 01.021-.849l.003-.039V35.668l.388-.194c12.36-6.164 28.609-9.223 44.813-9.223 16.205 0 32.444 3.062 44.788 9.214l.387.193v30.81l29.072-11.343V15.957C128.927 5.802 102.03.701 75.087.7 48.144.7 21.233 5.799.775 15.974v102.042l-.7.001h.7v.027l-.002.027h0v.003l-.001.015-.004.065a27.323 27.323 0 00-.034 1.332c-.001.936.035 2.309.186 4.047.303 3.475 1.066 8.404 2.911 14.197 3.688 11.578 11.701 26.621 29.03 40.398a233.91 233.91 0 0029.799 20.128 190.015 190.015 0 009.349 4.984 117.223 117.223 0 003.175 1.516c.148-.069.35-.165.606-.288a129.7 129.7 0 002.562-1.274 203.06 203.06 0 009.312-5.084 246.815 246.815 0 0029.626-20.173l.436.548-.436-.548.039-.031a68.318 68.318 0 01-19.628-22.392 150.146 150.146 0 01-15.426 10.043 120.073 120.073 0 01-4.966 2.665 70.913 70.913 0 01-1.722.842l-.093.043-.024.011-.007.003-.001.001h0c-.001 0-.001.001-.292-.636zm0 0l-.28.641.287.125.284-.129-.29-.637z" stroke="#5DCC63" stroke-width="1.4"/></g><g filter="url(#filter1_b)"><path d="M156.872 180.015c-31.673 0-57.353-25.758-57.353-57.538 0-31.78 25.68-57.537 57.353-57.537 31.673 0 57.353 25.758 57.353 57.537 0 31.78-25.68 57.538-57.353 57.538zm-.637-86.552c-15.977 0-28.925 12.992-28.925 29.014 0 16.023 12.948 29.015 28.925 29.015 15.976 0 28.924-12.992 28.924-29.015.001-16.022-12.948-29.014-28.924-29.014z" stroke="#5DCC63" stroke-width="1.4"/></g><g filter="url(#filter2_b)"><path d="M210.06 233.129h0c-15.862-10.133-34.255-15.489-53.188-15.489-18.686 0-36.874 5.226-52.598 15.115-6.438 4.049-14.945 2.121-19-4.303-4.056-6.423-2.127-14.912 4.31-18.96 20.127-12.658 43.394-19.348 67.288-19.348 24.21 0 47.738 6.856 68.043 19.827 6.408 4.093 8.277 12.595 4.176 18.99l.589.378-.589-.378c-2.629 4.099-7.074 6.338-11.617 6.339-2.542 0-5.113-.701-7.414-2.171z" stroke="#5DCC63" stroke-width="1.4"/></g></g><defs><filter id="filter0_b" x="-15.966" y="-16" width="182.022" height="237.526" filterUnits="userSpaceOnUse" color-interpolation-filters="sRGB"><feFlood flood-opacity="0" result="BackgroundImageFix"/><feGaussianBlur in="BackgroundImage" stdDeviation="8"/><feComposite in2="SourceAlpha" operator="in" result="effect1_backgroundBlur"/><feBlend in="SourceGraphic" in2="effect1_backgroundBlur" result="shape"/></filter><filter id="filter1_b" x="82.819" y="48.24" width="148.106" height="148.475" filterUnits="userSpaceOnUse" color-interpolation-filters="sRGB"><feFlood flood-opacity="0" result="BackgroundImageFix"/><feGaussianBlur in="BackgroundImage" stdDeviation="8"/><feComposite in2="SourceAlpha" operator="in" result="effect1_backgroundBlur"/><feBlend in="SourceGraphic" in2="effect1_backgroundBlur" result="shape"/></filter><filter id="filter2_b" x="66.451" y="173.444" width="181.515" height="78.556" filterUnits="userSpaceOnUse" color-interpolation-filters="sRGB"><feFlood flood-opacity="0" result="BackgroundImageFix"/><feGaussianBlur in="BackgroundImage" stdDeviation="8"/><feComposite in2="SourceAlpha" operator="in" result="effect1_backgroundBlur"/><feBlend in="SourceGraphic" in2="effect1_backgroundBlur" result="shape"/></filter><clipPath id="clip0"><path fill="#fff" d="M0 0h232v236H0z"/></clipPath></defs></svg>