<svg width="550" height="560" fill="none" xmlns="http://www.w3.org/2000/svg"><mask id="path-1-inside-1" fill="#fff"><path fill-rule="evenodd" clip-rule="evenodd" d="M283.125 158.837V85.64c-57.883-28.904-152.753-28.938-210.718.023v191.88s-3.577 45.982 45.449 84.742c26.065 20.606 49.584 32.234 57.37 36.083l.002.001c1.734.858 2.687 1.329 2.714 1.427-.03-.104 1.138-.704 3.287-1.808 7.667-3.941 27.824-14.299 50.62-31.455a160.341 160.341 0 0048.662 55.54l-.616.502-.003.003-.005.004c-.385.314-.77.629-1.164.942-42.386 33.751-81.192 53.844-95.205 61.099h-.001c-3.614 1.872-5.579 2.889-5.529 3.066-.044-.167-1.65-.967-4.573-2.423l-.001-.001c-13.122-6.537-52.769-26.288-96.704-61.288C-5.932 358.141.098 280.04.098 280.04V36.876c97.707-49.19 257.622-49.133 355.191-.039v95.454c-26.55 2.819-51.152 12.211-72.164 26.546zm88.306 269.979c-75.93 0-137.483-61.87-137.483-138.192 0-76.321 61.553-138.189 137.483-138.189 75.931 0 137.484 61.868 137.484 138.189 0 76.322-61.553 138.192-137.484 138.192zm-1.509-205.377c-36.916 0-66.843 30.078-66.843 67.185s29.927 67.189 66.843 67.189c36.916 0 66.843-30.082 66.843-67.189 0-37.107-29.927-67.185-66.843-67.185zm126.58 331.148a34.11 34.11 0 0018.45 5.413c11.299-.001 22.364-5.583 28.906-15.805 10.208-15.949 5.555-37.152-10.392-47.358-48.354-30.95-104.384-47.309-162.036-47.309-56.897 0-112.304 15.964-160.236 46.166-16.019 10.095-20.823 31.263-10.728 47.283 10.093 16.019 31.262 20.824 47.283 10.729 36.971-23.297 79.739-35.61 123.682-35.61 44.524 0 87.774 12.619 125.071 36.491z"/></mask><path d="M283.125 85.64h1v-.618l-.553-.276-.447.894zm0 73.197h-1v1.893l1.564-1.067-.564-.826zM72.407 85.663l-.447-.895-.553.276v.619h1zm0 191.88l.997.077.003-.039v-.038h-1zm45.449 84.742l.621-.785-.621.785zm57.37 36.083l.468-.883-.012-.007-.013-.006-.443.896zm.002.001l-.468.884.012.007.012.006.444-.897zm2.714 1.427l-.962.274 1.928-.532-.966.258zm3.287-1.808l-.458-.89.458.89zm50.62-31.455l.883-.468-.548-1.036-.937.705.602.799zm48.662 55.54l.63.776 1.021-.828-1.071-.763-.58.815zm-.616.502l-.633-.774-.007.006.64.768zm-.003.003l.63.777.01-.009-.64-.768zm-.005.004l-.63-.777-.003.002.633.775zm-1.164.942l-.622-.782.622.782zm-95.205 61.099l.372.929.045-.019.043-.022-.46-.888zm-.001 0l-.371-.928-.045.018-.043.022.459.888zm-5.529 3.066l-.963.27 1.93-.526-.967.256zm-4.573-2.423l-.486.874.02.011.02.01.446-.895zm-.001-.001l.486-.874-.082-.045-.088-.029-.316.948zm0 0l-.446.895.063.032.066.022.317-.949zM76.71 423.977l-.624.782.624-.782zM.098 280.04l.997.077.003-.038v-.039h-1zm0-243.164l-.45-.893-.55.277v.617h1zm355.191-.039h1v-.616l-.551-.277-.449.893zm0 95.454l.105.995.895-.095v-.9h-1zm81.476 158.333h-1 1zM514.952 560v1-1zm-18.45-5.413l.539-.842-.539.842zm47.356-10.392l-.842-.54.842.54zm-10.392-47.358l-.539.842.539-.842zm-322.272-1.143l-.533-.846.533.846zm-10.728 47.283l-.846.533.846-.533zm47.283 10.729l.533.846-.533-.846zM282.125 85.64v73.197h2V85.64h-2zm-209.271.917c28.806-14.392 66.851-21.606 104.943-21.605 38.091.001 76.116 7.219 104.882 21.583l.893-1.79c-29.117-14.54-67.469-21.792-105.775-21.793-38.306-.002-76.679 7.248-105.837 21.816l.894 1.79zm.553 190.986V85.663h-2v191.88h2zm45.07 83.957c-24.343-19.244-35.599-40.255-40.778-56.426-2.591-8.09-3.664-14.975-4.089-19.828a64.164 64.164 0 01-.261-5.65 38.016 38.016 0 01.047-1.861 12.057 12.057 0 01.008-.115l-.997-.077a48.614 48.614 0 00-.998-.074v.009l-.002.029-.007.109a40.147 40.147 0 00-.051 1.977c-.002 1.36.05 3.337.269 5.827.436 4.98 1.533 12.013 4.176 20.264 5.289 16.51 16.758 37.87 41.442 57.385l1.241-1.569zm57.192 35.972c-7.766-3.84-31.211-15.431-57.192-35.972l-1.241 1.569c26.147 20.672 49.741 32.337 57.547 36.196l.886-1.793zm.026.014l-.001-.001-.936 1.767.002.001.935-1.767zm3.213 2.052c-.072-.268-.236-.431-.267-.463a1.276 1.276 0 00-.152-.133 2.594 2.594 0 00-.228-.149 12.546 12.546 0 00-.576-.314c-.469-.242-1.151-.579-2.014-1.006l-.887 1.793c.872.43 1.533.758 1.981.99.227.117.381.2.474.256.05.03.06.038.049.03a.706.706 0 01-.078-.07c-.013-.013-.166-.161-.235-.418l1.933-.516zm1.863-2.44c-1.069.55-1.91.982-2.479 1.289-.281.152-.517.286-.688.394a2.44 2.44 0 00-.269.194c-.04.035-.122.108-.198.214-.038.053-.293.404-.157.881l1.923-.547c.132.464-.117.798-.14.83-.061.086-.119.134-.126.14-.022.019-.019.014.04-.024.107-.068.291-.173.567-.322.545-.295 1.363-.715 2.442-1.27l-.915-1.779zm50.476-31.364c-22.726 17.104-42.822 27.431-50.476 31.364l.915 1.779c7.682-3.948 27.899-14.337 50.764-31.545l-1.203-1.598zm49.844 55.524a159.357 159.357 0 01-48.359-55.193l-1.767.936a161.343 161.343 0 0048.966 55.886l1.16-1.629zm-.563 2.092l.613-.501-1.26-1.553-.619.505 1.266 1.549zm.004-.004l.003-.003-1.28-1.536-.003.002 1.28 1.537zm-.016.013l.006-.005-1.259-1.553-.006.004 1.259 1.554zm-1.17.948c.4-.318.79-.637 1.174-.951l-1.266-1.549c-.386.316-.766.626-1.153.935l1.245 1.565zm-95.368 61.204c14.029-7.263 52.904-27.391 95.368-61.204l-1.245-1.565c-42.309 33.689-81.046 53.746-95.042 60.993l.919 1.776zm-.089.041h.001l-.743-1.857.742 1.857zm0 0l-.742-1.857h-.001l.743 1.857zm-4.938 1.867c.128.456-.116.781-.134.807-.031.044-.059.073-.073.088-.014.015-.025.024-.027.026l.033-.024a2.1 2.1 0 01.112-.075c.202-.129.529-.317.995-.571.925-.504 2.308-1.22 4.12-2.159l-.919-1.776c-1.803.934-3.209 1.662-4.158 2.179a19.9 19.9 0 00-1.116.642 3.41 3.41 0 00-.375.271 1.387 1.387 0 00-.222.239c-.043.061-.296.415-.162.893l1.926-.54zm-5.982-1.258c1.465.73 2.587 1.289 3.349 1.687.384.199.658.349.834.455.091.054.133.083.144.092.007.005-.017-.012-.053-.049-.007-.007-.155-.15-.222-.401l1.934-.512c-.072-.272-.238-.44-.275-.478a1.426 1.426 0 00-.178-.156 3.9 3.9 0 00-.322-.212c-.229-.137-.547-.31-.937-.513-.782-.408-1.925-.977-3.382-1.703l-.892 1.79zm-.041-.021h.001l.971-1.748v-.001l-.972 1.749zm.169.074h.001l.632-1.897-.633 1.897zm-97.01-61.455c44.018 35.066 83.739 54.855 96.881 61.401l.892-1.79c-13.102-6.527-52.675-26.241-96.527-61.175l-1.247 1.564zM.096 280.04c-.996-.077-.996-.076-.996-.075v.004l-.002.013-.003.047-.011.178c-.01.156-.022.385-.034.686-.024.6-.05 1.484-.05 2.63-.004 2.291.084 5.629.45 9.836.731 8.413 2.572 20.307 7.01 34.264 8.875 27.923 28.134 64.082 69.625 97.136l1.247-1.564c-41.15-32.782-60.198-68.592-68.967-96.178-4.386-13.797-6.202-25.544-6.923-33.832-.36-4.143-.446-7.422-.443-9.659a65.69 65.69 0 01.05-2.552 35.546 35.546 0 01.041-.809l.003-.038a.82.82 0 000-.009v-.001l-.996-.077zm-1-243.164V280.04h2V36.876h-2zm356.641-.932C306.777 11.308 242.242-.998 177.745-1 113.249-1.002 48.678 11.3-.352 35.983l.9 1.787C49.223 13.264 113.464.998 177.744 1c64.28.002 128.487 12.272 177.094 36.73l.899-1.786zm.551 96.347V36.837h-2v95.454h2zm-72.6 27.372c20.879-14.244 45.324-23.577 71.705-26.377l-.211-1.989c-26.718 2.836-51.477 12.289-72.621 26.714l1.127 1.652zm-50.741 130.961c0 76.869 61.996 139.192 138.483 139.192v-2c-75.373 0-136.483-61.418-136.483-137.192h-2zM371.43 151.435c-76.487 0-138.483 62.321-138.483 139.189h2c0-75.774 61.11-137.189 136.483-137.189v-2zm138.484 139.189c0-76.868-61.996-139.189-138.484-139.189v2c75.374 0 136.484 61.415 136.484 137.189h2zM371.431 429.816c76.488 0 138.484-62.323 138.484-139.192h-2c0 75.774-61.11 137.192-136.484 137.192v2zm-67.352-139.192c0-36.559 29.484-66.185 65.843-66.185v-2c-37.473 0-67.843 30.531-67.843 68.185h2zm65.843 66.189c-36.359 0-65.843-29.629-65.843-66.189h-2c0 37.655 30.37 68.189 67.843 68.189v-2zm65.843-66.189c0 36.56-29.484 66.189-65.843 66.189v2c37.473 0 67.843-30.534 67.843-68.189h-2zm-65.843-66.185c36.359 0 65.843 29.626 65.843 66.185h2c0-37.654-30.37-68.185-67.843-68.185v2zM514.952 559a33.107 33.107 0 01-17.911-5.255l-1.079 1.684a35.115 35.115 0 0018.99 5.571v-2zm28.064-15.345c-6.351 9.924-17.091 15.344-28.064 15.345v2c11.626-.001 23.015-5.744 29.749-16.266l-1.685-1.079zm-10.089-45.976c15.482 9.909 19.999 30.493 10.089 45.976l1.685 1.079c10.505-16.414 5.716-38.235-10.696-48.739l-1.078 1.684zM371.43 450.528c57.462 0 113.305 16.305 161.497 47.151l1.078-1.684c-48.516-31.053-104.733-47.467-162.575-47.467v2zM211.727 496.54c47.771-30.101 102.994-46.012 159.703-46.012v-2c-57.084 0-112.677 16.016-160.769 46.32l1.066 1.692zm-10.415 45.904c-9.8-15.553-5.136-36.104 10.415-45.904l-1.066-1.692c-16.486 10.389-21.43 32.175-11.041 48.662l1.692-1.066zm45.904 10.416c-15.554 9.8-36.105 5.135-45.904-10.416l-1.692 1.066c10.388 16.486 32.174 21.431 48.662 11.042l-1.066-1.692zm124.215-35.764c-44.13 0-87.084 12.366-124.215 35.764l1.066 1.692c36.811-23.195 79.394-35.456 123.149-35.456v-2zm125.61 36.649c-37.459-23.976-80.896-36.649-125.61-36.649v2c44.334 0 87.397 12.564 124.532 36.333l1.078-1.684z" fill="#E4E4EB" mask="url(#path-1-inside-1)"/></svg>