<svg width="437" height="445" fill="none" xmlns="http://www.w3.org/2000/svg"><mask id="path-1-inside-1" fill="#fff"><path fill-rule="evenodd" clip-rule="evenodd" d="M224.983 126.219V68.053c-45.996-22.968-121.384-22.995-167.446.018v152.476s-2.842 36.54 36.117 67.34a254.083 254.083 0 0045.588 28.673v.001c1.379.681 2.137 1.056 2.158 1.134-.024-.083.904-.56 2.612-1.437 6.093-3.131 22.11-11.362 40.225-24.995a127.415 127.415 0 0038.669 44.134l-.492.401c-.307.251-.614.502-.929.752-33.682 26.821-64.519 42.787-75.654 48.552-2.872 1.487-4.434 2.296-4.394 2.436-.035-.132-1.312-.768-3.635-1.926-10.427-5.194-41.932-20.889-76.845-48.702C-4.713 284.594.077 222.532.077 222.532V29.304C77.72-9.785 204.796-9.74 282.328 29.272v75.852c-21.097 2.24-40.647 9.703-57.344 21.095zm70.171 214.537c-60.337 0-109.25-49.165-109.25-109.814 0-60.648 48.913-109.811 109.25-109.811 60.338 0 109.251 49.163 109.251 109.811 0 60.649-48.913 109.814-109.251 109.814zm-1.199-163.202c-29.335 0-53.117 23.902-53.117 53.388 0 29.487 23.782 53.391 53.117 53.391 29.335 0 53.116-23.904 53.116-53.391.001-29.486-23.781-53.388-53.116-53.388zm100.586 263.144A27.103 27.103 0 00409.202 445c8.979-.001 17.772-4.436 22.971-12.56 8.112-12.673 4.414-29.522-8.258-37.632-38.425-24.594-82.948-37.594-128.761-37.594-45.213 0-89.242 12.685-127.33 36.685-12.73 8.022-16.547 24.843-8.526 37.574 8.021 12.729 24.843 16.547 37.574 8.525 29.378-18.512 63.364-28.297 98.283-28.297 35.381 0 69.749 10.027 99.386 28.997z"/></mask><path d="M224.983 68.053h1v-.618l-.553-.276-.447.894zm0 58.166h-1v1.893l1.564-1.067-.564-.826zM57.537 68.071l-.447-.894-.553.276v.618h1zm0 152.476l.997.078.003-.039v-.039h-1zm36.117 67.34l.62-.785-.62.785zm45.588 28.673l-.443.897.018.009.019.008.406-.914zm0 .001l.444-.897-.019-.009-.018-.008-.407.914zm2.158 1.134l-.962.273 1.928-.531-.966.258zm2.612-1.437l-.457-.89.457.89zm40.225-24.995l.884-.468-.549-1.036-.937.705.602.799zm38.669 44.134l.63.777 1.021-.829-1.071-.763-.58.815zm-.492.401l.633.774-.633-.774zm-.929.752l-.622-.782.622.782zm-75.654 48.552l-.46-.888.46.888zm-4.394 2.436l-.963.271 1.93-.526-.967.255zm-3.635-1.926l-.446.896.446-.896zM60.957 336.91l-.623.782.623-.782zM.077 222.532l.998.077.003-.039v-.038h-1zm0-193.228l-.449-.893-.55.276v.617h1zm282.25-.032h1v-.616l-.55-.277-.45.893zm0 75.852l.106.995.894-.095v-.9h-1zm64.744 125.818h-1 1zM409.202 445v1-1zm-14.661-4.302l.539-.842-.539.842zm37.632-8.258l-.842-.539.842.539zm-8.258-37.632l-.539.842.539-.842zm-256.091-.909l-.533-.846.533.846zm-8.526 37.574l-.846.533.846-.533zm37.574 8.525l.533.846-.533-.846zm27.111-371.945v58.166h2V68.053h-2zm-165.999.913c22.855-11.419 53.054-17.148 83.301-17.147 30.247.001 60.43 5.733 83.252 17.13l.893-1.79c-23.174-11.573-53.684-17.339-84.145-17.34-30.462-.001-60.988 5.763-84.195 17.358l.894 1.789zm.553 151.581V68.071h-2v152.476h2zm35.737 66.555c-19.308-15.264-28.23-31.925-32.336-44.74-2.053-6.412-2.903-11.868-3.24-15.712a50.724 50.724 0 01-.207-4.471 29.962 29.962 0 01.042-1.537l.001-.015v-.003l-.997-.077-.997-.076v.01l-.002.024-.006.088-.016.331c-.012.288-.024.708-.025 1.252-.001 1.086.04 2.664.215 4.649.348 3.97 1.222 9.574 3.328 16.147 4.213 13.155 13.349 30.164 33 45.699l1.24-1.569zm45.411 28.562c-6.167-3.049-24.782-12.253-45.411-28.562l-1.24 1.569c20.794 16.44 39.558 25.717 45.765 28.786l.886-1.793zm-.036-.017h-.001l-.812 1.827.813-1.827zm2.717 1.79c-.071-.267-.234-.429-.263-.458a1.327 1.327 0 00-.145-.127 2.4 2.4 0 00-.199-.131 10.454 10.454 0 00-.469-.255c-.375-.194-.919-.463-1.604-.802l-.887 1.793c.694.343 1.218.602 1.572.785.179.093.297.157.366.198.037.023.038.025.021.012-.008-.006-.043-.032-.086-.076-.015-.016-.169-.165-.238-.423l1.932-.516zm1.189-2.069c-.849.437-1.52.781-1.974 1.027-.224.121-.417.23-.559.32a2.025 2.025 0 00-.238.172 1.159 1.159 0 00-.191.206c-.036.051-.29.4-.155.875l1.924-.546c.132.465-.118.801-.142.835a.798.798 0 01-.133.147c-.03.026-.038.028.007-.001.079-.05.22-.131.438-.249.431-.233 1.079-.566 1.937-1.007l-.914-1.779zm40.08-24.904c-18.045 13.58-34.001 21.781-40.08 24.904l.914 1.779c6.108-3.138 22.185-11.4 40.369-25.085l-1.203-1.598zm39.851 44.118a126.408 126.408 0 01-38.365-43.787l-1.768.936a128.407 128.407 0 0038.973 44.48l1.16-1.629zm-.439 1.99l.489-.398-1.26-1.554-.494.404 1.265 1.548zm-.939.761c.32-.255.633-.51.939-.761l-1.265-1.549c-.309.252-.611.499-.919.745l1.245 1.565zm-75.817 48.657c11.151-5.773 42.057-21.775 75.817-48.657l-1.245-1.565c-33.605 26.758-64.373 42.689-75.492 48.446l.92 1.776zm-3.891 1.278c.128.459-.116.787-.137.816-.058.082-.112.126-.113.127-.011.01.009-.008.092-.061.154-.099.409-.245.778-.447.733-.399 1.83-.967 3.271-1.713l-.92-1.776a207.333 207.333 0 00-3.307 1.733c-.375.204-.683.379-.9.518a2.798 2.798 0 00-.321.233 1.274 1.274 0 00-.21.226c-.04.057-.293.409-.159.885l1.926-.541zm-5.044-.76a181.24 181.24 0 012.659 1.338c.304.159.518.276.652.356l.074.046.022.015a.668.668 0 01-.066-.06c-.01-.01-.16-.155-.227-.409l1.934-.511c-.072-.27-.236-.436-.27-.471a1.558 1.558 0 00-.165-.145 3.702 3.702 0 00-.274-.181 16.596 16.596 0 00-.755-.413c-.624-.326-1.535-.779-2.692-1.356l-.892 1.791zm-77.022-48.816c34.995 27.879 66.575 43.611 77.022 48.816l.892-1.791c-10.407-5.184-41.838-20.842-76.668-48.589l-1.246 1.564zM.078 222.532c-.997-.077-.997-.076-.997-.075v.003l-.001.01a6.14 6.14 0 00-.012.182 50.718 50.718 0 00-.067 2.647 89.591 89.591 0 00.358 7.834c.582 6.698 2.048 16.165 5.579 27.272 7.064 22.224 22.39 50.993 55.395 77.287l1.247-1.564c-32.665-26.022-47.78-54.442-54.736-76.329-3.48-10.947-4.921-20.266-5.493-26.839a87.62 87.62 0 01-.35-7.658c0-.886.02-1.565.038-2.02a27.988 27.988 0 01.033-.637l.002-.029v-.008l-.996-.076zm-1-193.228v193.228h2V29.304h-2zm283.699-.925C243.834 8.784 192.518-.998 141.244-1 89.97-1.002 38.626 8.777-.372 28.41l.9 1.787C39.17 10.74 90.185.998 141.243 1c51.057.002 102.045 9.748 140.634 29.166l.899-1.787zm.55 76.745V29.272h-2v75.852h2zm-57.78 21.921c16.564-11.301 35.957-18.705 56.886-20.926l-.211-1.989c-21.266 2.257-40.973 9.781-57.802 21.263l1.127 1.652zm-40.643 103.897c0 61.196 49.356 110.814 110.25 110.814v-2c-59.78 0-108.25-48.713-108.25-108.814h-2zm110.25-110.811c-60.894 0-110.25 49.616-110.25 110.811h2c0-60.1 48.47-108.811 108.25-108.811v-2zm110.251 110.811c0-61.195-49.356-110.811-110.251-110.811v2c59.781 0 108.251 48.711 108.251 108.811h2zM295.154 341.756c60.895 0 110.251-49.618 110.251-110.814h-2c0 60.101-48.47 108.814-108.251 108.814v2zm-53.316-110.814c0-28.939 23.339-52.388 52.117-52.388v-2c-29.892 0-54.117 24.354-54.117 54.388h2zm52.117 52.391c-28.778 0-52.117-23.451-52.117-52.391h-2c0 30.035 24.225 54.391 54.117 54.391v-2zm52.116-52.391c0 28.94-23.338 52.391-52.116 52.391v2c29.892 0 54.116-24.356 54.116-54.391h-2zm-52.116-52.388c28.778 0 52.116 23.449 52.116 52.388h2c.001-30.034-24.224-54.388-54.116-54.388v2zM409.202 444a26.109 26.109 0 01-14.122-4.144l-1.078 1.684a28.1 28.1 0 0015.2 4.46v-2zm22.129-12.099c-5.008 7.824-13.476 12.098-22.129 12.099v2c9.306-.001 18.423-4.598 23.813-13.021l-1.684-1.078zm-7.955-36.251c12.206 7.813 15.769 24.043 7.955 36.251l1.684 1.078c8.409-13.138 4.576-30.606-8.561-39.014l-1.078 1.685zm-128.222-37.436c45.622 0 89.959 12.946 128.222 37.436l1.078-1.685c-38.586-24.697-83.297-37.751-129.3-37.751v2zm-126.797 36.531c37.928-23.899 81.772-36.531 126.797-36.531v-2c-45.4 0-89.615 12.738-127.863 36.839l1.066 1.692zm-8.213 36.195c-7.726-12.263-4.049-28.467 8.213-36.195l-1.066-1.692c-13.197 8.317-17.154 25.755-8.839 38.953l1.692-1.066zm36.195 8.212c-12.264 7.727-28.468 4.049-36.195-8.212l-1.692 1.066c8.316 13.196 25.754 17.154 38.953 8.838l-1.066-1.692zm98.816-28.451c-35.107 0-69.277 9.838-98.816 28.451l1.066 1.692c29.218-18.411 63.019-28.143 97.75-28.143v-2zm99.925 29.155c-29.799-19.073-64.355-29.155-99.925-29.155v2c35.191 0 69.371 9.973 98.847 28.839l1.078-1.684z" fill="#E4E4EB" mask="url(#path-1-inside-1)"/></svg>